<svg width="25" height="25" viewBox="0 0 25 25" fill="none" xmlns="http://www.w3.org/2000/svg">
<path d="M17.8571 0H7.14286V1.5625H3.57143V3.125H1.78571V6.25H0V18.75H1.78571V21.875H3.57143V23.4375H7.14286V25H17.8571V23.4375H21.4286V21.875H23.2143V18.75H25V6.25H23.2143V3.125H21.4286V1.5625H17.8571V0Z" fill="black"/>
<path d="M14.2857 1.5625H8.92856V3.125H5.35713V4.6875H3.57142V7.8125H1.78571V17.1875H3.57142V20.3125H5.35713V21.875H8.92856V23.4375H14.2857V21.875H17.8571V20.3125H19.6428V17.1875H21.4286V7.8125H19.6428V4.6875H17.8571V3.125H14.2857V1.5625Z" fill="#FCB5A8"/>
<path d="M8.92855 3.125H17.8571V4.6875H19.6428V7.8125H21.4286V17.1875H19.6428V21.875H17.8571V23.4375H8.92855V21.875H7.14284V20.3125H5.35713V17.1875H3.57141V7.8125H5.35713V4.6875H8.92855V3.125Z" fill="#FC8E2E"/>
<path d="M16.0714 4.6875H14.2857V18.75H8.92859V20.3125H16.0714V4.6875Z" fill="black"/>
<path d="M17.8572 21.875V23.4375H14.2857V21.875H17.8572Z" fill="black"/>
<path d="M17.8572 21.875V20.3125H21.4286V21.875H17.8572Z" fill="black"/>
<path d="M8.92859 4.6875V18.75H10.7143V6.25H14.2857V4.6875H8.92859Z" fill="#FCB5A8"/>
</svg>
