<svg width="27" height="129" viewBox="0 0 27 129" fill="none" xmlns="http://www.w3.org/2000/svg">
<rect width="27" height="129" fill="black"/>
<rect x="0.84375" y="2.6875" width="24.4688" height="123.625" fill="#FC8E2E"/>
<path fill-rule="evenodd" clip-rule="evenodd" d="M13.5 5.375H24.4688V123.625H10.125V112.875H10.9688V107.5H12.6562V94.0625H11.8125V59.125H10.9688V102.125H9.28125V107.5H8.4375V72.5625H9.28125V91.375H10.125V72.5625H9.28125V43H10.125V29.5625H9.28125V18.8125H8.4375V21.5H7.59375V43H8.4375V61.8125H7.59375V96.75H6.75V94.0625H5.90625V91.375H5.0625V99.4375H5.90625V120.938H5.0625V107.5H4.21875V86H5.0625V69.875H4.21875V43H5.0625V26.875H4.21875V21.5H5.90625V29.5625H6.75V13.4375H5.90625V5.375H7.59375V16.125H8.4375V5.375H11.8125V21.5H10.9688V43H11.8125V21.5H12.6562V8.0625H13.5V5.375ZM6.75 72.5625V43H5.90625V72.5625H6.75Z" fill="#C24108"/>
<path d="M8.4375 43V29.5625H9.28125V43H8.4375Z" fill="#C24108"/>
<path d="M8.4375 107.5V120.938H7.59375V107.5H8.4375Z" fill="#C24108"/>
<path d="M6.75 2.6875H8.4375V16.125H7.59375V5.375H6.75V2.6875Z" fill="black"/>
<path d="M25.3125 5.375V126.312H1.6875V123.625H14.3438V120.938H15.1875V107.5H16.0312V123.625H17.7188V120.938H18.5625V112.875H19.4062V123.625H20.25V118.25H21.0938V107.5H21.9375V123.625H23.625V107.5H22.7812V94.0625H23.625V102.125H24.4688V91.375H23.625V59.125H22.7812V83.3125H21.9375V104.812H21.0938V107.5H20.25V96.75H21.0938V75.25H21.9375V43H23.625V21.5H22.7812V40.3125H21.9375V43H21.0938V32.25H21.9375V18.8125H22.7812V5.375H25.3125Z" fill="black"/>
<path d="M21.9375 18.8125H21.0938V5.375H21.9375V18.8125Z" fill="black"/>
<path d="M17.7188 83.3125V107.5H16.0312V94.0625H16.875V83.3125H17.7188Z" fill="black"/>
<path d="M17.7188 40.3125H16.875V43H16.0312V51.0625H16.875V64.5H17.7188V83.3125H18.5625V48.375H17.7188V40.3125Z" fill="black"/>
<path fill-rule="evenodd" clip-rule="evenodd" d="M17.7188 21.5V16.125H18.5625V5.375H16.875V21.5H17.7188ZM17.7188 21.5V40.3125H18.5625V21.5H17.7188Z" fill="black"/>
</svg>
