<svg width="307" height="74" viewBox="0 0 307 74" fill="none" xmlns="http://www.w3.org/2000/svg">
<path d="M3 71V3H266.879L303 34.0857L266.879 71H3Z" fill="#FC8E2E"/>
<path d="M3 3V0.5H0.5V3H3ZM3 71H0.5V73.5H3V71ZM266.879 71V73.5H267.93L268.666 72.7485L266.879 71ZM303 34.0857L304.787 35.8342L306.651 33.9293L304.631 32.1908L303 34.0857ZM266.879 3L268.51 1.1051L267.806 0.5H266.879V3ZM0.5 3V71H5.5V3H0.5ZM3 73.5H266.879V68.5H3V73.5ZM268.666 72.7485L304.787 35.8342L301.213 32.3372L265.092 69.2515L268.666 72.7485ZM304.631 32.1908L268.51 1.1051L265.248 4.8949L301.369 35.9806L304.631 32.1908ZM266.879 0.5H3V5.5H266.879V0.5Z" fill="black"/>
</svg>
