<svg width="61" height="58" viewBox="0 0 61 58" fill="none" xmlns="http://www.w3.org/2000/svg">
<path d="M41.9375 18.125C41.9375 12.1189 36.8168 7.25 30.5 7.25C24.1832 7.25 19.0625 12.1189 19.0625 18.125C19.0625 24.1311 24.1832 29 30.5 29C36.8168 29 41.9375 24.1311 41.9375 18.125Z" fill="white"/>
<path d="M45.75 36.25H15.25C13.1444 36.25 11.4375 37.873 11.4375 39.875V47.125C11.4375 49.127 13.1444 50.75 15.25 50.75H45.75C47.8556 50.75 49.5625 49.127 49.5625 47.125V39.875C49.5625 37.873 47.8556 36.25 45.75 36.25Z" fill="white"/>
<path d="M57.1875 21.75H45.75V25.375H57.1875V21.75Z" fill="white"/>
<path d="M53.375 18.125H49.5625V29H53.375V18.125Z" fill="white"/>
</svg>
