<svg width="543" height="401" viewBox="0 0 543 401" fill="none" xmlns="http://www.w3.org/2000/svg">
<rect x="6.89575" y="107.525" width="466.55" height="218.225" fill="#FCB5A8"/>
<path d="M465.921 115.05H473.446V122.575H465.921V115.05Z" fill="#FC8E2E"/>
<path d="M450.871 107.525H465.921V122.575H450.871V107.525Z" fill="#FC8E2E"/>
<rect x="450.871" y="122.575" width="22.575" height="195.65" fill="#FC8E2E"/>
<rect x="14.4207" y="318.225" width="451.5" height="7.525" fill="#FC8E2E"/>
<rect x="6.89575" y="310.7" width="7.525" height="7.525" fill="#FC8E2E"/>
<rect x="6.89575" y="107.525" width="466.55" height="218.225" fill="#FCFCFC"/>
<path d="M465.921 115.05H473.446V122.575H465.921V115.05Z" fill="#93FCEE"/>
<path d="M450.871 107.525H465.921V122.575H450.871V107.525Z" fill="#93FCEE"/>
<rect x="450.871" y="122.575" width="22.575" height="195.65" fill="#93FCEE"/>
<rect x="14.4207" y="318.225" width="451.5" height="7.525" fill="#93FCEE"/>
<rect x="6.89575" y="310.7" width="7.525" height="7.525" fill="#93FCEE"/>
<rect x="6.89575" y="107.525" width="466.55" height="218.225" fill="#9FE1FC"/>
<path d="M465.921 115.05H473.446V122.575H465.921V115.05Z" fill="#32B5FC"/>
<path d="M450.871 107.525H465.921V122.575H450.871V107.525Z" fill="#32B5FC"/>
<rect x="450.871" y="122.575" width="22.575" height="195.65" fill="#32B5FC"/>
<rect x="14.4207" y="318.225" width="451.5" height="7.525" fill="#32B5FC"/>
<rect x="6.89575" y="310.7" width="7.525" height="7.525" fill="#32B5FC"/>
<rect x="6.89575" y="107.525" width="466.55" height="218.225" fill="#FFF98F"/>
<path d="M465.921 115.05H473.446V122.575H465.921V115.05Z" fill="#9F9700"/>
<path d="M450.871 107.525H465.921V122.575H450.871V107.525Z" fill="#9F9700"/>
<rect x="450.871" y="122.575" width="22.575" height="195.65" fill="#9F9700"/>
<rect x="14.4207" y="318.225" width="451.5" height="7.525" fill="#9F9700"/>
<rect x="6.89575" y="310.7" width="7.525" height="7.525" fill="#9F9700"/>
<rect x="61.0001" y="333.275" width="7.525" height="60.2" fill="black"/>
<rect x="535.075" y="333.275" width="7.525" height="60.2" fill="black"/>
<rect x="68.525" y="333.275" width="466.55" height="67.725" fill="black"/>
<path d="M467.35 175.25H542.6V333.275H467.35V175.25Z" fill="black"/>
<path d="M474.875 160.2H535.075V167.725H474.875V160.2Z" fill="black"/>
<path d="M474.875 167.725H542.6V175.25H474.875V167.725Z" fill="black"/>
<rect x="0.800049" y="115.05" width="7.525" height="203.175" fill="black"/>
<rect x="467.35" y="115.05" width="7.525" height="203.175" fill="black"/>
<rect x="15.85" y="100" width="443.975" height="7.525" fill="black"/>
<rect x="15.85" y="325.75" width="443.975" height="7.525" fill="black"/>
<path d="M467.35 100V115.05H459.825V100H467.35Z" fill="black"/>
<path d="M474.875 107.525V115.05H459.825V107.525H474.875Z" fill="black"/>
<path d="M467.35 333.275V318.225H459.825V333.275H467.35Z" fill="black"/>
<path d="M474.875 325.75V318.225H459.825V325.75H474.875Z" fill="black"/>
<path d="M0.800049 107.525H15.85V115.05H0.800049V107.525Z" fill="black"/>
<path d="M8.32505 100H15.85V115.05H8.32505V100Z" fill="black"/>
<path d="M8.32505 333.275V318.225H15.85L15.85 333.275H8.32505Z" fill="black"/>
<path d="M0.800049 325.75L0.800049 318.225H15.85L15.85 325.75H0.800049Z" fill="black"/>
<path d="M50.6165 115.05H20.5165V122.575H12.9915V152.675H20.5165V160.2H50.6165V152.675H58.1415V122.575H50.6165V115.05Z" fill="black"/>
<path d="M43.0914 122.575H28.0414V130.1H20.5164V145.15H28.0414V152.675H43.0914V145.15H50.6164V130.1H43.0914V122.575Z" fill="#93FCEE"/>
<rect x="28.0414" y="137.625" width="7.525" height="7.525" fill="black"/>
<rect x="35.5664" y="130.1" width="7.525" height="7.525" fill="black"/>
<path d="M456.966 115.05H426.866V122.575H419.341V152.675H426.866V160.2H456.966V152.675H464.491V122.575H456.966V115.05Z" fill="black"/>
<path d="M449.441 122.575H434.391V130.1H426.866V145.15H434.391V152.675H449.441V145.15H456.966V130.1H449.441V122.575Z" fill="#93FCEE"/>
<rect x="434.391" y="137.625" width="7.525" height="7.525" fill="black"/>
<rect x="441.917" y="130.1" width="7.525" height="7.525" fill="black"/>
<path d="M456.966 273.075H426.866V280.6H419.341V310.7H426.866V318.225H456.966V310.7H464.491V280.6H456.966V273.075Z" fill="black"/>
<path d="M449.441 280.6H434.391V288.125H426.866V303.175H434.391V310.7H449.441V303.175H456.966V288.125H449.441V280.6Z" fill="#93FCEE"/>
<rect x="434.391" y="295.65" width="7.525" height="7.525" fill="black"/>
<rect x="441.917" y="288.125" width="7.525" height="7.525" fill="black"/>
<path d="M50.6165 273.075H20.5165V280.6H12.9915V310.7H20.5165V318.225H50.6165V310.7H58.1415V280.6H50.6165V273.075Z" fill="black"/>
<path d="M43.0914 280.6H28.0414V288.125H20.5164V303.175H28.0414V310.7H43.0914V303.175H50.6164V288.125H43.0914V280.6Z" fill="#93FCEE"/>
<rect x="28.0414" y="295.65" width="7.525" height="7.525" fill="black"/>
<rect x="35.5664" y="288.125" width="7.525" height="7.525" fill="black"/>
<mask id="path-50-outside-1_44_592" maskUnits="userSpaceOnUse" x="95.3" y="179" width="298" height="69" fill="black">
<rect fill="white" x="95.3" y="179" width="298" height="69"/>
<path d="M110.626 196.2L130.018 185V225.96C130.018 227.069 129.74 228.264 129.186 229.544C128.674 230.824 127.991 232.019 127.138 233.128C126.327 234.195 125.431 235.005 124.45 235.56L110.626 243.56C109.132 244.413 107.831 244.52 106.722 243.88C105.612 243.24 105.058 242.067 105.058 240.36V225L110.626 221.8V237.16L124.45 229.16V188.2C124.45 189.309 124.194 190.504 123.682 191.784C123.17 193.064 122.487 194.259 121.634 195.368C120.78 196.435 119.863 197.245 118.882 197.8L110.626 202.6V196.2ZM124.45 188.2V229.16L118.882 225.96V185L124.45 188.2ZM124.45 229.16L110.626 237.16L105.058 233.96L118.882 225.96L124.45 229.16ZM130.018 185L110.626 196.2L105.058 193L124.45 181.8L130.018 185ZM110.626 196.2V202.6L105.058 199.4V193L110.626 196.2ZM110.626 221.8L105.058 225L99.4895 221.8L105.058 218.6L110.626 221.8ZM105.058 225V240.36C105.058 242.067 105.612 243.24 106.722 243.88L101.154 240.68C100.044 240.04 99.4895 238.867 99.4895 237.16V221.8L105.058 225ZM146.688 206.44L157.76 200.04C159.211 199.187 160.491 199.08 161.6 199.72C162.709 200.36 163.264 201.533 163.264 203.24V227.56C163.264 228.669 163.008 229.864 162.496 231.144C161.984 232.424 161.301 233.619 160.448 234.728C159.637 235.795 158.741 236.605 157.76 237.16L146.688 243.56C145.195 244.413 143.893 244.52 142.784 243.88C141.675 243.24 141.12 242.067 141.12 240.36V216.04C141.12 214.888 141.376 213.693 141.888 212.456C142.4 211.176 143.083 210.003 143.936 208.936C144.789 207.827 145.707 206.995 146.688 206.44ZM146.688 237.16L157.76 230.76V206.44L146.688 212.84V237.16ZM157.76 206.44V230.76L152.192 227.56V203.24L157.76 206.44ZM157.76 230.76L146.688 237.16L141.12 233.96L152.192 227.56L157.76 230.76ZM161.6 199.72C160.491 199.08 159.211 199.187 157.76 200.04L146.688 206.44C145.707 206.995 144.789 207.827 143.936 208.936C143.083 210.003 142.4 211.176 141.888 212.456C141.376 213.693 141.12 214.888 141.12 216.04V240.36C141.12 242.067 141.675 243.24 142.784 243.88L137.216 240.68C136.107 240.04 135.552 238.867 135.552 237.16V212.84C135.552 211.688 135.808 210.493 136.32 209.256C136.832 207.976 137.515 206.803 138.368 205.736C139.221 204.627 140.139 203.795 141.12 203.24L152.192 196.84C153.685 195.987 154.987 195.88 156.096 196.52L161.6 199.72ZM182.69 233V213.8L174.37 218.6V212.2L196.514 199.4V205.8L188.194 210.6V229.8L196.514 225V231.4L174.37 244.2V237.8L182.69 233ZM185.442 200.04C184.333 200.68 183.394 200.787 182.626 200.36C181.901 199.933 181.538 199.08 181.538 197.8C181.538 196.52 181.901 195.24 182.626 193.96C183.394 192.68 184.333 191.72 185.442 191.08C186.551 190.44 187.469 190.333 188.194 190.76C188.962 191.187 189.346 192.04 189.346 193.32C189.346 194.6 188.962 195.88 188.194 197.16C187.469 198.44 186.551 199.4 185.442 200.04ZM182.69 233L174.37 237.8L168.802 234.6L177.122 229.8L182.69 233ZM174.37 237.8V244.2L168.802 241V234.6L174.37 237.8ZM196.514 225L188.194 229.8L182.69 226.6L191.01 221.8L196.514 225ZM182.69 213.8V233L177.122 229.8V210.6L182.69 213.8ZM196.514 199.4L174.37 212.2L168.802 209L191.01 196.2L196.514 199.4ZM174.37 212.2V218.6L168.802 215.4V209L174.37 212.2ZM188.258 190.76C187.49 190.333 186.551 190.44 185.442 191.08C184.333 191.72 183.394 192.68 182.626 193.96C181.901 195.24 181.538 196.52 181.538 197.8C181.538 199.08 181.922 199.933 182.69 200.36L177.122 197.16C176.397 196.733 176.034 195.88 176.034 194.6C176.034 193.32 176.397 192.04 177.122 190.76C177.847 189.48 178.786 188.52 179.938 187.88C181.047 187.24 181.965 187.133 182.69 187.56L188.258 190.76ZM207.62 209.64L213.188 206.44V212.84C213.188 211.688 213.444 210.493 213.956 209.256C214.468 207.976 215.129 206.803 215.94 205.736C216.793 204.627 217.711 203.795 218.692 203.24L224.26 200.04C225.711 199.187 226.991 199.08 228.1 199.72C229.209 200.36 229.764 201.533 229.764 203.24V231.4L224.26 234.6V206.44L213.188 212.84V241L207.62 244.2V209.64ZM224.26 206.44V234.6L218.692 231.4V203.24L224.26 206.44ZM207.62 209.64V244.2L202.052 241V206.44L207.62 209.64ZM228.1 199.72C226.991 199.08 225.711 199.187 224.26 200.04L218.692 203.24C217.711 203.795 216.793 204.627 215.94 205.736C215.129 206.803 214.468 207.976 213.956 209.256C213.444 210.493 213.188 211.688 213.188 212.84L207.62 209.64C207.62 208.488 207.876 207.293 208.388 206.056C208.9 204.776 209.583 203.603 210.436 202.536C211.289 201.427 212.207 200.595 213.188 200.04L218.692 196.84C220.185 195.987 221.487 195.88 222.596 196.52L228.1 199.72ZM213.188 206.44L207.62 209.64L202.052 206.44L207.62 203.24L213.188 206.44ZM276.887 220.2L263.063 228.2V241L257.495 244.2V196.84L276.887 185.64C278.338 184.787 279.618 184.68 280.727 185.32C281.879 185.96 282.455 187.133 282.455 188.84V204.2C282.455 205.309 282.178 206.504 281.623 207.784C281.111 209.064 280.428 210.259 279.575 211.368C278.764 212.435 277.868 213.245 276.887 213.8C278.338 212.947 279.618 212.84 280.727 213.48C281.879 214.12 282.455 215.293 282.455 217V229.8L276.887 233V220.2ZM276.887 213.8V192.04L263.063 200.04V221.8L276.887 213.8ZM276.887 220.2V233L271.319 229.8V217L276.887 220.2ZM280.791 213.48C279.639 212.84 278.338 212.947 276.887 213.8L271.319 210.6C272.812 209.747 274.114 209.64 275.223 210.28L280.791 213.48ZM276.887 192.04V213.8L271.319 210.6V188.84L276.887 192.04ZM276.887 213.8L263.063 221.8L257.495 218.6L271.319 210.6L276.887 213.8ZM280.791 185.32C279.639 184.68 278.338 184.787 276.887 185.64L257.495 196.84L251.927 193.64L271.319 182.44C272.812 181.587 274.114 181.48 275.223 182.12L280.791 185.32ZM257.495 196.84V244.2L251.927 241V193.64L257.495 196.84ZM299.126 206.44L310.198 200.04C311.648 199.187 312.928 199.08 314.038 199.72C315.147 200.36 315.702 201.533 315.702 203.24V227.56C315.702 228.669 315.446 229.864 314.934 231.144C314.422 232.424 313.739 233.619 312.886 234.728C312.075 235.795 311.179 236.605 310.198 237.16L299.126 243.56C297.632 244.413 296.331 244.52 295.222 243.88C294.112 243.24 293.558 242.067 293.558 240.36V216.04C293.558 214.888 293.814 213.693 294.326 212.456C294.838 211.176 295.52 210.003 296.374 208.936C297.227 207.827 298.144 206.995 299.126 206.44ZM299.126 237.16L310.198 230.76V206.44L299.126 212.84V237.16ZM310.198 206.44V230.76L304.63 227.56V203.24L310.198 206.44ZM310.198 230.76L299.126 237.16L293.558 233.96L304.63 227.56L310.198 230.76ZM314.038 199.72C312.928 199.08 311.648 199.187 310.198 200.04L299.126 206.44C298.144 206.995 297.227 207.827 296.374 208.936C295.52 210.003 294.838 211.176 294.326 212.456C293.814 213.693 293.558 214.888 293.558 216.04V240.36C293.558 242.067 294.112 243.24 295.222 243.88L289.654 240.68C288.544 240.04 287.99 238.867 287.99 237.16V212.84C287.99 211.688 288.246 210.493 288.758 209.256C289.27 207.976 289.952 206.803 290.806 205.736C291.659 204.627 292.576 203.795 293.558 203.24L304.63 196.84C306.123 195.987 307.424 195.88 308.534 196.52L314.038 199.72ZM332.376 206.44L343.448 200.04C344.898 199.187 346.178 199.08 347.288 199.72C348.397 200.36 348.952 201.533 348.952 203.24V227.56C348.952 228.669 348.696 229.864 348.184 231.144C347.672 232.424 346.989 233.619 346.136 234.728C345.325 235.795 344.429 236.605 343.448 237.16L332.376 243.56C330.882 244.413 329.581 244.52 328.472 243.88C327.362 243.24 326.808 242.067 326.808 240.36V216.04C326.808 214.888 327.064 213.693 327.576 212.456C328.088 211.176 328.77 210.003 329.624 208.936C330.477 207.827 331.394 206.995 332.376 206.44ZM332.376 237.16L343.448 230.76V206.44L332.376 212.84V237.16ZM343.448 206.44V230.76L337.88 227.56V203.24L343.448 206.44ZM343.448 230.76L332.376 237.16L326.808 233.96L337.88 227.56L343.448 230.76ZM347.288 199.72C346.178 199.08 344.898 199.187 343.448 200.04L332.376 206.44C331.394 206.995 330.477 207.827 329.624 208.936C328.77 210.003 328.088 211.176 327.576 212.456C327.064 213.693 326.808 214.888 326.808 216.04V240.36C326.808 242.067 327.362 243.24 328.472 243.88L322.904 240.68C321.794 240.04 321.24 238.867 321.24 237.16V212.84C321.24 211.688 321.496 210.493 322.008 209.256C322.52 207.976 323.202 206.803 324.056 205.736C324.909 204.627 325.826 203.795 326.808 203.24L337.88 196.84C339.373 195.987 340.674 195.88 341.784 196.52L347.288 199.72ZM360.058 209.64L365.626 206.44V212.84C365.626 211.688 365.882 210.493 366.394 209.256C366.906 207.976 367.567 206.803 368.378 205.736C369.231 204.627 370.148 203.795 371.13 203.24L372.794 202.28C374.287 201.427 375.588 201.32 376.698 201.96C377.807 202.6 378.362 203.773 378.362 205.48C378.362 204.328 378.618 203.133 379.13 201.896C379.642 200.616 380.303 199.443 381.114 198.376C381.967 197.267 382.884 196.435 383.866 195.88L385.53 194.92C387.023 194.067 388.324 193.96 389.434 194.6C390.543 195.24 391.098 196.413 391.098 198.12V226.28L385.53 229.48V201.32L378.362 205.48V233.64L372.794 236.84V208.68L365.626 212.84V241L360.058 244.2V209.64ZM385.53 201.32V229.48L380.026 226.28V198.12L385.53 201.32ZM372.794 208.68V236.84L367.226 233.64V205.48L372.794 208.68ZM389.434 194.6C388.324 193.96 387.023 194.067 385.53 194.92L383.866 195.88C382.884 196.435 381.967 197.267 381.114 198.376C380.303 199.443 379.642 200.616 379.13 201.896C378.618 203.133 378.362 204.328 378.362 205.48L372.794 202.28C372.794 201.128 373.05 199.933 373.562 198.696C374.074 197.416 374.756 196.243 375.61 195.176C376.463 194.067 377.38 193.235 378.362 192.68L380.026 191.72C381.476 190.867 382.756 190.76 383.866 191.4L389.434 194.6ZM360.058 209.64V244.2L354.49 241V206.44L360.058 209.64ZM376.698 201.96C375.588 201.32 374.287 201.427 372.794 202.28L371.13 203.24C370.148 203.795 369.231 204.627 368.378 205.736C367.567 206.803 366.906 207.976 366.394 209.256C365.882 210.493 365.626 211.688 365.626 212.84L360.058 209.64C360.058 208.488 360.314 207.293 360.826 206.056C361.338 204.776 362.02 203.603 362.874 202.536C363.727 201.427 364.644 200.595 365.626 200.04L367.226 199.08C368.719 198.227 370.02 198.12 371.13 198.76L376.698 201.96ZM365.626 206.44L360.058 209.64L354.49 206.44L360.058 203.24L365.626 206.44Z"/>
</mask>
<path d="M110.626 196.2L130.018 185V225.96C130.018 227.069 129.74 228.264 129.186 229.544C128.674 230.824 127.991 232.019 127.138 233.128C126.327 234.195 125.431 235.005 124.45 235.56L110.626 243.56C109.132 244.413 107.831 244.52 106.722 243.88C105.612 243.24 105.058 242.067 105.058 240.36V225L110.626 221.8V237.16L124.45 229.16V188.2C124.45 189.309 124.194 190.504 123.682 191.784C123.17 193.064 122.487 194.259 121.634 195.368C120.78 196.435 119.863 197.245 118.882 197.8L110.626 202.6V196.2ZM124.45 188.2V229.16L118.882 225.96V185L124.45 188.2ZM124.45 229.16L110.626 237.16L105.058 233.96L118.882 225.96L124.45 229.16ZM130.018 185L110.626 196.2L105.058 193L124.45 181.8L130.018 185ZM110.626 196.2V202.6L105.058 199.4V193L110.626 196.2ZM110.626 221.8L105.058 225L99.4895 221.8L105.058 218.6L110.626 221.8ZM105.058 225V240.36C105.058 242.067 105.612 243.24 106.722 243.88L101.154 240.68C100.044 240.04 99.4895 238.867 99.4895 237.16V221.8L105.058 225ZM146.688 206.44L157.76 200.04C159.211 199.187 160.491 199.08 161.6 199.72C162.709 200.36 163.264 201.533 163.264 203.24V227.56C163.264 228.669 163.008 229.864 162.496 231.144C161.984 232.424 161.301 233.619 160.448 234.728C159.637 235.795 158.741 236.605 157.76 237.16L146.688 243.56C145.195 244.413 143.893 244.52 142.784 243.88C141.675 243.24 141.12 242.067 141.12 240.36V216.04C141.12 214.888 141.376 213.693 141.888 212.456C142.4 211.176 143.083 210.003 143.936 208.936C144.789 207.827 145.707 206.995 146.688 206.44ZM146.688 237.16L157.76 230.76V206.44L146.688 212.84V237.16ZM157.76 206.44V230.76L152.192 227.56V203.24L157.76 206.44ZM157.76 230.76L146.688 237.16L141.12 233.96L152.192 227.56L157.76 230.76ZM161.6 199.72C160.491 199.08 159.211 199.187 157.76 200.04L146.688 206.44C145.707 206.995 144.789 207.827 143.936 208.936C143.083 210.003 142.4 211.176 141.888 212.456C141.376 213.693 141.12 214.888 141.12 216.04V240.36C141.12 242.067 141.675 243.24 142.784 243.88L137.216 240.68C136.107 240.04 135.552 238.867 135.552 237.16V212.84C135.552 211.688 135.808 210.493 136.32 209.256C136.832 207.976 137.515 206.803 138.368 205.736C139.221 204.627 140.139 203.795 141.12 203.24L152.192 196.84C153.685 195.987 154.987 195.88 156.096 196.52L161.6 199.72ZM182.69 233V213.8L174.37 218.6V212.2L196.514 199.4V205.8L188.194 210.6V229.8L196.514 225V231.4L174.37 244.2V237.8L182.69 233ZM185.442 200.04C184.333 200.68 183.394 200.787 182.626 200.36C181.901 199.933 181.538 199.08 181.538 197.8C181.538 196.52 181.901 195.24 182.626 193.96C183.394 192.68 184.333 191.72 185.442 191.08C186.551 190.44 187.469 190.333 188.194 190.76C188.962 191.187 189.346 192.04 189.346 193.32C189.346 194.6 188.962 195.88 188.194 197.16C187.469 198.44 186.551 199.4 185.442 200.04ZM182.69 233L174.37 237.8L168.802 234.6L177.122 229.8L182.69 233ZM174.37 237.8V244.2L168.802 241V234.6L174.37 237.8ZM196.514 225L188.194 229.8L182.69 226.6L191.01 221.8L196.514 225ZM182.69 213.8V233L177.122 229.8V210.6L182.69 213.8ZM196.514 199.4L174.37 212.2L168.802 209L191.01 196.2L196.514 199.4ZM174.37 212.2V218.6L168.802 215.4V209L174.37 212.2ZM188.258 190.76C187.49 190.333 186.551 190.44 185.442 191.08C184.333 191.72 183.394 192.68 182.626 193.96C181.901 195.24 181.538 196.52 181.538 197.8C181.538 199.08 181.922 199.933 182.69 200.36L177.122 197.16C176.397 196.733 176.034 195.88 176.034 194.6C176.034 193.32 176.397 192.04 177.122 190.76C177.847 189.48 178.786 188.52 179.938 187.88C181.047 187.24 181.965 187.133 182.69 187.56L188.258 190.76ZM207.62 209.64L213.188 206.44V212.84C213.188 211.688 213.444 210.493 213.956 209.256C214.468 207.976 215.129 206.803 215.94 205.736C216.793 204.627 217.711 203.795 218.692 203.24L224.26 200.04C225.711 199.187 226.991 199.08 228.1 199.72C229.209 200.36 229.764 201.533 229.764 203.24V231.4L224.26 234.6V206.44L213.188 212.84V241L207.62 244.2V209.64ZM224.26 206.44V234.6L218.692 231.4V203.24L224.26 206.44ZM207.62 209.64V244.2L202.052 241V206.44L207.62 209.64ZM228.1 199.72C226.991 199.08 225.711 199.187 224.26 200.04L218.692 203.24C217.711 203.795 216.793 204.627 215.94 205.736C215.129 206.803 214.468 207.976 213.956 209.256C213.444 210.493 213.188 211.688 213.188 212.84L207.62 209.64C207.62 208.488 207.876 207.293 208.388 206.056C208.9 204.776 209.583 203.603 210.436 202.536C211.289 201.427 212.207 200.595 213.188 200.04L218.692 196.84C220.185 195.987 221.487 195.88 222.596 196.52L228.1 199.72ZM213.188 206.44L207.62 209.64L202.052 206.44L207.62 203.24L213.188 206.44ZM276.887 220.2L263.063 228.2V241L257.495 244.2V196.84L276.887 185.64C278.338 184.787 279.618 184.68 280.727 185.32C281.879 185.96 282.455 187.133 282.455 188.84V204.2C282.455 205.309 282.178 206.504 281.623 207.784C281.111 209.064 280.428 210.259 279.575 211.368C278.764 212.435 277.868 213.245 276.887 213.8C278.338 212.947 279.618 212.84 280.727 213.48C281.879 214.12 282.455 215.293 282.455 217V229.8L276.887 233V220.2ZM276.887 213.8V192.04L263.063 200.04V221.8L276.887 213.8ZM276.887 220.2V233L271.319 229.8V217L276.887 220.2ZM280.791 213.48C279.639 212.84 278.338 212.947 276.887 213.8L271.319 210.6C272.812 209.747 274.114 209.64 275.223 210.28L280.791 213.48ZM276.887 192.04V213.8L271.319 210.6V188.84L276.887 192.04ZM276.887 213.8L263.063 221.8L257.495 218.6L271.319 210.6L276.887 213.8ZM280.791 185.32C279.639 184.68 278.338 184.787 276.887 185.64L257.495 196.84L251.927 193.64L271.319 182.44C272.812 181.587 274.114 181.48 275.223 182.12L280.791 185.32ZM257.495 196.84V244.2L251.927 241V193.64L257.495 196.84ZM299.126 206.44L310.198 200.04C311.648 199.187 312.928 199.08 314.038 199.72C315.147 200.36 315.702 201.533 315.702 203.24V227.56C315.702 228.669 315.446 229.864 314.934 231.144C314.422 232.424 313.739 233.619 312.886 234.728C312.075 235.795 311.179 236.605 310.198 237.16L299.126 243.56C297.632 244.413 296.331 244.52 295.222 243.88C294.112 243.24 293.558 242.067 293.558 240.36V216.04C293.558 214.888 293.814 213.693 294.326 212.456C294.838 211.176 295.52 210.003 296.374 208.936C297.227 207.827 298.144 206.995 299.126 206.44ZM299.126 237.16L310.198 230.76V206.44L299.126 212.84V237.16ZM310.198 206.44V230.76L304.63 227.56V203.24L310.198 206.44ZM310.198 230.76L299.126 237.16L293.558 233.96L304.63 227.56L310.198 230.76ZM314.038 199.72C312.928 199.08 311.648 199.187 310.198 200.04L299.126 206.44C298.144 206.995 297.227 207.827 296.374 208.936C295.52 210.003 294.838 211.176 294.326 212.456C293.814 213.693 293.558 214.888 293.558 216.04V240.36C293.558 242.067 294.112 243.24 295.222 243.88L289.654 240.68C288.544 240.04 287.99 238.867 287.99 237.16V212.84C287.99 211.688 288.246 210.493 288.758 209.256C289.27 207.976 289.952 206.803 290.806 205.736C291.659 204.627 292.576 203.795 293.558 203.24L304.63 196.84C306.123 195.987 307.424 195.88 308.534 196.52L314.038 199.72ZM332.376 206.44L343.448 200.04C344.898 199.187 346.178 199.08 347.288 199.72C348.397 200.36 348.952 201.533 348.952 203.24V227.56C348.952 228.669 348.696 229.864 348.184 231.144C347.672 232.424 346.989 233.619 346.136 234.728C345.325 235.795 344.429 236.605 343.448 237.16L332.376 243.56C330.882 244.413 329.581 244.52 328.472 243.88C327.362 243.24 326.808 242.067 326.808 240.36V216.04C326.808 214.888 327.064 213.693 327.576 212.456C328.088 211.176 328.77 210.003 329.624 208.936C330.477 207.827 331.394 206.995 332.376 206.44ZM332.376 237.16L343.448 230.76V206.44L332.376 212.84V237.16ZM343.448 206.44V230.76L337.88 227.56V203.24L343.448 206.44ZM343.448 230.76L332.376 237.16L326.808 233.96L337.88 227.56L343.448 230.76ZM347.288 199.72C346.178 199.08 344.898 199.187 343.448 200.04L332.376 206.44C331.394 206.995 330.477 207.827 329.624 208.936C328.77 210.003 328.088 211.176 327.576 212.456C327.064 213.693 326.808 214.888 326.808 216.04V240.36C326.808 242.067 327.362 243.24 328.472 243.88L322.904 240.68C321.794 240.04 321.24 238.867 321.24 237.16V212.84C321.24 211.688 321.496 210.493 322.008 209.256C322.52 207.976 323.202 206.803 324.056 205.736C324.909 204.627 325.826 203.795 326.808 203.24L337.88 196.84C339.373 195.987 340.674 195.88 341.784 196.52L347.288 199.72ZM360.058 209.64L365.626 206.44V212.84C365.626 211.688 365.882 210.493 366.394 209.256C366.906 207.976 367.567 206.803 368.378 205.736C369.231 204.627 370.148 203.795 371.13 203.24L372.794 202.28C374.287 201.427 375.588 201.32 376.698 201.96C377.807 202.6 378.362 203.773 378.362 205.48C378.362 204.328 378.618 203.133 379.13 201.896C379.642 200.616 380.303 199.443 381.114 198.376C381.967 197.267 382.884 196.435 383.866 195.88L385.53 194.92C387.023 194.067 388.324 193.96 389.434 194.6C390.543 195.24 391.098 196.413 391.098 198.12V226.28L385.53 229.48V201.32L378.362 205.48V233.64L372.794 236.84V208.68L365.626 212.84V241L360.058 244.2V209.64ZM385.53 201.32V229.48L380.026 226.28V198.12L385.53 201.32ZM372.794 208.68V236.84L367.226 233.64V205.48L372.794 208.68ZM389.434 194.6C388.324 193.96 387.023 194.067 385.53 194.92L383.866 195.88C382.884 196.435 381.967 197.267 381.114 198.376C380.303 199.443 379.642 200.616 379.13 201.896C378.618 203.133 378.362 204.328 378.362 205.48L372.794 202.28C372.794 201.128 373.05 199.933 373.562 198.696C374.074 197.416 374.756 196.243 375.61 195.176C376.463 194.067 377.38 193.235 378.362 192.68L380.026 191.72C381.476 190.867 382.756 190.76 383.866 191.4L389.434 194.6ZM360.058 209.64V244.2L354.49 241V206.44L360.058 209.64ZM376.698 201.96C375.588 201.32 374.287 201.427 372.794 202.28L371.13 203.24C370.148 203.795 369.231 204.627 368.378 205.736C367.567 206.803 366.906 207.976 366.394 209.256C365.882 210.493 365.626 211.688 365.626 212.84L360.058 209.64C360.058 208.488 360.314 207.293 360.826 206.056C361.338 204.776 362.02 203.603 362.874 202.536C363.727 201.427 364.644 200.595 365.626 200.04L367.226 199.08C368.719 198.227 370.02 198.12 371.13 198.76L376.698 201.96ZM365.626 206.44L360.058 209.64L354.49 206.44L360.058 203.24L365.626 206.44Z" fill="white"/>
<path d="M110.626 196.2L109.625 194.468L108.626 195.046V196.2H110.626ZM130.018 185H132.018V181.535L129.017 183.268L130.018 185ZM129.186 229.544L127.35 228.749L127.339 228.775L127.329 228.801L129.186 229.544ZM127.138 233.128L125.552 231.909L125.545 231.918L127.138 233.128ZM124.45 235.56L123.465 233.819L123.457 233.824L123.448 233.829L124.45 235.56ZM110.626 243.56L111.618 245.297L111.627 245.291L110.626 243.56ZM106.722 243.88L105.722 245.612L106.722 243.88ZM105.058 225L104.061 223.266L103.058 223.843V225H105.058ZM110.626 221.8H112.626V218.344L109.629 220.066L110.626 221.8ZM110.626 237.16H108.626V240.628L111.627 238.891L110.626 237.16ZM124.45 229.16L125.451 230.891L126.45 230.313V229.16H124.45ZM123.682 191.784L125.539 192.527L123.682 191.784ZM121.634 195.368L123.195 196.617L123.207 196.603L123.219 196.587L121.634 195.368ZM118.882 197.8L117.897 196.059L117.887 196.065L117.876 196.071L118.882 197.8ZM110.626 202.6H108.626V206.076L111.631 204.329L110.626 202.6ZM124.45 188.2H126.45V187.043L125.446 186.466L124.45 188.2ZM124.45 229.16L123.453 230.894L126.45 232.616V229.16H124.45ZM118.882 225.96H116.882V227.117L117.885 227.694L118.882 225.96ZM118.882 185L119.878 183.266L116.882 181.544V185H118.882ZM124.45 229.16L125.451 230.891L128.453 229.154L125.446 227.426L124.45 229.16ZM110.626 237.16L109.629 238.894L110.629 239.469L111.627 238.891L110.626 237.16ZM105.058 233.96L104.056 232.229L101.054 233.966L104.061 235.694L105.058 233.96ZM118.882 225.96L119.878 224.226L118.878 223.651L117.88 224.229L118.882 225.96ZM130.018 185L131.018 186.732L134.024 184.996L131.014 183.266L130.018 185ZM110.626 196.2L109.629 197.934L110.628 198.508L111.626 197.932L110.626 196.2ZM105.058 193L104.057 191.268L101.051 193.004L104.061 194.734L105.058 193ZM124.45 181.8L125.446 180.066L124.447 179.492L123.449 180.068L124.45 181.8ZM110.626 196.2H112.626V195.043L111.622 194.466L110.626 196.2ZM110.626 202.6L109.629 204.334L112.626 206.056V202.6H110.626ZM105.058 199.4H103.058V200.557L104.061 201.134L105.058 199.4ZM105.058 193L106.054 191.266L103.058 189.544V193H105.058ZM110.626 221.8L111.622 223.534L114.639 221.8L111.622 220.066L110.626 221.8ZM105.058 225L104.061 226.734L105.058 227.307L106.054 226.734L105.058 225ZM99.4895 221.8L98.493 220.066L95.4758 221.8L98.493 223.534L99.4895 221.8ZM105.058 218.6L106.054 216.866L105.058 216.293L104.061 216.866L105.058 218.6ZM105.058 225H107.058V223.843L106.054 223.266L105.058 225ZM106.722 243.88L105.725 245.614L107.721 242.148L106.722 243.88ZM101.154 240.68L100.154 242.412L100.157 242.414L101.154 240.68ZM99.4895 221.8L100.486 220.066L97.4895 218.344V221.8H99.4895ZM111.626 197.932L131.018 186.732L129.017 183.268L109.625 194.468L111.626 197.932ZM128.018 185V225.96H132.018V185H128.018ZM128.018 225.96C128.018 226.735 127.823 227.657 127.35 228.749L131.021 230.339C131.657 228.871 132.018 227.404 132.018 225.96H128.018ZM127.329 228.801C126.886 229.908 126.295 230.943 125.552 231.909L128.723 234.347C129.686 233.095 130.461 231.74 131.043 230.287L127.329 228.801ZM125.545 231.918C124.869 232.808 124.17 233.421 123.465 233.819L125.434 237.301C126.692 236.59 127.785 235.581 128.73 234.338L125.545 231.918ZM123.448 233.829L109.624 241.829L111.627 245.291L125.451 237.291L123.448 233.829ZM109.633 241.824C108.517 242.461 108.008 242.313 107.721 242.148L105.722 245.612C107.654 246.727 109.747 246.366 111.618 245.296L109.633 241.824ZM107.721 242.148C107.434 241.982 107.058 241.623 107.058 240.36H103.058C103.058 242.511 103.79 244.498 105.722 245.612L107.721 242.148ZM107.058 240.36V225H103.058V240.36H107.058ZM106.054 226.734L111.622 223.534L109.629 220.066L104.061 223.266L106.054 226.734ZM108.626 221.8V237.16H112.626V221.8H108.626ZM111.627 238.891L125.451 230.891L123.448 227.429L109.624 235.429L111.627 238.891ZM126.45 229.16V188.2H122.45V229.16H126.45ZM122.45 188.2C122.45 189.001 122.264 189.942 121.825 191.041L125.539 192.527C126.123 191.066 126.45 189.617 126.45 188.2H122.45ZM121.825 191.041C121.382 192.148 120.791 193.183 120.048 194.149L123.219 196.587C124.182 195.335 124.957 193.98 125.539 192.527L121.825 191.041ZM120.072 194.119C119.345 195.027 118.615 195.653 117.897 196.059L119.866 199.541C121.111 198.837 122.215 197.842 123.195 196.617L120.072 194.119ZM117.876 196.071L109.62 200.871L111.631 204.329L119.887 199.529L117.876 196.071ZM112.626 202.6V196.2H108.626V202.6H112.626ZM122.45 188.2V229.16H126.45V188.2H122.45ZM125.446 227.426L119.878 224.226L117.885 227.694L123.453 230.894L125.446 227.426ZM120.882 225.96V185H116.882V225.96H120.882ZM117.885 186.734L123.453 189.934L125.446 186.466L119.878 183.266L117.885 186.734ZM123.448 227.429L109.624 235.429L111.627 238.891L125.451 230.891L123.448 227.429ZM111.622 235.426L106.054 232.226L104.061 235.694L109.629 238.894L111.622 235.426ZM106.059 235.691L119.883 227.691L117.88 224.229L104.056 232.229L106.059 235.691ZM117.885 227.694L123.453 230.894L125.446 227.426L119.878 224.226L117.885 227.694ZM129.017 183.268L109.625 194.468L111.626 197.932L131.018 186.732L129.017 183.268ZM111.622 194.466L106.054 191.266L104.061 194.734L109.629 197.934L111.622 194.466ZM106.058 194.732L125.45 183.532L123.449 180.068L104.057 191.268L106.058 194.732ZM123.453 183.534L129.021 186.734L131.014 183.266L125.446 180.066L123.453 183.534ZM108.626 196.2V202.6H112.626V196.2H108.626ZM111.622 200.866L106.054 197.666L104.061 201.134L109.629 204.334L111.622 200.866ZM107.058 199.4V193H103.058V199.4H107.058ZM104.061 194.734L109.629 197.934L111.622 194.466L106.054 191.266L104.061 194.734ZM109.629 220.066L104.061 223.266L106.054 226.734L111.622 223.534L109.629 220.066ZM106.054 223.266L100.486 220.066L98.493 223.534L104.061 226.734L106.054 223.266ZM100.486 223.534L106.054 220.334L104.061 216.866L98.493 220.066L100.486 223.534ZM104.061 220.334L109.629 223.534L111.622 220.066L106.054 216.866L104.061 220.334ZM103.058 225V240.36H107.058V225H103.058ZM103.058 240.36C103.058 242.511 103.79 244.498 105.722 245.612L107.721 242.148C107.434 241.982 107.058 241.623 107.058 240.36H103.058ZM107.718 242.146L102.15 238.946L100.157 242.414L105.725 245.614L107.718 242.146ZM102.153 238.948C101.866 238.782 101.49 238.423 101.49 237.16H97.4895C97.4895 239.311 98.2223 241.298 100.154 242.412L102.153 238.948ZM101.49 237.16V221.8H97.4895V237.16H101.49ZM98.493 223.534L104.061 226.734L106.054 223.266L100.486 220.066L98.493 223.534ZM146.688 206.44L147.672 208.181L147.681 208.176L147.689 208.172L146.688 206.44ZM157.76 200.04L158.761 201.772L158.768 201.768L158.774 201.764L157.76 200.04ZM162.496 231.144L160.639 230.401L162.496 231.144ZM160.448 234.728L158.863 233.509L158.856 233.518L160.448 234.728ZM157.76 237.16L156.776 235.419L156.768 235.424L156.759 235.428L157.76 237.16ZM146.688 243.56L147.68 245.297L147.689 245.292L146.688 243.56ZM142.784 243.88L141.785 245.612L142.784 243.88ZM141.888 212.456L143.736 213.221L143.741 213.21L143.745 213.199L141.888 212.456ZM143.936 208.936L145.498 210.185L145.51 210.171L145.521 210.155L143.936 208.936ZM146.688 237.16H144.688V240.626L147.689 238.892L146.688 237.16ZM157.76 230.76L158.761 232.492L159.76 231.914V230.76H157.76ZM157.76 206.44H159.76V202.974L156.759 204.708L157.76 206.44ZM146.688 212.84L145.687 211.108L144.688 211.686V212.84H146.688ZM157.76 206.44H159.76V205.283L158.757 204.706L157.76 206.44ZM157.76 230.76L156.763 232.494L159.76 234.216V230.76H157.76ZM152.192 227.56H150.192V228.717L151.195 229.294L152.192 227.56ZM152.192 203.24L153.189 201.506L150.192 199.784V203.24H152.192ZM157.76 230.76L158.761 232.492L161.765 230.755L158.757 229.026L157.76 230.76ZM146.688 237.16L145.691 238.894L146.691 239.468L147.689 238.892L146.688 237.16ZM141.12 233.96L140.119 232.228L137.115 233.965L140.123 235.694L141.12 233.96ZM152.192 227.56L153.189 225.826L152.189 225.252L151.191 225.828L152.192 227.56ZM161.6 199.72L160.601 201.452L162.605 197.991L161.6 199.72ZM157.76 200.04L158.761 201.772L158.768 201.768L158.774 201.764L157.76 200.04ZM146.688 206.44L147.672 208.181L147.681 208.176L147.689 208.172L146.688 206.44ZM143.936 208.936L145.498 210.185L145.51 210.171L145.521 210.155L143.936 208.936ZM141.888 212.456L143.736 213.221L143.741 213.21L143.745 213.199L141.888 212.456ZM142.784 243.88L141.787 245.614L143.783 242.148L142.784 243.88ZM137.216 240.68L136.217 242.412L136.219 242.414L137.216 240.68ZM136.32 209.256L138.168 210.021L138.173 210.01L138.177 209.999L136.32 209.256ZM138.368 205.736L139.93 206.985L139.942 206.971L139.953 206.955L138.368 205.736ZM141.12 203.24L142.104 204.981L142.113 204.976L142.121 204.972L141.12 203.24ZM152.192 196.84L151.2 195.103L151.191 195.108L152.192 196.84ZM156.096 196.52L157.101 194.791L157.095 194.788L156.096 196.52ZM147.689 208.172L158.761 201.772L156.759 198.308L145.687 204.708L147.689 208.172ZM158.774 201.764C159.828 201.144 160.311 201.286 160.601 201.452L162.599 197.988C160.67 196.874 158.593 197.229 156.746 198.316L158.774 201.764ZM160.601 201.452C160.887 201.618 161.264 201.977 161.264 203.24H165.264C165.264 201.089 164.531 199.102 162.599 197.988L160.601 201.452ZM161.264 203.24V227.56H165.264V203.24H161.264ZM161.264 227.56C161.264 228.361 161.079 229.302 160.639 230.401L164.353 231.887C164.937 230.426 165.264 228.977 165.264 227.56H161.264ZM160.639 230.401C160.196 231.508 159.606 232.543 158.863 233.509L162.033 235.947C162.997 234.695 163.772 233.34 164.353 231.887L160.639 230.401ZM158.856 233.518C158.179 234.408 157.48 235.021 156.776 235.419L158.744 238.901C160.002 238.19 161.096 237.181 162.04 235.938L158.856 233.518ZM156.759 235.428L145.687 241.828L147.689 245.292L158.761 238.892L156.759 235.428ZM145.696 241.824C144.58 242.461 144.07 242.313 143.783 242.148L141.785 245.612C143.717 246.727 145.81 246.366 147.68 245.296L145.696 241.824ZM143.783 242.148C143.497 241.982 143.12 241.623 143.12 240.36H139.12C139.12 242.511 139.853 244.498 141.785 245.612L143.783 242.148ZM143.12 240.36V216.04H139.12V240.36H143.12ZM143.12 216.04C143.12 215.189 143.308 214.254 143.736 213.221L140.04 211.691C139.444 213.132 139.12 214.587 139.12 216.04H143.12ZM143.745 213.199C144.185 212.1 144.768 211.097 145.498 210.185L142.374 207.687C141.397 208.908 140.615 210.252 140.031 211.713L143.745 213.199ZM145.521 210.155C146.249 209.209 146.973 208.576 147.672 208.181L145.704 204.699C144.44 205.413 143.329 206.445 142.351 207.717L145.521 210.155ZM147.689 238.892L158.761 232.492L156.759 229.028L145.687 235.428L147.689 238.892ZM159.76 230.76V206.44H155.76V230.76H159.76ZM156.759 204.708L145.687 211.108L147.689 214.572L158.761 208.172L156.759 204.708ZM144.688 212.84V237.16H148.688V212.84H144.688ZM155.76 206.44V230.76H159.76V206.44H155.76ZM158.757 229.026L153.189 225.826L151.195 229.294L156.763 232.494L158.757 229.026ZM154.192 227.56V203.24H150.192V227.56H154.192ZM151.195 204.974L156.763 208.174L158.757 204.706L153.189 201.506L151.195 204.974ZM156.759 229.028L145.687 235.428L147.689 238.892L158.761 232.492L156.759 229.028ZM147.685 235.426L142.117 232.226L140.123 235.694L145.691 238.894L147.685 235.426ZM142.121 235.692L153.193 229.292L151.191 225.828L140.119 232.228L142.121 235.692ZM151.195 229.294L156.763 232.494L158.757 229.026L153.189 225.826L151.195 229.294ZM162.599 197.988C160.67 196.874 158.593 197.229 156.746 198.316L158.774 201.764C159.828 201.144 160.311 201.286 160.601 201.452L162.599 197.988ZM156.759 198.308L145.687 204.708L147.689 208.172L158.761 201.772L156.759 198.308ZM145.704 204.699C144.44 205.413 143.329 206.445 142.351 207.717L145.521 210.155C146.249 209.209 146.973 208.576 147.672 208.181L145.704 204.699ZM142.374 207.687C141.397 208.908 140.615 210.252 140.031 211.713L143.745 213.199C144.185 212.1 144.768 211.097 145.498 210.185L142.374 207.687ZM140.04 211.691C139.444 213.132 139.12 214.587 139.12 216.04H143.12C143.12 215.189 143.308 214.254 143.736 213.221L140.04 211.691ZM139.12 216.04V240.36H143.12V216.04H139.12ZM139.12 240.36C139.12 242.511 139.853 244.498 141.785 245.612L143.783 242.148C143.497 241.982 143.12 241.623 143.12 240.36H139.12ZM143.781 242.146L138.213 238.946L136.219 242.414L141.787 245.614L143.781 242.146ZM138.215 238.948C137.929 238.782 137.552 238.423 137.552 237.16H133.552C133.552 239.311 134.285 241.298 136.217 242.412L138.215 238.948ZM137.552 237.16V212.84H133.552V237.16H137.552ZM137.552 212.84C137.552 211.989 137.74 211.054 138.168 210.021L134.472 208.491C133.876 209.932 133.552 211.387 133.552 212.84H137.552ZM138.177 209.999C138.617 208.9 139.2 207.897 139.93 206.985L136.806 204.487C135.829 205.708 135.047 207.052 134.463 208.513L138.177 209.999ZM139.953 206.955C140.681 206.009 141.405 205.376 142.104 204.981L140.136 201.499C138.872 202.213 137.761 203.245 136.783 204.517L139.953 206.955ZM142.121 204.972L153.193 198.572L151.191 195.108L140.119 201.508L142.121 204.972ZM153.184 198.576C154.3 197.939 154.81 198.087 155.097 198.252L157.095 194.788C155.163 193.673 153.071 194.034 151.2 195.104L153.184 198.576ZM155.091 198.249L160.595 201.449L162.605 197.991L157.101 194.791L155.091 198.249ZM182.69 233L183.689 234.732L184.69 234.155V233H182.69ZM182.69 213.8H184.69V210.337L181.691 212.068L182.69 213.8ZM174.37 218.6H172.37V222.063L175.369 220.332L174.37 218.6ZM174.37 212.2L173.369 210.468L172.37 211.046V212.2H174.37ZM196.514 199.4H198.514V195.934L195.513 197.668L196.514 199.4ZM196.514 205.8L197.513 207.532L198.514 206.955V205.8H196.514ZM188.194 210.6L187.195 208.868L186.194 209.445V210.6H188.194ZM188.194 229.8H186.194V233.263L189.193 231.532L188.194 229.8ZM196.514 225H198.514V221.537L195.515 223.268L196.514 225ZM196.514 231.4L197.515 233.132L198.514 232.554V231.4H196.514ZM174.37 244.2H172.37V247.666L175.371 245.932L174.37 244.2ZM174.37 237.8L173.371 236.068L172.37 236.645V237.8H174.37ZM185.442 200.04L184.443 198.308V198.308L185.442 200.04ZM182.626 200.36L181.612 202.084L181.633 202.096L181.655 202.108L182.626 200.36ZM182.626 193.96L180.911 192.931L180.898 192.952L180.886 192.974L182.626 193.96ZM185.442 191.08L184.443 189.348L185.442 191.08ZM188.194 190.76L187.18 192.484L187.201 192.496L187.223 192.508L188.194 190.76ZM188.194 197.16L186.479 196.131L186.466 196.152L186.454 196.174L188.194 197.16ZM182.69 233L183.689 234.732L186.698 232.997L183.687 231.266L182.69 233ZM174.37 237.8L173.373 239.534L174.372 240.108L175.369 239.532L174.37 237.8ZM168.802 234.6L167.803 232.868L164.794 234.603L167.805 236.334L168.802 234.6ZM177.122 229.8L178.119 228.066L177.12 227.492L176.123 228.068L177.122 229.8ZM174.37 237.8H176.37V236.643L175.367 236.066L174.37 237.8ZM174.37 244.2L173.373 245.934L176.37 247.656V244.2H174.37ZM168.802 241H166.802V242.157L167.805 242.734L168.802 241ZM168.802 234.6L169.799 232.866L166.802 231.144V234.6H168.802ZM196.514 225L197.513 226.732L200.505 225.007L197.519 223.271L196.514 225ZM188.194 229.8L187.189 231.529L188.19 232.111L189.193 231.532L188.194 229.8ZM182.69 226.6L181.691 224.868L178.699 226.593L181.685 228.329L182.69 226.6ZM191.01 221.8L192.015 220.071L191.014 219.489L190.011 220.068L191.01 221.8ZM182.69 213.8H184.69V212.643L183.687 212.066L182.69 213.8ZM182.69 233L181.693 234.734L184.69 236.456V233H182.69ZM177.122 229.8H175.122V230.957L176.125 231.534L177.122 229.8ZM177.122 210.6L178.119 208.866L175.122 207.144V210.6H177.122ZM196.514 199.4L197.515 201.132L200.502 199.405L197.519 197.671L196.514 199.4ZM174.37 212.2L173.373 213.934L174.373 214.508L175.371 213.932L174.37 212.2ZM168.802 209L167.803 207.267L164.793 209.002L167.805 210.734L168.802 209ZM191.01 196.2L192.015 194.471L191.014 193.889L190.011 194.467L191.01 196.2ZM174.37 212.2H176.37V211.043L175.367 210.466L174.37 212.2ZM174.37 218.6L173.373 220.334L176.37 222.056V218.6H174.37ZM168.802 215.4H166.802V216.557L167.805 217.134L168.802 215.4ZM168.802 209L169.799 207.266L166.802 205.544V209H168.802ZM188.258 190.76L187.287 192.508L189.255 189.026L188.258 190.76ZM185.442 191.08L184.443 189.348L185.442 191.08ZM182.626 193.96L180.911 192.931L180.898 192.952L180.886 192.974L182.626 193.96ZM182.69 200.36L181.719 202.108L183.687 198.626L182.69 200.36ZM177.122 197.16L176.108 198.884L176.117 198.889L176.125 198.894L177.122 197.16ZM177.122 190.76L178.862 191.746V191.746L177.122 190.76ZM179.938 187.88L180.909 189.628L180.923 189.62L180.937 189.612L179.938 187.88ZM182.69 187.56L181.676 189.284L181.685 189.289L181.693 189.294L182.69 187.56ZM184.69 233V213.8H180.69V233H184.69ZM181.691 212.068L173.371 216.868L175.369 220.332L183.689 215.532L181.691 212.068ZM176.37 218.6V212.2H172.37V218.6H176.37ZM175.371 213.932L197.515 201.132L195.513 197.668L173.369 210.468L175.371 213.932ZM194.514 199.4V205.8H198.514V199.4H194.514ZM195.515 204.068L187.195 208.868L189.193 212.332L197.513 207.532L195.515 204.068ZM186.194 210.6V229.8H190.194V210.6H186.194ZM189.193 231.532L197.513 226.732L195.515 223.268L187.195 228.068L189.193 231.532ZM194.514 225V231.4H198.514V225H194.514ZM195.513 229.668L173.369 242.468L175.371 245.932L197.515 233.132L195.513 229.668ZM176.37 244.2V237.8H172.37V244.2H176.37ZM175.369 239.532L183.689 234.732L181.691 231.268L173.371 236.068L175.369 239.532ZM184.443 198.308C184.046 198.536 183.798 198.599 183.68 198.613C183.626 198.619 183.604 198.614 183.603 198.614C183.601 198.614 183.602 198.614 183.603 198.614C183.603 198.615 183.602 198.614 183.597 198.612L181.655 202.108C183.292 203.018 185.028 202.588 186.441 201.772L184.443 198.308ZM183.64 198.636C183.684 198.662 183.682 198.692 183.651 198.618C183.606 198.513 183.538 198.267 183.538 197.8H179.538C179.538 199.391 179.997 201.134 181.612 202.084L183.64 198.636ZM183.538 197.8C183.538 196.914 183.785 195.971 184.366 194.946L180.886 192.974C180.016 194.509 179.538 196.126 179.538 197.8H183.538ZM184.341 194.989C184.963 193.952 185.672 193.256 186.441 192.812L184.443 189.348C182.993 190.184 181.825 191.408 180.911 192.931L184.341 194.989ZM186.441 192.812C186.845 192.579 187.088 192.519 187.193 192.507C187.239 192.501 187.248 192.506 187.232 192.503C187.213 192.499 187.193 192.492 187.18 192.484L189.208 189.036C187.576 188.076 185.823 188.551 184.443 189.348L186.441 192.812ZM187.223 192.508C187.225 192.51 187.218 192.506 187.211 192.498C187.205 192.491 187.216 192.5 187.234 192.541C187.276 192.633 187.346 192.865 187.346 193.32H191.346C191.346 191.681 190.835 189.939 189.165 189.012L187.223 192.508ZM187.346 193.32C187.346 194.181 187.092 195.109 186.479 196.131L189.909 198.189C190.832 196.651 191.346 195.019 191.346 193.32H187.346ZM186.454 196.174C185.878 197.191 185.199 197.871 184.443 198.308L186.441 201.772C187.903 200.929 189.059 199.689 189.934 198.146L186.454 196.174ZM181.691 231.268L173.371 236.068L175.369 239.532L183.689 234.732L181.691 231.268ZM175.367 236.066L169.799 232.866L167.805 236.334L173.373 239.534L175.367 236.066ZM169.801 236.332L178.121 231.532L176.123 228.068L167.803 232.868L169.801 236.332ZM176.125 231.534L181.693 234.734L183.687 231.266L178.119 228.066L176.125 231.534ZM172.37 237.8V244.2H176.37V237.8H172.37ZM175.367 242.466L169.799 239.266L167.805 242.734L173.373 245.934L175.367 242.466ZM170.802 241V234.6H166.802V241H170.802ZM167.805 236.334L173.373 239.534L175.367 236.066L169.799 232.866L167.805 236.334ZM195.515 223.268L187.195 228.068L189.193 231.532L197.513 226.732L195.515 223.268ZM189.199 228.071L183.695 224.871L181.685 228.329L187.189 231.529L189.199 228.071ZM183.689 228.332L192.009 223.532L190.011 220.068L181.691 224.868L183.689 228.332ZM190.005 223.529L195.509 226.729L197.519 223.271L192.015 220.071L190.005 223.529ZM180.69 213.8V233H184.69V213.8H180.69ZM183.687 231.266L178.119 228.066L176.125 231.534L181.693 234.734L183.687 231.266ZM179.122 229.8V210.6H175.122V229.8H179.122ZM176.125 212.334L181.693 215.534L183.687 212.066L178.119 208.866L176.125 212.334ZM195.513 197.668L173.369 210.468L175.371 213.932L197.515 201.132L195.513 197.668ZM175.367 210.466L169.799 207.266L167.805 210.734L173.373 213.934L175.367 210.466ZM169.801 210.733L192.009 197.933L190.011 194.467L167.803 207.267L169.801 210.733ZM190.005 197.929L195.509 201.129L197.519 197.671L192.015 194.471L190.005 197.929ZM172.37 212.2V218.6H176.37V212.2H172.37ZM175.367 216.866L169.799 213.666L167.805 217.134L173.373 220.334L175.367 216.866ZM170.802 215.4V209H166.802V215.4H170.802ZM167.805 210.734L173.373 213.934L175.367 210.466L169.799 207.266L167.805 210.734ZM189.229 189.012C187.592 188.102 185.856 188.532 184.443 189.348L186.441 192.812C186.838 192.584 187.086 192.521 187.204 192.507C187.258 192.501 187.281 192.506 187.281 192.506C187.283 192.506 187.282 192.506 187.282 192.506C187.281 192.505 187.282 192.506 187.287 192.508L189.229 189.012ZM184.443 189.348C182.993 190.184 181.825 191.408 180.911 192.931L184.341 194.989C184.963 193.952 185.672 193.256 186.441 192.812L184.443 189.348ZM180.886 192.974C180.016 194.509 179.538 196.126 179.538 197.8H183.538C183.538 196.914 183.785 195.971 184.366 194.946L180.886 192.974ZM179.538 197.8C179.538 199.439 180.049 201.181 181.719 202.108L183.661 198.612C183.659 198.61 183.666 198.614 183.673 198.622C183.679 198.629 183.668 198.62 183.65 198.579C183.608 198.487 183.538 198.255 183.538 197.8H179.538ZM183.687 198.626L178.119 195.426L176.125 198.894L181.693 202.094L183.687 198.626ZM178.136 195.436C178.18 195.462 178.178 195.492 178.147 195.418C178.102 195.313 178.034 195.067 178.034 194.6H174.034C174.034 196.191 174.493 197.934 176.108 198.884L178.136 195.436ZM178.034 194.6C178.034 193.714 178.281 192.771 178.862 191.746L175.382 189.774C174.512 191.309 174.034 192.926 174.034 194.6H178.034ZM178.862 191.746C179.428 190.748 180.115 190.069 180.909 189.628L178.967 186.132C177.457 186.97 176.267 188.212 175.382 189.774L178.862 191.746ZM180.937 189.612C181.341 189.379 181.584 189.319 181.689 189.307C181.735 189.301 181.744 189.306 181.728 189.303C181.709 189.299 181.689 189.292 181.676 189.284L183.704 185.836C182.073 184.876 180.319 185.351 178.939 186.148L180.937 189.612ZM181.693 189.294L187.261 192.494L189.255 189.026L183.687 185.826L181.693 189.294ZM207.62 209.64L206.623 207.906L205.62 208.483V209.64H207.62ZM213.188 206.44H215.188V202.984L212.191 204.706L213.188 206.44ZM213.956 209.256L215.804 210.021L215.809 210.01L215.813 209.999L213.956 209.256ZM215.94 205.736L214.355 204.517L214.348 204.526L215.94 205.736ZM218.692 203.24L219.676 204.981L219.682 204.978L219.689 204.974L218.692 203.24ZM224.26 200.04L225.257 201.774L225.265 201.769L225.274 201.764L224.26 200.04ZM229.764 231.4L230.769 233.129L231.764 232.551V231.4H229.764ZM224.26 234.6H222.26V238.076L225.265 236.329L224.26 234.6ZM224.26 206.44H226.26V202.974L223.259 204.708L224.26 206.44ZM213.188 212.84L212.187 211.108L211.188 211.686V212.84H213.188ZM213.188 241L214.185 242.734L215.188 242.157V241H213.188ZM207.62 244.2H205.62V247.656L208.617 245.934L207.62 244.2ZM224.26 206.44H226.26V205.283L225.257 204.706L224.26 206.44ZM224.26 234.6L223.263 236.334L226.26 238.056V234.6H224.26ZM218.692 231.4H216.692V232.557L217.695 233.134L218.692 231.4ZM218.692 203.24L219.689 201.506L216.692 199.784V203.24H218.692ZM207.62 209.64H209.62V208.483L208.617 207.906L207.62 209.64ZM207.62 244.2L206.623 245.934L209.62 247.656V244.2H207.62ZM202.052 241H200.052V242.157L201.055 242.734L202.052 241ZM202.052 206.44L203.049 204.706L200.052 202.984V206.44H202.052ZM228.1 199.72L227.101 201.452L229.105 197.991L228.1 199.72ZM224.26 200.04L225.257 201.774L225.265 201.769L225.274 201.764L224.26 200.04ZM218.692 203.24L219.676 204.981L219.682 204.978L219.689 204.974L218.692 203.24ZM215.94 205.736L214.355 204.517L214.348 204.526L215.94 205.736ZM213.956 209.256L215.804 210.021L215.809 210.01L215.813 209.999L213.956 209.256ZM213.188 212.84L212.191 214.574L215.188 216.296V212.84H213.188ZM207.62 209.64H205.62V210.797L206.623 211.374L207.62 209.64ZM208.388 206.056L210.236 206.821L210.241 206.81L210.245 206.799L208.388 206.056ZM210.436 202.536L211.998 203.785L212.01 203.771L212.021 203.755L210.436 202.536ZM213.188 200.04L214.172 201.781L214.183 201.775L214.193 201.769L213.188 200.04ZM218.692 196.84L217.7 195.104L217.693 195.107L217.687 195.111L218.692 196.84ZM222.596 196.52L223.601 194.791L223.595 194.788L222.596 196.52ZM213.188 206.44L214.185 208.174L217.202 206.44L214.185 204.706L213.188 206.44ZM207.62 209.64L206.623 211.374L207.62 211.947L208.617 211.374L207.62 209.64ZM202.052 206.44L201.055 204.706L198.038 206.44L201.055 208.174L202.052 206.44ZM207.62 203.24L208.617 201.506L207.62 200.933L206.623 201.506L207.62 203.24ZM208.617 211.374L214.185 208.174L212.191 204.706L206.623 207.906L208.617 211.374ZM211.188 206.44V212.84H215.188V206.44H211.188ZM215.188 212.84C215.188 211.989 215.376 211.054 215.804 210.021L212.108 208.491C211.512 209.932 211.188 211.387 211.188 212.84H215.188ZM215.813 209.999C216.26 208.881 216.834 207.866 217.532 206.946L214.348 204.526C213.425 205.74 212.676 207.071 212.099 208.513L215.813 209.999ZM217.525 206.955C218.253 206.009 218.977 205.376 219.676 204.981L217.708 201.499C216.444 202.213 215.333 203.245 214.355 204.517L217.525 206.955ZM219.689 204.974L225.257 201.774L223.263 198.306L217.695 201.506L219.689 204.974ZM225.274 201.764C226.328 201.144 226.811 201.286 227.101 201.452L229.099 197.988C227.17 196.874 225.093 197.229 223.246 198.316L225.274 201.764ZM227.101 201.452C227.387 201.618 227.764 201.977 227.764 203.24H231.764C231.764 201.089 231.031 199.102 229.099 197.988L227.101 201.452ZM227.764 203.24V231.4H231.764V203.24H227.764ZM228.759 229.671L223.255 232.871L225.265 236.329L230.769 233.129L228.759 229.671ZM226.26 234.6V206.44H222.26V234.6H226.26ZM223.259 204.708L212.187 211.108L214.189 214.572L225.261 208.172L223.259 204.708ZM211.188 212.84V241H215.188V212.84H211.188ZM212.191 239.266L206.623 242.466L208.617 245.934L214.185 242.734L212.191 239.266ZM209.62 244.2V209.64H205.62V244.2H209.62ZM222.26 206.44V234.6H226.26V206.44H222.26ZM225.257 232.866L219.689 229.666L217.695 233.134L223.263 236.334L225.257 232.866ZM220.692 231.4V203.24H216.692V231.4H220.692ZM217.695 204.974L223.263 208.174L225.257 204.706L219.689 201.506L217.695 204.974ZM205.62 209.64V244.2H209.62V209.64H205.62ZM208.617 242.466L203.049 239.266L201.055 242.734L206.623 245.934L208.617 242.466ZM204.052 241V206.44H200.052V241H204.052ZM201.055 208.174L206.623 211.374L208.617 207.906L203.049 204.706L201.055 208.174ZM229.099 197.988C227.17 196.874 225.093 197.229 223.246 198.316L225.274 201.764C226.328 201.144 226.811 201.286 227.101 201.452L229.099 197.988ZM223.263 198.306L217.695 201.506L219.689 204.974L225.257 201.774L223.263 198.306ZM217.708 201.499C216.444 202.213 215.333 203.245 214.355 204.517L217.525 206.955C218.253 206.009 218.977 205.376 219.676 204.981L217.708 201.499ZM214.348 204.526C213.425 205.74 212.676 207.071 212.099 208.513L215.813 209.999C216.26 208.881 216.834 207.866 217.532 206.946L214.348 204.526ZM212.108 208.491C211.512 209.932 211.188 211.387 211.188 212.84H215.188C215.188 211.989 215.376 211.054 215.804 210.021L212.108 208.491ZM214.185 211.106L208.617 207.906L206.623 211.374L212.191 214.574L214.185 211.106ZM209.62 209.64C209.62 208.789 209.808 207.854 210.236 206.821L206.54 205.291C205.944 206.732 205.62 208.187 205.62 209.64H209.62ZM210.245 206.799C210.685 205.7 211.268 204.697 211.998 203.785L208.874 201.287C207.897 202.508 207.115 203.852 206.531 205.313L210.245 206.799ZM212.021 203.755C212.749 202.809 213.473 202.176 214.172 201.781L212.204 198.299C210.94 199.013 209.829 200.045 208.851 201.317L212.021 203.755ZM214.193 201.769L219.697 198.569L217.687 195.111L212.183 198.311L214.193 201.769ZM219.684 198.576C220.8 197.939 221.31 198.087 221.597 198.252L223.595 194.788C221.663 193.673 219.571 194.034 217.7 195.104L219.684 198.576ZM221.591 198.249L227.095 201.449L229.105 197.991L223.601 194.791L221.591 198.249ZM212.191 204.706L206.623 207.906L208.617 211.374L214.185 208.174L212.191 204.706ZM208.617 207.906L203.049 204.706L201.055 208.174L206.623 211.374L208.617 207.906ZM203.049 208.174L208.617 204.974L206.623 201.506L201.055 204.706L203.049 208.174ZM206.623 204.974L212.191 208.174L214.185 204.706L208.617 201.506L206.623 204.974ZM276.887 220.2H278.887V216.732L275.885 218.469L276.887 220.2ZM263.063 228.2L262.061 226.469L261.063 227.047V228.2H263.063ZM263.063 241L264.06 242.734L265.063 242.157V241H263.063ZM257.495 244.2H255.495V247.656L258.492 245.934L257.495 244.2ZM257.495 196.84L256.495 195.108L255.495 195.686V196.84H257.495ZM276.887 185.64L277.887 187.372L277.894 187.368L277.901 187.364L276.887 185.64ZM280.727 185.32L279.728 187.052L279.742 187.06L279.756 187.068L280.727 185.32ZM281.623 207.784L279.788 206.989L279.777 207.015L279.766 207.041L281.623 207.784ZM279.575 211.368L277.99 210.149L277.983 210.158L279.575 211.368ZM276.887 213.8L275.873 212.076L277.871 215.541L276.887 213.8ZM280.727 213.48L279.728 215.212L279.742 215.22L279.756 215.228L280.727 213.48ZM282.455 229.8L283.452 231.534L284.455 230.957V229.8H282.455ZM276.887 233H274.887V236.456L277.884 234.734L276.887 233ZM276.887 213.8L277.889 215.531L278.887 214.953V213.8H276.887ZM276.887 192.04H278.887V188.572L275.885 190.309L276.887 192.04ZM263.063 200.04L262.061 198.309L261.063 198.887V200.04H263.063ZM263.063 221.8H261.063V225.268L264.065 223.531L263.063 221.8ZM276.887 220.2H278.887V219.043L277.884 218.466L276.887 220.2ZM276.887 233L275.89 234.734L278.887 236.456V233H276.887ZM271.319 229.8H269.319V230.957L270.322 231.534L271.319 229.8ZM271.319 217L272.316 215.266L269.319 213.544V217H271.319ZM280.791 213.48L279.82 215.228L281.788 211.746L280.791 213.48ZM276.887 213.8L275.89 215.534L276.899 216.113L277.901 215.524L276.887 213.8ZM271.319 210.6L270.327 208.864L267.297 210.595L270.322 212.334L271.319 210.6ZM275.223 210.28L274.224 212.012L274.226 212.014L275.223 210.28ZM276.887 192.04H278.887V190.883L277.884 190.306L276.887 192.04ZM276.887 213.8L275.89 215.534L278.887 217.256V213.8H276.887ZM271.319 210.6H269.319V211.757L270.322 212.334L271.319 210.6ZM271.319 188.84L272.316 187.106L269.319 185.384V188.84H271.319ZM276.887 213.8L277.889 215.531L280.89 213.794L277.884 212.066L276.887 213.8ZM263.063 221.8L262.066 223.534L263.067 224.109L264.065 223.531L263.063 221.8ZM257.495 218.6L256.493 216.869L253.492 218.606L256.498 220.334L257.495 218.6ZM271.319 210.6L272.316 208.866L271.316 208.291L270.317 208.869L271.319 210.6ZM280.791 185.32L279.82 187.068L281.788 183.586L280.791 185.32ZM276.887 185.64L277.887 187.372L277.894 187.368L277.901 187.364L276.887 185.64ZM257.495 196.84L256.498 198.574L257.498 199.148L258.495 198.572L257.495 196.84ZM251.927 193.64L250.927 191.908L247.921 193.644L250.93 195.374L251.927 193.64ZM271.319 182.44L270.327 180.703L270.319 180.708L271.319 182.44ZM275.223 182.12L274.224 183.852L274.226 183.854L275.223 182.12ZM257.495 196.84H259.495V195.683L258.492 195.106L257.495 196.84ZM257.495 244.2L256.498 245.934L259.495 247.656V244.2H257.495ZM251.927 241H249.927V242.157L250.93 242.734L251.927 241ZM251.927 193.64L252.924 191.906L249.927 190.184V193.64H251.927ZM275.885 218.469L262.061 226.469L264.065 229.931L277.889 221.931L275.885 218.469ZM261.063 228.2V241H265.063V228.2H261.063ZM262.066 239.266L256.498 242.466L258.492 245.934L264.06 242.734L262.066 239.266ZM259.495 244.2V196.84H255.495V244.2H259.495ZM258.495 198.572L277.887 187.372L275.887 183.908L256.495 195.108L258.495 198.572ZM277.901 187.364C278.955 186.744 279.438 186.886 279.728 187.052L281.727 183.588C279.797 182.474 277.72 182.829 275.873 183.916L277.901 187.364ZM279.756 187.068C280.082 187.25 280.455 187.611 280.455 188.84H284.455C284.455 186.655 283.676 184.67 281.698 183.572L279.756 187.068ZM280.455 188.84V204.2H284.455V188.84H280.455ZM280.455 204.2C280.455 204.975 280.261 205.897 279.788 206.989L283.458 208.579C284.095 207.111 284.455 205.644 284.455 204.2H280.455ZM279.766 207.041C279.323 208.148 278.733 209.183 277.99 210.149L281.16 212.587C282.124 211.335 282.899 209.98 283.48 208.527L279.766 207.041ZM277.983 210.158C277.306 211.048 276.607 211.661 275.903 212.059L277.871 215.541C279.129 214.83 280.223 213.821 281.167 212.578L277.983 210.158ZM277.901 215.524C278.955 214.904 279.438 215.046 279.728 215.212L281.727 211.748C279.797 210.634 277.72 210.989 275.873 212.076L277.901 215.524ZM279.756 215.228C280.082 215.41 280.455 215.771 280.455 217H284.455C284.455 214.815 283.676 212.83 281.698 211.732L279.756 215.228ZM280.455 217V229.8H284.455V217H280.455ZM281.458 228.066L275.89 231.266L277.884 234.734L283.452 231.534L281.458 228.066ZM278.887 233V220.2H274.887V233H278.887ZM278.887 213.8V192.04H274.887V213.8H278.887ZM275.885 190.309L262.061 198.309L264.065 201.771L277.889 193.771L275.885 190.309ZM261.063 200.04V221.8H265.063V200.04H261.063ZM264.065 223.531L277.889 215.531L275.885 212.069L262.061 220.069L264.065 223.531ZM274.887 220.2V233H278.887V220.2H274.887ZM277.884 231.266L272.316 228.066L270.322 231.534L275.89 234.734L277.884 231.266ZM273.319 229.8V217H269.319V229.8H273.319ZM270.322 218.734L275.89 221.934L277.884 218.466L272.316 215.266L270.322 218.734ZM281.762 211.732C279.816 210.65 277.739 210.978 275.873 212.076L277.901 215.524C278.936 214.915 279.462 215.03 279.82 215.228L281.762 211.732ZM277.884 212.066L272.316 208.866L270.322 212.334L275.89 215.534L277.884 212.066ZM272.311 212.336C273.427 211.699 273.937 211.847 274.224 212.012L276.222 208.548C274.29 207.433 272.198 207.794 270.327 208.864L272.311 212.336ZM274.226 212.014L279.794 215.214L281.788 211.746L276.22 208.546L274.226 212.014ZM274.887 192.04V213.8H278.887V192.04H274.887ZM277.884 212.066L272.316 208.866L270.322 212.334L275.89 215.534L277.884 212.066ZM273.319 210.6V188.84H269.319V210.6H273.319ZM270.322 190.574L275.89 193.774L277.884 190.306L272.316 187.106L270.322 190.574ZM275.885 212.069L262.061 220.069L264.065 223.531L277.889 215.531L275.885 212.069ZM264.06 220.066L258.492 216.866L256.498 220.334L262.066 223.534L264.06 220.066ZM258.497 220.331L272.321 212.331L270.317 208.869L256.493 216.869L258.497 220.331ZM270.322 212.334L275.89 215.534L277.884 212.066L272.316 208.866L270.322 212.334ZM281.762 183.572C279.816 182.49 277.739 182.818 275.873 183.916L277.901 187.364C278.936 186.755 279.462 186.87 279.82 187.068L281.762 183.572ZM275.887 183.908L256.495 195.108L258.495 198.572L277.887 187.372L275.887 183.908ZM258.492 195.106L252.924 191.906L250.93 195.374L256.498 198.574L258.492 195.106ZM252.927 195.372L272.319 184.172L270.319 180.708L250.927 191.908L252.927 195.372ZM272.311 184.176C273.427 183.539 273.937 183.687 274.224 183.852L276.223 180.388C274.29 179.273 272.198 179.634 270.327 180.704L272.311 184.176ZM274.226 183.854L279.794 187.054L281.788 183.586L276.22 180.386L274.226 183.854ZM255.495 196.84V244.2H259.495V196.84H255.495ZM258.492 242.466L252.924 239.266L250.93 242.734L256.498 245.934L258.492 242.466ZM253.927 241V193.64H249.927V241H253.927ZM250.93 195.374L256.498 198.574L258.492 195.106L252.924 191.906L250.93 195.374ZM299.126 206.44L300.11 208.181L300.118 208.176L300.126 208.172L299.126 206.44ZM310.198 200.04L311.198 201.772L311.205 201.768L311.212 201.764L310.198 200.04ZM314.934 231.144L313.077 230.401L314.934 231.144ZM312.886 234.728L311.3 233.509L311.293 233.518L312.886 234.728ZM310.198 237.16L309.213 235.419L309.205 235.424L309.197 235.428L310.198 237.16ZM299.126 243.56L300.118 245.297L300.126 245.292L299.126 243.56ZM295.222 243.88L294.222 245.612L295.222 243.88ZM294.326 212.456L296.174 213.221L296.178 213.21L296.182 213.199L294.326 212.456ZM296.374 208.936L297.935 210.185L297.947 210.171L297.959 210.155L296.374 208.936ZM299.126 237.16H297.126V240.626L300.126 238.892L299.126 237.16ZM310.198 230.76L311.198 232.492L312.198 231.914V230.76H310.198ZM310.198 206.44H312.198V202.974L309.197 204.708L310.198 206.44ZM299.126 212.84L298.125 211.108L297.126 211.686V212.84H299.126ZM310.198 206.44H312.198V205.283L311.194 204.706L310.198 206.44ZM310.198 230.76L309.201 232.494L312.198 234.216V230.76H310.198ZM304.63 227.56H302.63V228.717L303.633 229.294L304.63 227.56ZM304.63 203.24L305.626 201.506L302.63 199.784V203.24H304.63ZM310.198 230.76L311.198 232.492L314.203 230.755L311.194 229.026L310.198 230.76ZM299.126 237.16L298.129 238.894L299.128 239.468L300.126 238.892L299.126 237.16ZM293.558 233.96L292.557 232.228L289.552 233.965L292.561 235.694L293.558 233.96ZM304.63 227.56L305.626 225.826L304.627 225.252L303.629 225.828L304.63 227.56ZM314.038 199.72L313.038 201.452L315.043 197.991L314.038 199.72ZM310.198 200.04L311.198 201.772L311.205 201.768L311.212 201.764L310.198 200.04ZM299.126 206.44L300.11 208.181L300.118 208.176L300.126 208.172L299.126 206.44ZM296.374 208.936L297.935 210.185L297.947 210.171L297.959 210.155L296.374 208.936ZM294.326 212.456L296.174 213.221L296.178 213.21L296.182 213.199L294.326 212.456ZM295.222 243.88L294.225 245.614L296.221 242.148L295.222 243.88ZM289.654 240.68L288.654 242.412L288.657 242.414L289.654 240.68ZM288.758 209.256L290.606 210.021L290.61 210.01L290.615 209.999L288.758 209.256ZM290.806 205.736L292.367 206.985L292.379 206.971L292.391 206.955L290.806 205.736ZM293.558 203.24L294.542 204.981L294.55 204.976L294.558 204.972L293.558 203.24ZM304.63 196.84L303.637 195.103L303.629 195.108L304.63 196.84ZM308.534 196.52L309.539 194.791L309.533 194.788L308.534 196.52ZM300.126 208.172L311.198 201.772L309.197 198.308L298.125 204.708L300.126 208.172ZM311.212 201.764C312.265 201.144 312.749 201.286 313.038 201.452L315.037 197.988C313.107 196.874 311.031 197.229 309.184 198.316L311.212 201.764ZM313.038 201.452C313.325 201.618 313.702 201.977 313.702 203.24H317.702C317.702 201.089 316.969 199.102 315.037 197.988L313.038 201.452ZM313.702 203.24V227.56H317.702V203.24H313.702ZM313.702 227.56C313.702 228.361 313.516 229.302 313.077 230.401L316.79 231.887C317.375 230.426 317.702 228.977 317.702 227.56H313.702ZM313.077 230.401C312.634 231.508 312.043 232.543 311.3 233.509L314.471 235.947C315.434 234.695 316.209 233.34 316.79 231.887L313.077 230.401ZM311.293 233.518C310.617 234.408 309.918 235.021 309.213 235.419L311.182 238.901C312.44 238.19 313.533 237.181 314.478 235.938L311.293 233.518ZM309.197 235.428L298.125 241.828L300.126 245.292L311.198 238.892L309.197 235.428ZM298.133 241.824C297.017 242.461 296.508 242.313 296.221 242.148L294.222 245.612C296.154 246.727 298.247 246.366 300.118 245.296L298.133 241.824ZM296.221 242.148C295.934 241.982 295.558 241.623 295.558 240.36H291.558C291.558 242.511 292.29 244.498 294.222 245.612L296.221 242.148ZM295.558 240.36V216.04H291.558V240.36H295.558ZM295.558 216.04C295.558 215.189 295.746 214.254 296.174 213.221L292.478 211.691C291.881 213.132 291.558 214.587 291.558 216.04H295.558ZM296.182 213.199C296.622 212.1 297.206 211.097 297.935 210.185L294.812 207.687C293.835 208.908 293.053 210.252 292.469 211.713L296.182 213.199ZM297.959 210.155C298.687 209.209 299.411 208.576 300.11 208.181L298.141 204.699C296.878 205.413 295.767 206.445 294.788 207.717L297.959 210.155ZM300.126 238.892L311.198 232.492L309.197 229.028L298.125 235.428L300.126 238.892ZM312.198 230.76V206.44H308.198V230.76H312.198ZM309.197 204.708L298.125 211.108L300.126 214.572L311.198 208.172L309.197 204.708ZM297.126 212.84V237.16H301.126V212.84H297.126ZM308.198 206.44V230.76H312.198V206.44H308.198ZM311.194 229.026L305.626 225.826L303.633 229.294L309.201 232.494L311.194 229.026ZM306.63 227.56V203.24H302.63V227.56H306.63ZM303.633 204.974L309.201 208.174L311.194 204.706L305.626 201.506L303.633 204.974ZM309.197 229.028L298.125 235.428L300.126 238.892L311.198 232.492L309.197 229.028ZM300.122 235.426L294.554 232.226L292.561 235.694L298.129 238.894L300.122 235.426ZM294.558 235.692L305.63 229.292L303.629 225.828L292.557 232.228L294.558 235.692ZM303.633 229.294L309.201 232.494L311.194 229.026L305.626 225.826L303.633 229.294ZM315.037 197.988C313.107 196.874 311.031 197.229 309.184 198.316L311.212 201.764C312.265 201.144 312.749 201.286 313.038 201.452L315.037 197.988ZM309.197 198.308L298.125 204.708L300.126 208.172L311.198 201.772L309.197 198.308ZM298.141 204.699C296.878 205.413 295.767 206.445 294.788 207.717L297.959 210.155C298.687 209.209 299.411 208.576 300.11 208.181L298.141 204.699ZM294.812 207.687C293.835 208.908 293.053 210.252 292.469 211.713L296.182 213.199C296.622 212.1 297.206 211.097 297.935 210.185L294.812 207.687ZM292.478 211.691C291.881 213.132 291.558 214.587 291.558 216.04H295.558C295.558 215.189 295.746 214.254 296.174 213.221L292.478 211.691ZM291.558 216.04V240.36H295.558V216.04H291.558ZM291.558 240.36C291.558 242.511 292.29 244.498 294.222 245.612L296.221 242.148C295.934 241.982 295.558 241.623 295.558 240.36H291.558ZM296.218 242.146L290.65 238.946L288.657 242.414L294.225 245.614L296.218 242.146ZM290.653 238.948C290.366 238.782 289.99 238.423 289.99 237.16H285.99C285.99 239.311 286.722 241.298 288.654 242.412L290.653 238.948ZM289.99 237.16V212.84H285.99V237.16H289.99ZM289.99 212.84C289.99 211.989 290.178 211.054 290.606 210.021L286.91 208.491C286.313 209.932 285.99 211.387 285.99 212.84H289.99ZM290.615 209.999C291.054 208.9 291.638 207.897 292.367 206.985L289.244 204.487C288.267 205.708 287.485 207.052 286.901 208.513L290.615 209.999ZM292.391 206.955C293.119 206.009 293.843 205.376 294.542 204.981L292.573 201.499C291.31 202.213 290.199 203.245 289.22 204.517L292.391 206.955ZM294.558 204.972L305.63 198.572L303.629 195.108L292.557 201.508L294.558 204.972ZM305.622 198.576C306.738 197.939 307.248 198.087 307.534 198.252L309.533 194.788C307.601 193.673 305.508 194.034 303.637 195.104L305.622 198.576ZM307.528 198.249L313.032 201.449L315.043 197.991L309.539 194.791L307.528 198.249ZM332.376 206.44L333.36 208.181L333.368 208.176L333.376 208.172L332.376 206.44ZM343.448 200.04L344.448 201.772L344.455 201.768L344.462 201.764L343.448 200.04ZM348.184 231.144L346.327 230.401L348.184 231.144ZM346.136 234.728L344.55 233.509L344.543 233.518L346.136 234.728ZM343.448 237.16L342.463 235.419L342.455 235.424L342.447 235.428L343.448 237.16ZM332.376 243.56L333.368 245.297L333.376 245.292L332.376 243.56ZM328.472 243.88L327.472 245.612L328.472 243.88ZM327.576 212.456L329.424 213.221L329.428 213.21L329.432 213.199L327.576 212.456ZM329.624 208.936L331.185 210.185L331.197 210.171L331.209 210.155L329.624 208.936ZM332.376 237.16H330.376V240.626L333.376 238.892L332.376 237.16ZM343.448 230.76L344.448 232.492L345.448 231.914V230.76H343.448ZM343.448 206.44H345.448V202.974L342.447 204.708L343.448 206.44ZM332.376 212.84L331.375 211.108L330.376 211.686V212.84H332.376ZM343.448 206.44H345.448V205.283L344.444 204.706L343.448 206.44ZM343.448 230.76L342.451 232.494L345.448 234.216V230.76H343.448ZM337.88 227.56H335.88V228.717L336.883 229.294L337.88 227.56ZM337.88 203.24L338.876 201.506L335.88 199.784V203.24H337.88ZM343.448 230.76L344.448 232.492L347.453 230.755L344.444 229.026L343.448 230.76ZM332.376 237.16L331.379 238.894L332.378 239.468L333.376 238.892L332.376 237.16ZM326.808 233.96L325.807 232.228L322.802 233.965L325.811 235.694L326.808 233.96ZM337.88 227.56L338.876 225.826L337.877 225.252L336.879 225.828L337.88 227.56ZM347.288 199.72L346.288 201.452L348.293 197.991L347.288 199.72ZM343.448 200.04L344.448 201.772L344.455 201.768L344.462 201.764L343.448 200.04ZM332.376 206.44L333.36 208.181L333.368 208.176L333.376 208.172L332.376 206.44ZM329.624 208.936L331.185 210.185L331.197 210.171L331.209 210.155L329.624 208.936ZM327.576 212.456L329.424 213.221L329.428 213.21L329.432 213.199L327.576 212.456ZM328.472 243.88L327.475 245.614L329.471 242.148L328.472 243.88ZM322.904 240.68L321.904 242.412L321.907 242.414L322.904 240.68ZM322.008 209.256L323.856 210.021L323.86 210.01L323.865 209.999L322.008 209.256ZM324.056 205.736L325.617 206.985L325.629 206.971L325.641 206.955L324.056 205.736ZM326.808 203.24L327.792 204.981L327.8 204.976L327.808 204.972L326.808 203.24ZM337.88 196.84L336.887 195.103L336.879 195.108L337.88 196.84ZM341.784 196.52L342.789 194.791L342.783 194.788L341.784 196.52ZM333.376 208.172L344.448 201.772L342.447 198.308L331.375 204.708L333.376 208.172ZM344.462 201.764C345.515 201.144 345.999 201.286 346.288 201.452L348.287 197.988C346.357 196.874 344.281 197.229 342.434 198.316L344.462 201.764ZM346.288 201.452C346.575 201.618 346.952 201.977 346.952 203.24H350.952C350.952 201.089 350.219 199.102 348.287 197.988L346.288 201.452ZM346.952 203.24V227.56H350.952V203.24H346.952ZM346.952 227.56C346.952 228.361 346.766 229.302 346.327 230.401L350.04 231.887C350.625 230.426 350.952 228.977 350.952 227.56H346.952ZM346.327 230.401C345.884 231.508 345.293 232.543 344.55 233.509L347.721 235.947C348.684 234.695 349.459 233.34 350.04 231.887L346.327 230.401ZM344.543 233.518C343.867 234.408 343.168 235.021 342.463 235.419L344.432 238.901C345.69 238.19 346.783 237.181 347.728 235.938L344.543 233.518ZM342.447 235.428L331.375 241.828L333.376 245.292L344.448 238.892L342.447 235.428ZM331.383 241.824C330.267 242.461 329.758 242.313 329.471 242.148L327.472 245.612C329.404 246.727 331.497 246.366 333.368 245.296L331.383 241.824ZM329.471 242.148C329.184 241.982 328.808 241.623 328.808 240.36H324.808C324.808 242.511 325.54 244.498 327.472 245.612L329.471 242.148ZM328.808 240.36V216.04H324.808V240.36H328.808ZM328.808 216.04C328.808 215.189 328.996 214.254 329.424 213.221L325.728 211.691C325.131 213.132 324.808 214.587 324.808 216.04H328.808ZM329.432 213.199C329.872 212.1 330.456 211.097 331.185 210.185L328.062 207.687C327.085 208.908 326.303 210.252 325.719 211.713L329.432 213.199ZM331.209 210.155C331.937 209.209 332.661 208.576 333.36 208.181L331.391 204.699C330.128 205.413 329.017 206.445 328.038 207.717L331.209 210.155ZM333.376 238.892L344.448 232.492L342.447 229.028L331.375 235.428L333.376 238.892ZM345.448 230.76V206.44H341.448V230.76H345.448ZM342.447 204.708L331.375 211.108L333.376 214.572L344.448 208.172L342.447 204.708ZM330.376 212.84V237.16H334.376V212.84H330.376ZM341.448 206.44V230.76H345.448V206.44H341.448ZM344.444 229.026L338.876 225.826L336.883 229.294L342.451 232.494L344.444 229.026ZM339.88 227.56V203.24H335.88V227.56H339.88ZM336.883 204.974L342.451 208.174L344.444 204.706L338.876 201.506L336.883 204.974ZM342.447 229.028L331.375 235.428L333.376 238.892L344.448 232.492L342.447 229.028ZM333.372 235.426L327.804 232.226L325.811 235.694L331.379 238.894L333.372 235.426ZM327.808 235.692L338.88 229.292L336.879 225.828L325.807 232.228L327.808 235.692ZM336.883 229.294L342.451 232.494L344.444 229.026L338.876 225.826L336.883 229.294ZM348.287 197.988C346.357 196.874 344.281 197.229 342.434 198.316L344.462 201.764C345.515 201.144 345.999 201.286 346.288 201.452L348.287 197.988ZM342.447 198.308L331.375 204.708L333.376 208.172L344.448 201.772L342.447 198.308ZM331.391 204.699C330.128 205.413 329.017 206.445 328.038 207.717L331.209 210.155C331.937 209.209 332.661 208.576 333.36 208.181L331.391 204.699ZM328.062 207.687C327.085 208.908 326.303 210.252 325.719 211.713L329.432 213.199C329.872 212.1 330.456 211.097 331.185 210.185L328.062 207.687ZM325.728 211.691C325.131 213.132 324.808 214.587 324.808 216.04H328.808C328.808 215.189 328.996 214.254 329.424 213.221L325.728 211.691ZM324.808 216.04V240.36H328.808V216.04H324.808ZM324.808 240.36C324.808 242.511 325.54 244.498 327.472 245.612L329.471 242.148C329.184 241.982 328.808 241.623 328.808 240.36H324.808ZM329.468 242.146L323.9 238.946L321.907 242.414L327.475 245.614L329.468 242.146ZM323.903 238.948C323.616 238.782 323.24 238.423 323.24 237.16H319.24C319.24 239.311 319.972 241.298 321.904 242.412L323.903 238.948ZM323.24 237.16V212.84H319.24V237.16H323.24ZM323.24 212.84C323.24 211.989 323.428 211.054 323.856 210.021L320.16 208.491C319.563 209.932 319.24 211.387 319.24 212.84H323.24ZM323.865 209.999C324.304 208.9 324.888 207.897 325.617 206.985L322.494 204.487C321.517 205.708 320.735 207.052 320.151 208.513L323.865 209.999ZM325.641 206.955C326.369 206.009 327.093 205.376 327.792 204.981L325.823 201.499C324.56 202.213 323.449 203.245 322.47 204.517L325.641 206.955ZM327.808 204.972L338.88 198.572L336.879 195.108L325.807 201.508L327.808 204.972ZM338.872 198.576C339.988 197.939 340.498 198.087 340.784 198.252L342.783 194.788C340.851 193.673 338.758 194.034 336.887 195.104L338.872 198.576ZM340.778 198.249L346.282 201.449L348.293 197.991L342.789 194.791L340.778 198.249ZM360.058 209.64L359.061 207.906L358.058 208.483V209.64H360.058ZM365.626 206.44H367.626V202.984L364.629 204.706L365.626 206.44ZM366.394 209.256L368.242 210.021L368.246 210.01L368.25 209.999L366.394 209.256ZM368.378 205.736L366.792 204.517L366.785 204.526L368.378 205.736ZM371.13 203.24L372.114 204.981L372.121 204.977L372.129 204.972L371.13 203.24ZM372.794 202.28L371.801 200.543L371.794 200.548L372.794 202.28ZM379.13 201.896L380.978 202.661L380.982 202.65L380.987 202.639L379.13 201.896ZM381.114 198.376L379.528 197.157L379.521 197.166L381.114 198.376ZM383.866 195.88L384.85 197.621L384.857 197.617L384.865 197.612L383.866 195.88ZM385.53 194.92L384.537 193.183L384.53 193.188L385.53 194.92ZM389.434 194.6L390.433 192.868L389.434 194.6ZM391.098 226.28L392.094 228.014L393.098 227.437V226.28H391.098ZM385.53 229.48H383.53V232.936L386.526 231.214L385.53 229.48ZM385.53 201.32H387.53V197.847L384.526 199.59L385.53 201.32ZM378.362 205.48L377.358 203.75L376.362 204.328V205.48H378.362ZM378.362 233.64L379.358 235.374L380.362 234.797V233.64H378.362ZM372.794 236.84H370.794V240.296L373.79 238.574L372.794 236.84ZM372.794 208.68H374.794V205.207L371.79 206.95L372.794 208.68ZM365.626 212.84L364.622 211.11L363.626 211.688V212.84H365.626ZM365.626 241L366.622 242.734L367.626 242.157V241H365.626ZM360.058 244.2H358.058V247.656L361.054 245.934L360.058 244.2ZM385.53 201.32H387.53V200.169L386.535 199.591L385.53 201.32ZM385.53 229.48L384.524 231.209L387.53 232.956V229.48H385.53ZM380.026 226.28H378.026V227.431L379.02 228.009L380.026 226.28ZM380.026 198.12L381.031 196.391L378.026 194.644V198.12H380.026ZM372.794 208.68H374.794V207.523L373.79 206.946L372.794 208.68ZM372.794 236.84L371.797 238.574L374.794 240.296V236.84H372.794ZM367.226 233.64H365.226V234.797L366.229 235.374L367.226 233.64ZM367.226 205.48L368.222 203.746L365.226 202.024V205.48H367.226ZM389.434 194.6L388.437 196.334L390.433 192.868L389.434 194.6ZM385.53 194.92L384.537 193.183L384.53 193.188L385.53 194.92ZM383.866 195.88L384.85 197.621L384.857 197.617L384.865 197.612L383.866 195.88ZM381.114 198.376L379.528 197.157L379.521 197.166L381.114 198.376ZM379.13 201.896L380.978 202.661L380.982 202.65L380.987 202.639L379.13 201.896ZM378.362 205.48L377.365 207.214L380.362 208.936V205.48H378.362ZM372.794 202.28H370.794V203.437L371.797 204.014L372.794 202.28ZM373.562 198.696L375.41 199.461L375.414 199.45L375.419 199.439L373.562 198.696ZM375.61 195.176L377.171 196.425L377.183 196.411L377.195 196.395L375.61 195.176ZM378.362 192.68L379.346 194.421L379.353 194.417L379.361 194.412L378.362 192.68ZM380.026 191.72L381.025 193.452L381.032 193.448L381.04 193.444L380.026 191.72ZM383.866 191.4L382.866 193.132L382.869 193.134L383.866 191.4ZM360.058 209.64H362.058V208.483L361.054 207.906L360.058 209.64ZM360.058 244.2L359.061 245.934L362.058 247.656V244.2H360.058ZM354.49 241H352.49V242.157L353.493 242.734L354.49 241ZM354.49 206.44L355.486 204.706L352.49 202.984V206.44H354.49ZM376.698 201.96L375.701 203.694L377.697 200.228L376.698 201.96ZM372.794 202.28L371.801 200.543L371.794 200.548L372.794 202.28ZM371.13 203.24L372.114 204.981L372.121 204.977L372.129 204.972L371.13 203.24ZM368.378 205.736L366.792 204.517L366.785 204.526L368.378 205.736ZM366.394 209.256L368.242 210.021L368.246 210.01L368.25 209.999L366.394 209.256ZM365.626 212.84L364.629 214.574L367.626 216.296V212.84H365.626ZM360.058 209.64H358.058V210.797L359.061 211.374L360.058 209.64ZM360.826 206.056L362.674 206.821L362.678 206.81L362.682 206.799L360.826 206.056ZM362.874 202.536L364.435 203.785L364.447 203.771L364.459 203.755L362.874 202.536ZM365.626 200.04L366.61 201.781L366.632 201.768L366.655 201.755L365.626 200.04ZM367.226 199.08L366.233 197.344L366.215 197.354L366.197 197.365L367.226 199.08ZM371.13 198.76L370.13 200.492L370.133 200.494L371.13 198.76ZM365.626 206.44L366.622 208.174L369.639 206.44L366.622 204.706L365.626 206.44ZM360.058 209.64L359.061 211.374L360.058 211.947L361.054 211.374L360.058 209.64ZM354.49 206.44L353.493 204.706L350.476 206.44L353.493 208.174L354.49 206.44ZM360.058 203.24L361.054 201.506L360.058 200.933L359.061 201.506L360.058 203.24ZM361.054 211.374L366.622 208.174L364.629 204.706L359.061 207.906L361.054 211.374ZM363.626 206.44V212.84H367.626V206.44H363.626ZM367.626 212.84C367.626 211.989 367.814 211.054 368.242 210.021L364.546 208.491C363.949 209.932 363.626 211.387 363.626 212.84H367.626ZM368.25 209.999C368.698 208.881 369.271 207.866 369.97 206.946L366.785 204.526C365.863 205.74 365.113 207.071 364.537 208.513L368.25 209.999ZM369.963 206.955C370.691 206.009 371.415 205.376 372.114 204.981L370.145 201.499C368.882 202.213 367.771 203.245 366.792 204.517L369.963 206.955ZM372.129 204.972L373.793 204.012L371.794 200.548L370.13 201.508L372.129 204.972ZM373.786 204.016C374.902 203.379 375.411 203.527 375.698 203.692L377.697 200.228C375.765 199.113 373.672 199.474 371.801 200.544L373.786 204.016ZM375.698 203.692C375.985 203.858 376.362 204.217 376.362 205.48H380.362C380.362 203.329 379.629 201.342 377.697 200.228L375.698 203.692ZM380.362 205.48C380.362 204.629 380.55 203.694 380.978 202.661L377.282 201.131C376.685 202.572 376.362 204.027 376.362 205.48H380.362ZM380.987 202.639C381.434 201.521 382.007 200.506 382.706 199.586L379.521 197.166C378.599 198.38 377.849 199.711 377.273 201.153L380.987 202.639ZM382.699 199.595C383.427 198.649 384.151 198.016 384.85 197.621L382.881 194.139C381.618 194.853 380.507 195.885 379.528 197.157L382.699 199.595ZM384.865 197.612L386.529 196.652L384.53 193.188L382.866 194.148L384.865 197.612ZM386.522 196.656C387.638 196.019 388.148 196.167 388.434 196.332L390.433 192.868C388.501 191.753 386.408 192.114 384.537 193.184L386.522 196.656ZM388.434 196.332C388.721 196.498 389.098 196.857 389.098 198.12H393.098C393.098 195.969 392.365 193.982 390.433 192.868L388.434 196.332ZM389.098 198.12V226.28H393.098V198.12H389.098ZM390.101 224.546L384.533 227.746L386.526 231.214L392.094 228.014L390.101 224.546ZM387.53 229.48V201.32H383.53V229.48H387.53ZM384.526 199.59L377.358 203.75L379.365 207.21L386.533 203.05L384.526 199.59ZM376.362 205.48V233.64H380.362V205.48H376.362ZM377.365 231.906L371.797 235.106L373.79 238.574L379.358 235.374L377.365 231.906ZM374.794 236.84V208.68H370.794V236.84H374.794ZM371.79 206.95L364.622 211.11L366.629 214.57L373.797 210.41L371.79 206.95ZM363.626 212.84V241H367.626V212.84H363.626ZM364.629 239.266L359.061 242.466L361.054 245.934L366.622 242.734L364.629 239.266ZM362.058 244.2V209.64H358.058V244.2H362.058ZM383.53 201.32V229.48H387.53V201.32H383.53ZM386.535 227.751L381.031 224.551L379.02 228.009L384.524 231.209L386.535 227.751ZM382.026 226.28V198.12H378.026V226.28H382.026ZM379.02 199.849L384.524 203.049L386.535 199.591L381.031 196.391L379.02 199.849ZM370.794 208.68V236.84H374.794V208.68H370.794ZM373.79 235.106L368.222 231.906L366.229 235.374L371.797 238.574L373.79 235.106ZM369.226 233.64V205.48H365.226V233.64H369.226ZM366.229 207.214L371.797 210.414L373.79 206.946L368.222 203.746L366.229 207.214ZM390.433 192.868C388.501 191.753 386.408 192.114 384.537 193.184L386.522 196.656C387.638 196.019 388.148 196.167 388.434 196.332L390.433 192.868ZM384.53 193.188L382.866 194.148L384.865 197.612L386.529 196.652L384.53 193.188ZM382.881 194.139C381.618 194.853 380.507 195.885 379.528 197.157L382.699 199.595C383.427 198.649 384.151 198.016 384.85 197.621L382.881 194.139ZM379.521 197.166C378.599 198.38 377.849 199.711 377.273 201.153L380.987 202.639C381.434 201.521 382.007 200.506 382.706 199.586L379.521 197.166ZM377.282 201.131C376.685 202.572 376.362 204.027 376.362 205.48H380.362C380.362 204.629 380.55 203.694 380.978 202.661L377.282 201.131ZM379.358 203.746L373.79 200.546L371.797 204.014L377.365 207.214L379.358 203.746ZM374.794 202.28C374.794 201.429 374.982 200.494 375.41 199.461L371.714 197.931C371.117 199.372 370.794 200.827 370.794 202.28H374.794ZM375.419 199.439C375.858 198.34 376.442 197.337 377.171 196.425L374.048 193.927C373.071 195.148 372.289 196.492 371.705 197.953L375.419 199.439ZM377.195 196.395C377.923 195.449 378.647 194.816 379.346 194.421L377.377 190.939C376.114 191.653 375.003 192.685 374.024 193.957L377.195 196.395ZM379.361 194.412L381.025 193.452L379.026 189.988L377.362 190.948L379.361 194.412ZM381.04 193.444C382.094 192.824 382.577 192.966 382.866 193.132L384.865 189.668C382.935 188.554 380.859 188.909 379.012 189.996L381.04 193.444ZM382.869 193.134L388.437 196.334L390.43 192.866L384.862 189.666L382.869 193.134ZM358.058 209.64V244.2H362.058V209.64H358.058ZM361.054 242.466L355.486 239.266L353.493 242.734L359.061 245.934L361.054 242.466ZM356.49 241V206.44H352.49V241H356.49ZM353.493 208.174L359.061 211.374L361.054 207.906L355.486 204.706L353.493 208.174ZM377.697 200.228C375.765 199.113 373.672 199.474 371.801 200.544L373.786 204.016C374.902 203.379 375.411 203.527 375.698 203.692L377.697 200.228ZM371.794 200.548L370.13 201.508L372.129 204.972L373.793 204.012L371.794 200.548ZM370.145 201.499C368.882 202.213 367.771 203.245 366.792 204.517L369.963 206.955C370.691 206.009 371.415 205.376 372.114 204.981L370.145 201.499ZM366.785 204.526C365.863 205.74 365.113 207.071 364.537 208.513L368.25 209.999C368.698 208.881 369.271 207.866 369.97 206.946L366.785 204.526ZM364.546 208.491C363.949 209.932 363.626 211.387 363.626 212.84H367.626C367.626 211.989 367.814 211.054 368.242 210.021L364.546 208.491ZM366.622 211.106L361.054 207.906L359.061 211.374L364.629 214.574L366.622 211.106ZM362.058 209.64C362.058 208.789 362.246 207.854 362.674 206.821L358.978 205.291C358.381 206.732 358.058 208.187 358.058 209.64H362.058ZM362.682 206.799C363.122 205.7 363.706 204.697 364.435 203.785L361.312 201.287C360.335 202.508 359.553 203.852 358.969 205.313L362.682 206.799ZM364.459 203.755C365.187 202.809 365.911 202.176 366.61 201.781L364.641 198.299C363.378 199.013 362.267 200.045 361.288 201.317L364.459 203.755ZM366.655 201.755L368.255 200.795L366.197 197.365L364.597 198.325L366.655 201.755ZM368.218 200.816C369.334 200.179 369.844 200.327 370.13 200.492L372.129 197.028C370.197 195.913 368.104 196.274 366.233 197.344L368.218 200.816ZM370.133 200.494L375.701 203.694L377.694 200.226L372.126 197.026L370.133 200.494ZM364.629 204.706L359.061 207.906L361.054 211.374L366.622 208.174L364.629 204.706ZM361.054 207.906L355.486 204.706L353.493 208.174L359.061 211.374L361.054 207.906ZM355.486 208.174L361.054 204.974L359.061 201.506L353.493 204.706L355.486 208.174ZM359.061 204.974L364.629 208.174L366.622 204.706L361.054 201.506L359.061 204.974Z" fill="black" mask="url(#path-50-outside-1_44_592)"/>
<path d="M251.55 6.25H239.05V12.5H214.05V56.25H201.55V68.75H214.05V93.75H276.55V68.75H289.05V56.25H276.55V12.5H251.55V6.25Z" fill="white"/>
<path fill-rule="evenodd" clip-rule="evenodd" d="M257.8 0H232.8V6.25H220.3V12.5H214.05V18.75H207.8V25H201.55V37.5H195.3V68.75H201.55V75H207.8V87.5H214.05V93.75H220.3V100H270.3V93.75H276.55V87.5H282.8V75H289.05V68.75H295.3V37.5H289.05V25H282.8V18.75H276.55V12.5H270.3V6.25H257.8V0ZM257.8 6.25V12.5H270.3V18.75H276.55V25H282.8V37.5H289.05V68.75H276.55V62.5H214.05V68.75H201.55V37.5H207.8V25H214.05V18.75H220.3V12.5H232.8V6.25H257.8ZM239.05 68.75H251.55V81.25H257.8V68.75H270.3V75H276.55V87.5H270.3V93.75H220.3V87.5H214.05V75H220.3V68.75H232.8V81.25H239.05V68.75Z" fill="black"/>
<path d="M232.8 6.25H239.05V18.75H232.8V25H220.3V12.5H232.8V6.25Z" fill="#4CFF75"/>
<path d="M257.8 12.5H270.3V25H257.8V18.75H251.55V6.25H257.8V12.5Z" fill="#4CFF75"/>
<path d="M220.3 31.25H214.05V25H207.8V37.5H201.55V56.25H214.05V50H220.3V31.25Z" fill="#4CFF75"/>
<path d="M270.3 31.25H276.55V25H282.8V37.5H289.05V56.25H276.55V50H270.3V31.25Z" fill="#4CFF75"/>
<path d="M257.8 37.5H264.05V56.25H257.8V62.5H232.8V56.25H226.55V37.5H232.8V31.25H257.8V37.5Z" fill="#4CFF75"/>
</svg>
