<svg width="1207" height="722" viewBox="0 0 1207 722" fill="none" xmlns="http://www.w3.org/2000/svg">
<rect x="15.5098" y="23.2773" width="1187.08" height="675.045" fill="#FCB5A8"/>
<path d="M1183.44 46.5548H1202.59V69.8322H1183.44V46.5548Z" fill="#FC8E2E"/>
<path d="M1145.15 23.2773H1183.44V69.8322H1145.15V23.2773Z" fill="#FC8E2E"/>
<rect x="1145.15" y="69.8325" width="57.4392" height="605.213" fill="#FC8E2E"/>
<rect x="34.6562" y="675.044" width="1148.78" height="23.2774" fill="#FC8E2E"/>
<rect x="15.5098" y="651.767" width="19.1464" height="23.2774" fill="#FC8E2E"/>
<rect x="15.5098" y="23.2773" width="1187.08" height="675.045" fill="#FCFCFC"/>
<path d="M1183.44 46.5548H1202.59V69.8322H1183.44V46.5548Z" fill="#93FCEE"/>
<path d="M1145.15 23.2773H1183.44V69.8322H1145.15V23.2773Z" fill="#93FCEE"/>
<rect x="1145.15" y="69.8325" width="57.4392" height="605.213" fill="#93FCEE"/>
<rect x="34.6562" y="675.044" width="1148.78" height="23.2774" fill="#93FCEE"/>
<rect x="15.5098" y="651.767" width="19.1464" height="23.2774" fill="#93FCEE"/>
<rect x="15.5098" y="23.2773" width="1187.08" height="675.045" fill="#9FE1FC"/>
<path d="M1183.44 46.5548H1202.59V69.8322H1183.44V46.5548Z" fill="#32B5FC"/>
<path d="M1145.15 23.2773H1183.44V69.8322H1145.15V23.2773Z" fill="#32B5FC"/>
<rect x="1145.15" y="69.8325" width="57.4392" height="605.213" fill="#32B5FC"/>
<rect x="34.6562" y="675.044" width="1148.78" height="23.2774" fill="#32B5FC"/>
<rect x="15.5098" y="651.767" width="19.1464" height="23.2774" fill="#32B5FC"/>
<path d="M1183.44 46.5548H1202.59V69.8322H1183.44V46.5548Z" fill="#32B5FC"/>
<path d="M1145.15 23.2773H1183.44V69.8322H1145.15V23.2773Z" fill="#32B5FC"/>
<rect x="1145.15" y="69.8325" width="57.4392" height="605.213" fill="#32B5FC"/>
<rect x="34.6562" y="675.044" width="1148.78" height="23.2774" fill="#32B5FC"/>
<rect x="15.5098" y="651.767" width="19.1464" height="23.2774" fill="#009F00"/>
<rect y="46.5552" width="19.1464" height="628.49" fill="black"/>
<rect x="1187.08" y="46.5552" width="19.1464" height="628.49" fill="black"/>
<rect x="38.293" width="1129.64" height="23.2774" fill="black"/>
<rect x="38.293" y="698.322" width="1129.64" height="23.2774" fill="black"/>
<path d="M1187.08 0V46.5548H1167.93V0L1187.08 0Z" fill="black"/>
<path d="M1206.22 23.2774V46.5548H1167.93V23.2774L1206.22 23.2774Z" fill="black"/>
<path d="M1187.08 721.6V675.045H1167.93V721.6H1187.08Z" fill="black"/>
<path d="M1206.22 698.322V675.045H1167.93V698.322H1206.22Z" fill="black"/>
<path d="M0 23.2774H38.2928V46.5548H0V23.2774Z" fill="black"/>
<path d="M19.1464 0H38.2928V46.5548H19.1464V0Z" fill="black"/>
<path d="M19.1464 721.6L19.1464 675.045H38.2928V721.6H19.1464Z" fill="black"/>
<path d="M0 698.322L0 675.045H38.2928V698.322H0Z" fill="black"/>
<rect opacity="0.12" x="15.5098" y="23.2773" width="1187.08" height="675.045" fill="#44E440"/>
</svg>
