<svg width="162" height="75" viewBox="0 0 162 75" fill="none" xmlns="http://www.w3.org/2000/svg">
<path d="M151.875 0H10.125V4.6875H0V70.3125H10.125V75H151.875V70.3125H162V4.6875H151.875V0Z" fill="black"/>
<path d="M148.375 4.6875H13.625V8.78906H4V66.2109H13.625V70.3125H148.375V66.2109H158V8.78906H148.375V4.6875Z" fill="#FFF587"/>
<path d="M60.7778 31.4444H62.5556V33.2222H60.7778V31.4444ZM60.7778 29.6667H62.5556V31.4444H60.7778V29.6667ZM60.7778 27.8889H62.5556V29.6667H60.7778V27.8889ZM62.5556 27.8889H64.3333V29.6667H62.5556V27.8889ZM62.5556 29.6667H64.3333V31.4444H62.5556V29.6667ZM64.3333 29.6667H66.1111V31.4444H64.3333V29.6667ZM64.3333 31.4444H66.1111V33.2222H64.3333V31.4444ZM62.5556 31.4444H64.3333V33.2222H62.5556V31.4444ZM64.3333 27.8889H66.1111V29.6667H64.3333V27.8889ZM66.1111 29.6667H67.8889V31.4444H66.1111V29.6667ZM64.3333 26.1111H66.1111V27.8889H64.3333V26.1111ZM62.5556 26.1111H64.3333V27.8889H62.5556V26.1111ZM64.3333 24.3333H66.1111V26.1111H64.3333V24.3333ZM66.1111 24.3333H67.8889V26.1111H66.1111V24.3333ZM67.8889 24.3333H69.6667V26.1111H67.8889V24.3333ZM69.6667 24.3333H71.4444V26.1111H69.6667V24.3333ZM71.4444 24.3333H73.2222V26.1111H71.4444V24.3333ZM73.2222 24.3333H75V26.1111H73.2222V24.3333ZM73.2222 26.1111H75V27.8889H73.2222V26.1111ZM75 26.1111H76.7778V27.8889H75V26.1111ZM71.4444 26.1111H73.2222V27.8889H71.4444V26.1111ZM69.6667 26.1111H71.4444V27.8889H69.6667V26.1111ZM67.8889 26.1111H69.6667V27.8889H67.8889V26.1111ZM66.1111 26.1111H67.8889V27.8889H66.1111V26.1111ZM66.1111 27.8889H67.8889V29.6667H66.1111V27.8889ZM67.8889 27.8889H69.6667V29.6667H67.8889V27.8889ZM69.6667 27.8889H71.4444V29.6667H69.6667V27.8889ZM71.4444 27.8889H73.2222V29.6667H71.4444V27.8889ZM73.2222 27.8889H75V29.6667H73.2222V27.8889ZM75 27.8889H76.7778V29.6667H75V27.8889ZM75 29.6667H76.7778V31.4444H75V29.6667ZM76.7778 29.6667H78.5556V31.4444H76.7778V29.6667ZM76.7778 27.8889H78.5556V29.6667H76.7778V27.8889ZM73.2222 29.6667H75V31.4444H73.2222V29.6667ZM71.4444 29.6667H73.2222V31.4444H71.4444V29.6667ZM75 31.4444H76.7778V33.2222H75V31.4444ZM73.2222 31.4444H75V33.2222H73.2222V31.4444ZM73.2222 33.2222H75V35H73.2222V33.2222ZM73.2222 35H75V36.7778H73.2222V35ZM75 35H76.7778V36.7778H75V35ZM75 33.2222H76.7778V35H75V33.2222ZM76.7778 33.2222H78.5556V35H76.7778V33.2222ZM76.7778 31.4444H78.5556V33.2222H76.7778V31.4444ZM76.7778 35H78.5556V36.7778H76.7778V35ZM71.4444 35H73.2222V36.7778H71.4444V35ZM73.2222 36.7778H75V38.5556H73.2222V36.7778ZM75 36.7778H76.7778V38.5556H75V36.7778ZM71.4444 36.7778H73.2222V38.5556H71.4444V36.7778ZM69.6667 36.7778H71.4444V38.5556H69.6667V36.7778ZM71.4444 38.5556H73.2222V40.3333H71.4444V38.5556ZM73.2222 38.5556H75V40.3333H73.2222V38.5556ZM71.4444 40.3333H73.2222V42.1111H71.4444V40.3333ZM69.6667 40.3333H71.4444V42.1111H69.6667V40.3333ZM67.8889 40.3333H69.6667V42.1111H67.8889V40.3333ZM67.8889 42.1111H69.6667V43.8889H67.8889V42.1111ZM69.6667 42.1111H71.4444V43.8889H69.6667V42.1111ZM69.6667 38.5556H71.4444V40.3333H69.6667V38.5556ZM67.8889 38.5556H69.6667V40.3333H67.8889V38.5556ZM66.1111 40.3333H67.8889V42.1111H66.1111V40.3333ZM66.1111 42.1111H67.8889V43.8889H66.1111V42.1111ZM64.3333 42.1111H66.1111V43.8889H64.3333V42.1111ZM64.3333 43.8889H66.1111V45.6667H64.3333V43.8889ZM66.1111 43.8889H67.8889V45.6667H66.1111V43.8889ZM67.8889 43.8889H69.6667V45.6667H67.8889V43.8889ZM62.5556 43.8889H64.3333V45.6667H62.5556V43.8889ZM62.5556 45.6667H64.3333V47.4444H62.5556V45.6667ZM60.7778 45.6667H62.5556V47.4444H60.7778V45.6667ZM60.7778 47.4444H62.5556V49.2222H60.7778V47.4444ZM62.5556 47.4444H64.3333V49.2222H62.5556V47.4444ZM62.5556 49.2222H64.3333V51H62.5556V49.2222ZM64.3333 49.2222H66.1111V51H64.3333V49.2222ZM66.1111 49.2222H67.8889V51H66.1111V49.2222ZM67.8889 49.2222H69.6667V51H67.8889V49.2222ZM60.7778 49.2222H62.5556V51H60.7778V49.2222ZM76.7778 45.6667H78.5556V47.4444H76.7778V45.6667ZM75 45.6667H76.7778V47.4444H75V45.6667ZM73.2222 45.6667H75V47.4444H73.2222V45.6667ZM71.4444 45.6667H73.2222V47.4444H71.4444V45.6667ZM67.8889 45.6667H69.6667V47.4444H67.8889V45.6667ZM66.1111 45.6667H67.8889V47.4444H66.1111V45.6667ZM64.3333 45.6667H66.1111V47.4444H64.3333V45.6667ZM64.3333 47.4444H66.1111V49.2222H64.3333V47.4444ZM66.1111 47.4444H67.8889V49.2222H66.1111V47.4444ZM67.8889 47.4444H69.6667V49.2222H67.8889V47.4444ZM69.6667 47.4444H71.4444V49.2222H69.6667V47.4444ZM71.4444 47.4444H73.2222V49.2222H71.4444V47.4444ZM69.6667 45.6667H71.4444V47.4444H69.6667V45.6667ZM76.7778 47.4444H78.5556V49.2222H76.7778V47.4444ZM75 47.4444H76.7778V49.2222H75V47.4444ZM73.2222 47.4444H75V49.2222H73.2222V47.4444ZM69.6667 49.2222H71.4444V51H69.6667V49.2222ZM71.4444 49.2222H73.2222V51H71.4444V49.2222ZM73.2222 49.2222H75V51H73.2222V49.2222ZM75 49.2222H76.7778V51H75V49.2222ZM76.7778 49.2222H78.5556V51H76.7778V49.2222ZM82.1059 24.3333H83.8837V26.1111H82.1059V24.3333ZM83.8837 24.3333H85.6615V26.1111H83.8837V24.3333ZM85.6615 24.3333H87.4392V26.1111H85.6615V24.3333ZM87.4392 24.3333H89.217V26.1111H87.4392V24.3333ZM89.217 24.3333H90.9948V26.1111H89.217V24.3333ZM90.9948 24.3333H92.7726V26.1111H90.9948V24.3333ZM92.7726 24.3333H94.5503V26.1111H92.7726V24.3333ZM94.5503 24.3333H96.3281V26.1111H94.5503V24.3333ZM94.5503 26.1111H96.3281V27.8889H94.5503V26.1111ZM96.3281 26.1111H98.1059V27.8889H96.3281V26.1111ZM92.7726 26.1111H94.5503V27.8889H92.7726V26.1111ZM90.9948 26.1111H92.7726V27.8889H90.9948V26.1111ZM89.217 26.1111H90.9948V27.8889H89.217V26.1111ZM87.4392 26.1111H89.217V27.8889H87.4392V26.1111ZM85.6615 26.1111H87.4392V27.8889H85.6615V26.1111ZM83.8837 26.1111H85.6615V27.8889H83.8837V26.1111ZM82.1059 26.1111H83.8837V27.8889H82.1059V26.1111ZM82.1059 27.8889H83.8837V29.6667H82.1059V27.8889ZM83.8837 27.8889H85.6615V29.6667H83.8837V27.8889ZM85.6615 27.8889H87.4392V29.6667H85.6615V27.8889ZM87.4392 27.8889H89.217V29.6667H87.4392V27.8889ZM90.9948 27.8889H92.7726V29.6667H90.9948V27.8889ZM92.7726 27.8889H94.5503V29.6667H92.7726V27.8889ZM94.5503 27.8889H96.3281V29.6667H94.5503V27.8889ZM96.3281 27.8889H98.1059V29.6667H96.3281V27.8889ZM98.1059 27.8889H99.8837V29.6667H98.1059V27.8889ZM89.217 27.8889H90.9948V29.6667H89.217V27.8889ZM92.7726 29.6667H94.5503V31.4444H92.7726V29.6667ZM94.5503 29.6667H96.3281V31.4444H94.5503V29.6667ZM98.1059 29.6667H99.8837V31.4444H98.1059V29.6667ZM96.3281 29.6667H98.1059V31.4444H96.3281V29.6667ZM96.3281 31.4444H98.1059V33.2222H96.3281V31.4444ZM96.3281 35H98.1059V36.7778H96.3281V35ZM98.1059 35H99.8837V36.7778H98.1059V35ZM98.1059 36.7778H99.8837V38.5556H98.1059V36.7778ZM98.1059 31.4444H99.8837V33.2222H98.1059V31.4444ZM94.5503 35H96.3281V36.7778H94.5503V35ZM94.5503 31.4444H96.3281V33.2222H94.5503V31.4444ZM92.7726 35H94.5503V36.7778H92.7726V35ZM94.5503 36.7778H96.3281V38.5556H94.5503V36.7778ZM96.3281 36.7778H98.1059V38.5556H96.3281V36.7778ZM96.3281 38.5556H98.1059V40.3333H96.3281V38.5556ZM92.7726 40.3333H94.5503V42.1111H92.7726V40.3333ZM94.5503 40.3333H96.3281V42.1111H94.5503V40.3333ZM94.5503 38.5556H96.3281V40.3333H94.5503V38.5556ZM92.7726 38.5556H94.5503V40.3333H92.7726V38.5556ZM92.7726 36.7778H94.5503V38.5556H92.7726V36.7778ZM90.9948 40.3333H92.7726V42.1111H90.9948V40.3333ZM89.217 40.3333H90.9948V42.1111H89.217V40.3333ZM87.4392 40.3333H89.217V42.1111H87.4392V40.3333ZM87.4392 38.5556H89.217V40.3333H87.4392V38.5556ZM89.217 38.5556H90.9948V40.3333H89.217V38.5556ZM89.217 36.7778H90.9948V38.5556H89.217V36.7778ZM90.9948 36.7778H92.7726V38.5556H90.9948V36.7778ZM87.4392 36.7778H89.217V38.5556H87.4392V36.7778ZM90.9948 38.5556H92.7726V40.3333H90.9948V38.5556ZM83.8837 29.6667H85.6615V31.4444H83.8837V29.6667ZM85.6615 29.6667H87.4392V31.4444H85.6615V29.6667ZM85.6615 31.4444H87.4392V33.2222H85.6615V31.4444ZM85.6615 33.2222H87.4392V35H85.6615V33.2222ZM85.6615 35H87.4392V36.7778H85.6615V35ZM83.8837 35H85.6615V36.7778H83.8837V35ZM82.1059 35H83.8837V36.7778H82.1059V35ZM82.1059 33.2222H83.8837V35H82.1059V33.2222ZM82.1059 31.4444H83.8837V33.2222H82.1059V31.4444ZM82.1059 29.6667H83.8837V31.4444H82.1059V29.6667ZM83.8837 33.2222H85.6615V35H83.8837V33.2222ZM83.8837 36.7778H85.6615V38.5556H83.8837V36.7778ZM83.8837 31.4444H85.6615V33.2222H83.8837V31.4444ZM82.1059 36.7778H83.8837V38.5556H82.1059V36.7778ZM82.1059 38.5556H83.8837V40.3333H82.1059V38.5556ZM83.8837 38.5556H85.6615V40.3333H83.8837V38.5556ZM85.6615 36.7778H87.4392V38.5556H85.6615V36.7778ZM85.6615 38.5556H87.4392V40.3333H85.6615V38.5556ZM85.6615 40.3333H87.4392V42.1111H85.6615V40.3333ZM85.6615 42.1111H87.4392V43.8889H85.6615V42.1111ZM85.6615 43.8889H87.4392V45.6667H85.6615V43.8889ZM85.6615 45.6667H87.4392V47.4444H85.6615V45.6667ZM85.6615 49.2222H87.4392V51H85.6615V49.2222ZM83.8837 49.2222H85.6615V51H83.8837V49.2222ZM82.1059 49.2222H83.8837V51H82.1059V49.2222ZM82.1059 47.4444H83.8837V49.2222H82.1059V47.4444ZM82.1059 45.6667H83.8837V47.4444H82.1059V45.6667ZM82.1059 43.8889H83.8837V45.6667H82.1059V43.8889ZM82.1059 42.1111H83.8837V43.8889H82.1059V42.1111ZM82.1059 40.3333H83.8837V42.1111H82.1059V40.3333ZM83.8837 40.3333H85.6615V42.1111H83.8837V40.3333ZM83.8837 42.1111H85.6615V43.8889H83.8837V42.1111ZM83.8837 43.8889H85.6615V45.6667H83.8837V43.8889ZM83.8837 45.6667H85.6615V47.4444H83.8837V45.6667ZM83.8837 47.4444H85.6615V49.2222H83.8837V47.4444ZM85.6615 47.4444H87.4392V49.2222H85.6615V47.4444ZM98.1059 33.2222H99.8837V35H98.1059V33.2222ZM96.3281 33.2222H98.1059V35H96.3281V33.2222ZM94.5503 33.2222H96.3281V35H94.5503V33.2222Z" fill="black"/>
</svg>
