<svg width="162" height="75" viewBox="0 0 162 75" fill="none" xmlns="http://www.w3.org/2000/svg">
<path d="M151.875 0H10.125V4.6875H0V70.3125H10.125V75H151.875V70.3125H162V4.6875H151.875V0Z" fill="black"/>
<path d="M148.375 4.6875H13.625V8.78906H4V66.2109H13.625V70.3125H148.375V66.2109H158V8.78906H148.375V4.6875Z" fill="#FFF587"/>
<path d="M73.2222 24.3333H75V26.1111H73.2222V24.3333ZM71.4444 24.3333H73.2222V26.1111H71.4444V24.3333ZM71.4444 26.1111H73.2222V27.8889H71.4444V26.1111ZM73.2222 26.1111H75V27.8889H73.2222V26.1111ZM75 26.1111H76.7778V27.8889H75V26.1111ZM75 27.8889H76.7778V29.6667H75V27.8889ZM75 29.6667H76.7778V31.4444H75V29.6667ZM75 31.4444H76.7778V33.2222H75V31.4444ZM75 24.3333H76.7778V26.1111H75V24.3333ZM69.6667 26.1111H71.4444V27.8889H69.6667V26.1111ZM69.6667 27.8889H71.4444V29.6667H69.6667V27.8889ZM69.6667 29.6667H71.4444V31.4444H69.6667V29.6667ZM67.8889 27.8889H69.6667V29.6667H67.8889V27.8889ZM67.8889 29.6667H69.6667V31.4444H67.8889V29.6667ZM66.1111 29.6667H67.8889V31.4444H66.1111V29.6667ZM71.4444 29.6667H73.2222V31.4444H71.4444V29.6667ZM73.2222 29.6667H75V31.4444H73.2222V29.6667ZM73.2222 27.8889H75V29.6667H73.2222V27.8889ZM71.4444 27.8889H73.2222V29.6667H71.4444V27.8889ZM69.6667 31.4444H71.4444V33.2222H69.6667V31.4444ZM67.8889 31.4444H69.6667V33.2222H67.8889V31.4444ZM66.1111 31.4444H67.8889V33.2222H66.1111V31.4444ZM64.3333 31.4444H66.1111V33.2222H64.3333V31.4444ZM71.4444 31.4444H73.2222V33.2222H71.4444V31.4444ZM73.2222 31.4444H75V33.2222H73.2222V31.4444ZM75 33.2222H76.7778V35H75V33.2222ZM75 35H76.7778V36.7778H75V35ZM75 36.7778H76.7778V38.5556H75V36.7778ZM73.2222 36.7778H75V38.5556H73.2222V36.7778ZM73.2222 38.5556H75V40.3333H73.2222V38.5556ZM73.2222 35H75V36.7778H73.2222V35ZM71.4444 35H73.2222V36.7778H71.4444V35ZM71.4444 33.2222H73.2222V35H71.4444V33.2222ZM71.4444 36.7778H73.2222V38.5556H71.4444V36.7778ZM71.4444 38.5556H73.2222V40.3333H71.4444V38.5556ZM73.2222 40.3333H75V42.1111H73.2222V40.3333ZM75 38.5556H76.7778V40.3333H75V38.5556ZM73.2222 33.2222H75V35H73.2222V33.2222ZM75 40.3333H76.7778V42.1111H75V40.3333ZM75 42.1111H76.7778V43.8889H75V42.1111ZM75 43.8889H76.7778V45.6667H75V43.8889ZM75 45.6667H76.7778V47.4444H75V45.6667ZM75 47.4444H76.7778V49.2222H75V47.4444ZM73.2222 47.4444H75V49.2222H73.2222V47.4444ZM71.4444 47.4444H73.2222V49.2222H71.4444V47.4444ZM71.4444 49.2222H73.2222V51H71.4444V49.2222ZM73.2222 49.2222H75V51H73.2222V49.2222ZM75 49.2222H76.7778V51H75V49.2222ZM73.2222 45.6667H75V47.4444H73.2222V45.6667ZM71.4444 45.6667H73.2222V47.4444H71.4444V45.6667ZM71.4444 43.8889H73.2222V45.6667H71.4444V43.8889ZM73.2222 43.8889H75V45.6667H73.2222V43.8889ZM73.2222 42.1111H75V43.8889H73.2222V42.1111ZM71.4444 40.3333H73.2222V42.1111H71.4444V40.3333ZM71.4444 42.1111H73.2222V43.8889H71.4444V42.1111ZM69.6667 42.1111H71.4444V43.8889H69.6667V42.1111ZM67.8889 42.1111H69.6667V43.8889H67.8889V42.1111ZM66.1111 42.1111H67.8889V43.8889H66.1111V42.1111ZM64.3333 42.1111H66.1111V43.8889H64.3333V42.1111ZM62.5556 42.1111H64.3333V43.8889H62.5556V42.1111ZM62.5556 43.8889H64.3333V45.6667H62.5556V43.8889ZM60.7778 43.8889H62.5556V45.6667H60.7778V43.8889ZM64.3333 43.8889H66.1111V45.6667H64.3333V43.8889ZM66.1111 43.8889H67.8889V45.6667H66.1111V43.8889ZM67.8889 43.8889H69.6667V45.6667H67.8889V43.8889ZM69.6667 43.8889H71.4444V45.6667H69.6667V43.8889ZM67.8889 40.3333H69.6667V42.1111H67.8889V40.3333ZM66.1111 40.3333H67.8889V42.1111H66.1111V40.3333ZM64.3333 40.3333H66.1111V42.1111H64.3333V40.3333ZM69.6667 40.3333H71.4444V42.1111H69.6667V40.3333ZM60.7778 42.1111H62.5556V43.8889H60.7778V42.1111ZM60.7778 40.3333H62.5556V42.1111H60.7778V40.3333ZM60.7778 38.5556H62.5556V40.3333H60.7778V38.5556ZM60.7778 36.7778H62.5556V38.5556H60.7778V36.7778ZM62.5556 36.7778H64.3333V38.5556H62.5556V36.7778ZM62.5556 38.5556H64.3333V40.3333H62.5556V38.5556ZM62.5556 40.3333H64.3333V42.1111H62.5556V40.3333ZM64.3333 38.5556H66.1111V40.3333H64.3333V38.5556ZM64.3333 36.7778H66.1111V38.5556H64.3333V36.7778ZM60.7778 35H62.5556V36.7778H60.7778V35ZM62.5556 35H64.3333V36.7778H62.5556V35ZM64.3333 35H66.1111V36.7778H64.3333V35ZM66.1111 35H67.8889V36.7778H66.1111V35ZM66.1111 33.2222H67.8889V35H66.1111V33.2222ZM67.8889 33.2222H69.6667V35H67.8889V33.2222ZM64.3333 33.2222H66.1111V35H64.3333V33.2222ZM62.5556 33.2222H64.3333V35H62.5556V33.2222ZM80.3247 24.3333H82.1024V26.1111H80.3247V24.3333ZM82.1024 24.3333H83.8802V26.1111H82.1024V24.3333ZM83.8802 24.3333H85.658V26.1111H83.8802V24.3333ZM85.658 24.3333H87.4358V26.1111H85.658V24.3333ZM87.4358 24.3333H89.2135V26.1111H87.4358V24.3333ZM89.2135 24.3333H90.9913V26.1111H89.2135V24.3333ZM90.9913 24.3333H92.7691V26.1111H90.9913V24.3333ZM92.7691 24.3333H94.5469V26.1111H92.7691V24.3333ZM92.7691 26.1111H94.5469V27.8889H92.7691V26.1111ZM94.5469 26.1111H96.3247V27.8889H94.5469V26.1111ZM90.9913 26.1111H92.7691V27.8889H90.9913V26.1111ZM89.2135 26.1111H90.9913V27.8889H89.2135V26.1111ZM87.4358 26.1111H89.2135V27.8889H87.4358V26.1111ZM85.658 26.1111H87.4358V27.8889H85.658V26.1111ZM83.8802 26.1111H85.658V27.8889H83.8802V26.1111ZM82.1024 26.1111H83.8802V27.8889H82.1024V26.1111ZM80.3247 26.1111H82.1024V27.8889H80.3247V26.1111ZM80.3247 27.8889H82.1024V29.6667H80.3247V27.8889ZM82.1024 27.8889H83.8802V29.6667H82.1024V27.8889ZM83.8802 27.8889H85.658V29.6667H83.8802V27.8889ZM85.658 27.8889H87.4358V29.6667H85.658V27.8889ZM89.2135 27.8889H90.9913V29.6667H89.2135V27.8889ZM90.9913 27.8889H92.7691V29.6667H90.9913V27.8889ZM92.7691 27.8889H94.5469V29.6667H92.7691V27.8889ZM94.5469 27.8889H96.3247V29.6667H94.5469V27.8889ZM96.3247 27.8889H98.1024V29.6667H96.3247V27.8889ZM87.4358 27.8889H89.2135V29.6667H87.4358V27.8889ZM90.9913 29.6667H92.7691V31.4444H90.9913V29.6667ZM92.7691 29.6667H94.5469V31.4444H92.7691V29.6667ZM96.3247 29.6667H98.1024V31.4444H96.3247V29.6667ZM94.5469 29.6667H96.3247V31.4444H94.5469V29.6667ZM94.5469 31.4444H96.3247V33.2222H94.5469V31.4444ZM94.5469 35H96.3247V36.7778H94.5469V35ZM96.3247 35H98.1024V36.7778H96.3247V35ZM96.3247 36.7778H98.1024V38.5556H96.3247V36.7778ZM96.3247 31.4444H98.1024V33.2222H96.3247V31.4444ZM92.7691 35H94.5469V36.7778H92.7691V35ZM92.7691 31.4444H94.5469V33.2222H92.7691V31.4444ZM90.9913 35H92.7691V36.7778H90.9913V35ZM92.7691 36.7778H94.5469V38.5556H92.7691V36.7778ZM94.5469 36.7778H96.3247V38.5556H94.5469V36.7778ZM94.5469 38.5556H96.3247V40.3333H94.5469V38.5556ZM90.9913 40.3333H92.7691V42.1111H90.9913V40.3333ZM92.7691 40.3333H94.5469V42.1111H92.7691V40.3333ZM92.7691 38.5556H94.5469V40.3333H92.7691V38.5556ZM90.9913 38.5556H92.7691V40.3333H90.9913V38.5556ZM90.9913 36.7778H92.7691V38.5556H90.9913V36.7778ZM89.2135 40.3333H90.9913V42.1111H89.2135V40.3333ZM87.4358 40.3333H89.2135V42.1111H87.4358V40.3333ZM85.658 40.3333H87.4358V42.1111H85.658V40.3333ZM85.658 38.5556H87.4358V40.3333H85.658V38.5556ZM87.4358 38.5556H89.2135V40.3333H87.4358V38.5556ZM87.4358 36.7778H89.2135V38.5556H87.4358V36.7778ZM89.2135 36.7778H90.9913V38.5556H89.2135V36.7778ZM85.658 36.7778H87.4358V38.5556H85.658V36.7778ZM89.2135 38.5556H90.9913V40.3333H89.2135V38.5556ZM82.1024 29.6667H83.8802V31.4444H82.1024V29.6667ZM83.8802 29.6667H85.658V31.4444H83.8802V29.6667ZM83.8802 31.4444H85.658V33.2222H83.8802V31.4444ZM83.8802 33.2222H85.658V35H83.8802V33.2222ZM83.8802 35H85.658V36.7778H83.8802V35ZM82.1024 35H83.8802V36.7778H82.1024V35ZM80.3247 35H82.1024V36.7778H80.3247V35ZM80.3247 33.2222H82.1024V35H80.3247V33.2222ZM80.3247 31.4444H82.1024V33.2222H80.3247V31.4444ZM80.3247 29.6667H82.1024V31.4444H80.3247V29.6667ZM82.1024 33.2222H83.8802V35H82.1024V33.2222ZM82.1024 36.7778H83.8802V38.5556H82.1024V36.7778ZM82.1024 31.4444H83.8802V33.2222H82.1024V31.4444ZM80.3247 36.7778H82.1024V38.5556H80.3247V36.7778ZM80.3247 38.5556H82.1024V40.3333H80.3247V38.5556ZM82.1024 38.5556H83.8802V40.3333H82.1024V38.5556ZM83.8802 36.7778H85.658V38.5556H83.8802V36.7778ZM83.8802 38.5556H85.658V40.3333H83.8802V38.5556ZM83.8802 40.3333H85.658V42.1111H83.8802V40.3333ZM83.8802 42.1111H85.658V43.8889H83.8802V42.1111ZM83.8802 43.8889H85.658V45.6667H83.8802V43.8889ZM83.8802 45.6667H85.658V47.4444H83.8802V45.6667ZM83.8802 49.2222H85.658V51H83.8802V49.2222ZM82.1024 49.2222H83.8802V51H82.1024V49.2222ZM80.3247 49.2222H82.1024V51H80.3247V49.2222ZM80.3247 47.4444H82.1024V49.2222H80.3247V47.4444ZM80.3247 45.6667H82.1024V47.4444H80.3247V45.6667ZM80.3247 43.8889H82.1024V45.6667H80.3247V43.8889ZM80.3247 42.1111H82.1024V43.8889H80.3247V42.1111ZM80.3247 40.3333H82.1024V42.1111H80.3247V40.3333ZM82.1024 40.3333H83.8802V42.1111H82.1024V40.3333ZM82.1024 42.1111H83.8802V43.8889H82.1024V42.1111ZM82.1024 43.8889H83.8802V45.6667H82.1024V43.8889ZM82.1024 45.6667H83.8802V47.4444H82.1024V45.6667ZM82.1024 47.4444H83.8802V49.2222H82.1024V47.4444ZM83.8802 47.4444H85.658V49.2222H83.8802V47.4444ZM96.3247 33.2222H98.1024V35H96.3247V33.2222ZM94.5469 33.2222H96.3247V35H94.5469V33.2222ZM92.7691 33.2222H94.5469V35H92.7691V33.2222Z" fill="black"/>
</svg>
