<svg width="75" height="40" viewBox="0 0 75 40" fill="none" xmlns="http://www.w3.org/2000/svg">
<path d="M70.3125 0H4.6875V2.5H0V37.5H4.6875V40H70.3125V37.5H75V2.5H70.3125V0Z" fill="#009F00"/>
<path d="M68.6918 2.5H6.30758V4.6875H1.85156V35.3125H6.30758V37.5H68.6918V35.3125H73.1479V4.6875H68.6918V2.5Z" fill="white"/>
<path d="M17.82 19.14L21.46 17.04C21.7773 16.8533 22.0573 16.83 22.3 16.97C22.5427 17.11 22.664 17.3667 22.664 17.74V24.46L21.46 25.16V23.76C21.46 24.0027 21.404 24.264 21.292 24.544C21.18 24.824 21.0307 25.0853 20.844 25.328C20.6573 25.5613 20.4567 25.7387 20.242 25.86L19.038 26.56C18.7113 26.7467 18.4267 26.77 18.184 26.63C17.9413 26.49 17.82 26.2333 17.82 25.86V23.9C17.82 23.648 17.876 23.3867 17.988 23.116C18.1 22.836 18.2493 22.5793 18.436 22.346C18.6227 22.1033 18.8233 21.9213 19.038 21.8L21.46 20.4V18.44L17.82 20.54V19.14ZM19.038 25.16L21.46 23.76V21.8L19.038 23.2V25.16ZM21.46 18.44V20.4L20.242 19.7V17.74L21.46 18.44ZM21.46 23.76V25.16L20.242 24.46V23.06L21.46 23.76ZM21.46 21.8V23.76L20.242 23.06V21.1L21.46 21.8ZM21.46 23.76L19.038 25.16L17.82 24.46L20.242 23.06L21.46 23.76ZM21.46 20.4L19.038 21.8C18.8233 21.9213 18.6227 22.1033 18.436 22.346C18.2493 22.5793 18.1 22.836 17.988 23.116C17.876 23.3867 17.82 23.648 17.82 23.9V25.86C17.82 26.2333 17.9413 26.49 18.184 26.63L16.966 25.93C16.7233 25.79 16.602 25.5333 16.602 25.16V23.2C16.602 22.948 16.658 22.6867 16.77 22.416C16.882 22.136 17.0313 21.8793 17.218 21.646C17.4047 21.4033 17.6053 21.2213 17.82 21.1L20.242 19.7L21.46 20.4ZM22.3 16.97C22.0573 16.83 21.7773 16.8533 21.46 17.04L17.82 19.14L16.602 18.44L20.242 16.34C20.5687 16.1533 20.8533 16.13 21.096 16.27L22.3 16.97ZM17.82 19.14V20.54L16.602 19.84V18.44L17.82 19.14ZM26.3114 18.44L28.7334 17.04C29.0508 16.8533 29.3308 16.83 29.5734 16.97C29.8161 17.11 29.9374 17.3667 29.9374 17.74V19.14L28.7334 19.84V18.44L26.3114 19.84V25.16L28.7334 23.76V22.36L29.9374 21.66V23.06C29.9374 23.3027 29.8814 23.564 29.7694 23.844C29.6574 24.124 29.5081 24.3853 29.3214 24.628C29.1441 24.8613 28.9481 25.0387 28.7334 25.16L26.3114 26.56C25.9848 26.7467 25.7001 26.77 25.4574 26.63C25.2148 26.49 25.0934 26.2333 25.0934 25.86V20.54C25.0934 20.288 25.1494 20.0267 25.2614 19.756C25.3734 19.476 25.5228 19.2193 25.7094 18.986C25.8961 18.7433 26.0968 18.5613 26.3114 18.44ZM29.9374 21.66L28.7334 22.36L27.5154 21.66L28.7334 20.96L29.9374 21.66ZM28.7334 22.36V23.76L27.5154 23.06V21.66L28.7334 22.36ZM28.7334 23.76L26.3114 25.16L25.0934 24.46L27.5154 23.06L28.7334 23.76ZM28.7334 18.44V19.84L27.5154 19.14V17.74L28.7334 18.44ZM29.5734 16.97C29.3308 16.83 29.0508 16.8533 28.7334 17.04L26.3114 18.44C26.0968 18.5613 25.8961 18.7433 25.7094 18.986C25.5228 19.2193 25.3734 19.476 25.2614 19.756C25.1494 20.0267 25.0934 20.288 25.0934 20.54V25.86C25.0934 26.2333 25.2148 26.49 25.4574 26.63L24.2394 25.93C23.9968 25.79 23.8754 25.5333 23.8754 25.16V19.84C23.8754 19.588 23.9314 19.3267 24.0434 19.056C24.1554 18.776 24.3048 18.5193 24.4914 18.286C24.6781 18.0433 24.8788 17.8613 25.0934 17.74L27.5154 16.34C27.8421 16.1533 28.1268 16.13 28.3694 16.27L29.5734 16.97ZM33.5849 18.44L36.0069 17.04C36.3242 16.8533 36.6042 16.83 36.8469 16.97C37.0895 17.11 37.2109 17.3667 37.2109 17.74V19.14L36.0069 19.84V18.44L33.5849 19.84V25.16L36.0069 23.76V22.36L37.2109 21.66V23.06C37.2109 23.3027 37.1549 23.564 37.0429 23.844C36.9309 24.124 36.7815 24.3853 36.5949 24.628C36.4175 24.8613 36.2215 25.0387 36.0069 25.16L33.5849 26.56C33.2582 26.7467 32.9735 26.77 32.7309 26.63C32.4882 26.49 32.3669 26.2333 32.3669 25.86V20.54C32.3669 20.288 32.4229 20.0267 32.5349 19.756C32.6469 19.476 32.7962 19.2193 32.9829 18.986C33.1695 18.7433 33.3702 18.5613 33.5849 18.44ZM37.2109 21.66L36.0069 22.36L34.7889 21.66L36.0069 20.96L37.2109 21.66ZM36.0069 22.36V23.76L34.7889 23.06V21.66L36.0069 22.36ZM36.0069 23.76L33.5849 25.16L32.3669 24.46L34.7889 23.06L36.0069 23.76ZM36.0069 18.44V19.84L34.7889 19.14V17.74L36.0069 18.44ZM36.8469 16.97C36.6042 16.83 36.3242 16.8533 36.0069 17.04L33.5849 18.44C33.3702 18.5613 33.1695 18.7433 32.9829 18.986C32.7962 19.2193 32.6469 19.476 32.5349 19.756C32.4229 20.0267 32.3669 20.288 32.3669 20.54V25.86C32.3669 26.2333 32.4882 26.49 32.7309 26.63L31.5129 25.93C31.2702 25.79 31.1489 25.5333 31.1489 25.16V19.84C31.1489 19.588 31.2049 19.3267 31.3169 19.056C31.4289 18.776 31.5782 18.5193 31.7649 18.286C31.9515 18.0433 32.1522 17.8613 32.3669 17.74L34.7889 16.34C35.1155 16.1533 35.4002 16.13 35.6429 16.27L36.8469 16.97ZM40.8583 18.44L43.2803 17.04C43.5976 16.8533 43.8776 16.83 44.1203 16.97C44.363 17.11 44.4843 17.3667 44.4843 17.74V19.84C44.4843 20.0827 44.4283 20.344 44.3163 20.624C44.2043 20.904 44.055 21.1653 43.8683 21.408C43.691 21.6413 43.495 21.8187 43.2803 21.94L42.0623 22.64C41.745 22.8267 41.465 22.85 41.2223 22.71C40.9796 22.57 40.8583 22.3133 40.8583 21.94V25.16L44.4843 23.06V24.46L40.8583 26.56C40.5316 26.7467 40.247 26.77 40.0043 26.63C39.7616 26.49 39.6403 26.2333 39.6403 25.86V20.54C39.6403 20.288 39.6963 20.0267 39.8083 19.756C39.9203 19.476 40.0696 19.2193 40.2563 18.986C40.443 18.7433 40.6436 18.5613 40.8583 18.44ZM43.2803 18.44L40.8583 19.84V21.94L43.2803 20.54V18.44ZM44.4843 23.06L40.8583 25.16L39.6403 24.46L43.2803 22.36L44.4843 23.06ZM43.2803 18.44V20.54L42.0623 19.84V17.74L43.2803 18.44ZM40.8583 21.94C40.8583 22.3133 40.9796 22.57 41.2223 22.71L40.0043 22.01C39.7616 21.87 39.6403 21.6133 39.6403 21.24L40.8583 21.94ZM43.2803 20.54L40.8583 21.94L39.6403 21.24L42.0623 19.84L43.2803 20.54ZM44.1203 16.97C43.8776 16.83 43.5976 16.8533 43.2803 17.04L40.8583 18.44C40.6436 18.5613 40.443 18.7433 40.2563 18.986C40.0696 19.2193 39.9203 19.476 39.8083 19.756C39.6963 20.0267 39.6403 20.288 39.6403 20.54V25.86C39.6403 26.2333 39.7616 26.49 40.0043 26.63L38.7863 25.93C38.5436 25.79 38.4223 25.5333 38.4223 25.16V19.84C38.4223 19.588 38.4783 19.3267 38.5903 19.056C38.7023 18.776 38.8516 18.5193 39.0383 18.286C39.225 18.0433 39.4256 17.8613 39.6403 17.74L42.0623 16.34C42.389 16.1533 42.6736 16.13 42.9163 16.27L44.1203 16.97ZM49.3358 17.74L50.5538 17.04C50.8711 16.8533 51.1511 16.83 51.3938 16.97C51.6364 17.11 51.7578 17.3667 51.7578 17.74V22.5C51.7578 22.7427 51.7018 23.004 51.5898 23.284C51.4778 23.564 51.3284 23.8253 51.1418 24.068C50.9644 24.3013 50.7684 24.4787 50.5538 24.6L48.1318 26V27.82L46.9138 28.52V19.14L48.1318 18.44V19.84C48.1318 19.588 48.1878 19.3267 48.2998 19.056C48.4118 18.776 48.5564 18.5193 48.7338 18.286C48.9204 18.0433 49.1211 17.8613 49.3358 17.74ZM50.5538 18.44L48.1318 19.84V24.6L50.5538 23.2V18.44ZM50.5538 18.44V23.2L49.3358 22.5V17.74L50.5538 18.44ZM50.5538 23.2L48.1318 24.6L46.9138 23.9L49.3358 22.5L50.5538 23.2ZM51.3938 16.97C51.1511 16.83 50.8711 16.8533 50.5538 17.04L49.3358 17.74C49.1211 17.8613 48.9204 18.0433 48.7338 18.286C48.5564 18.5193 48.4118 18.776 48.2998 19.056C48.1878 19.3267 48.1318 19.588 48.1318 19.84L46.9138 19.14C46.9138 18.888 46.9698 18.6267 47.0818 18.356C47.1938 18.076 47.3431 17.8193 47.5298 17.586C47.7164 17.3433 47.9171 17.1613 48.1318 17.04L49.3358 16.34C49.6624 16.1533 49.9471 16.13 50.1898 16.27L51.3938 16.97ZM46.9138 19.14V28.52L45.6958 27.82V18.44L46.9138 19.14ZM48.1318 18.44L46.9138 19.14L45.6958 18.44L46.9138 17.74L48.1318 18.44ZM54.7892 20.75L53.5852 21.45V20.05L54.7892 19.35V17.95L56.0072 17.25V20.05C56.0072 19.798 56.0632 19.5367 56.1752 19.266C56.2872 18.986 56.4319 18.7293 56.6092 18.496C56.7959 18.2533 56.9965 18.0713 57.2112 17.95L58.4292 17.25V18.65L56.0072 20.05V25.37L58.4292 23.97V25.37L56.0072 26.77C55.6805 26.9567 55.3959 26.98 55.1532 26.84C54.9105 26.7 54.7892 26.4433 54.7892 26.07V20.75ZM58.4292 23.97L56.0072 25.37L54.7892 24.67L57.2112 23.27L58.4292 23.97ZM58.4292 17.25L57.2112 17.95C56.9965 18.0713 56.7959 18.2533 56.6092 18.496C56.4319 18.7293 56.2872 18.986 56.1752 19.266C56.0632 19.5367 56.0072 19.798 56.0072 20.05L54.7892 19.35C54.7892 19.098 54.8452 18.8367 54.9572 18.566C55.0692 18.286 55.2185 18.0293 55.4052 17.796C55.5919 17.5533 55.7925 17.3713 56.0072 17.25L57.2112 16.55L58.4292 17.25ZM54.7892 19.35L53.5852 20.05L52.3672 19.35L53.5852 18.65L54.7892 19.35ZM54.7892 20.75V26.07C54.7892 26.4433 54.9105 26.7 55.1532 26.84L53.9492 26.14C53.7065 26 53.5852 25.7433 53.5852 25.37V20.05L54.7892 20.75ZM56.0072 17.25L54.7892 17.95L53.5852 17.25L54.7892 16.55L56.0072 17.25ZM54.7892 17.95V19.35L53.5852 18.65V17.25L54.7892 17.95ZM53.5852 20.05V21.45L52.3672 20.75V19.35L53.5852 20.05Z" fill="#009F00"/>
</svg>
