<svg width="75" height="40" viewBox="0 0 75 40" fill="none" xmlns="http://www.w3.org/2000/svg">
<path d="M70.3125 0H4.6875V2.5H0V37.5H4.6875V40H70.3125V37.5H75V2.5H70.3125V0Z" fill="#8E8E8E"/>
<path d="M68.6923 2.5H6.30807V4.6875H1.85205V35.3125H6.30807V37.5H68.6923V35.3125H73.1483V4.6875H68.6923V2.5Z" fill="white"/>
<path d="M18.1429 14.2857H19.2143V15.3571H18.1429V14.2857ZM17.0714 14.2857H18.1429V15.3571H17.0714V14.2857ZM17.0714 15.3571H18.1429V16.4286H17.0714V15.3571ZM18.1429 15.3571H19.2143V16.4286H18.1429V15.3571ZM19.2143 15.3571H20.2857V16.4286H19.2143V15.3571ZM19.2143 14.2857H20.2857V15.3571H19.2143V14.2857ZM20.2857 14.2857H21.3571V15.3571H20.2857V14.2857ZM21.3571 14.2857H22.4286V15.3571H21.3571V14.2857ZM21.3571 15.3571H22.4286V16.4286H21.3571V15.3571ZM20.2857 15.3571H21.3571V16.4286H20.2857V15.3571ZM20.2857 16.4286H21.3571V17.5H20.2857V16.4286ZM21.3571 16.4286H22.4286V17.5H21.3571V16.4286ZM22.4286 15.3571H23.5V16.4286H22.4286V15.3571ZM22.4286 16.4286H23.5V17.5H22.4286V16.4286ZM22.4286 17.5H23.5V18.5714H22.4286V17.5ZM22.4286 18.5714H23.5V19.6429H22.4286V18.5714ZM22.4286 19.6429H23.5V20.7143H22.4286V19.6429ZM22.4286 20.7143H23.5V21.7857H22.4286V20.7143ZM22.4286 21.7857H23.5V22.8571H22.4286V21.7857ZM22.4286 22.8571H23.5V23.9286H22.4286V22.8571ZM21.3571 22.8571H22.4286V23.9286H21.3571V22.8571ZM21.3571 21.7857H22.4286V22.8571H21.3571V21.7857ZM21.3571 20.7143H22.4286V21.7857H21.3571V20.7143ZM21.3571 19.6429H22.4286V20.7143H21.3571V19.6429ZM21.3571 18.5714H22.4286V19.6429H21.3571V18.5714ZM21.3571 17.5H22.4286V18.5714H21.3571V17.5ZM20.2857 21.7857H21.3571V22.8571H20.2857V21.7857ZM20.2857 22.8571H21.3571V23.9286H20.2857V22.8571ZM21.3571 23.9286H22.4286V25H21.3571V23.9286ZM20.2857 23.9286H21.3571V25H20.2857V23.9286ZM19.2143 23.9286H20.2857V25H19.2143V23.9286ZM19.2143 22.8571H20.2857V23.9286H19.2143V22.8571ZM18.1429 23.9286H19.2143V25H18.1429V23.9286ZM17.0714 23.9286H18.1429V25H17.0714V23.9286ZM17.0714 22.8571H18.1429V23.9286H17.0714V22.8571ZM18.1429 22.8571H19.2143V23.9286H18.1429V22.8571ZM17.0714 21.7857H18.1429V22.8571H17.0714V21.7857ZM16 22.8571H17.0714V23.9286H16V22.8571ZM16 21.7857H17.0714V22.8571H16V21.7857ZM16 20.7143H17.0714V21.7857H16V20.7143ZM16 19.6429H17.0714V20.7143H16V19.6429ZM16 18.5714H17.0714V19.6429H16V18.5714ZM16 17.5H17.0714V18.5714H16V17.5ZM16 16.4286H17.0714V17.5H16V16.4286ZM17.0714 16.4286H18.1429V17.5H17.0714V16.4286ZM16 15.3571H17.0714V16.4286H16V15.3571ZM17.0714 17.5H18.1429V18.5714H17.0714V17.5ZM17.0714 18.5714H18.1429V19.6429H17.0714V18.5714ZM17.0714 19.6429H18.1429V20.7143H17.0714V19.6429ZM17.0714 20.7143H18.1429V21.7857H17.0714V20.7143ZM16 23.9286H17.0714V25H16V23.9286ZM16 14.2857H17.0714V15.3571H16V14.2857ZM26.7171 16.4286H27.7885V17.5H26.7171V16.4286ZM25.6456 16.4286H26.7171V17.5H25.6456V16.4286ZM25.6456 17.5H26.7171V18.5714H25.6456V17.5ZM26.7171 17.5H27.7885V18.5714H26.7171V17.5ZM27.7885 16.4286H28.8599V17.5H27.7885V16.4286ZM28.8599 16.4286H29.9314V17.5H28.8599V16.4286ZM29.9314 16.4286H31.0028V17.5H29.9314V16.4286ZM29.9314 17.5H31.0028V18.5714H29.9314V17.5ZM28.8599 17.5H29.9314V18.5714H28.8599V17.5ZM31.0028 17.5H32.0742V18.5714H31.0028V17.5ZM31.0028 18.5714H32.0742V19.6429H31.0028V18.5714ZM31.0028 22.8571H32.0742V23.9286H31.0028V22.8571ZM29.9314 22.8571H31.0028V23.9286H29.9314V22.8571ZM29.9314 18.5714H31.0028V19.6429H29.9314V18.5714ZM28.8599 22.8571H29.9314V23.9286H28.8599V22.8571ZM29.9314 23.9286H31.0028V25H29.9314V23.9286ZM28.8599 23.9286H29.9314V25H28.8599V23.9286ZM27.7885 23.9286H28.8599V25H27.7885V23.9286ZM26.7171 23.9286H27.7885V25H26.7171V23.9286ZM25.6456 23.9286H26.7171V25H25.6456V23.9286ZM25.6456 22.8571H26.7171V23.9286H25.6456V22.8571ZM26.7171 22.8571H27.7885V23.9286H26.7171V22.8571ZM25.6456 21.7857H26.7171V22.8571H25.6456V21.7857ZM24.5742 22.8571H25.6456V23.9286H24.5742V22.8571ZM24.5742 21.7857H25.6456V22.8571H24.5742V21.7857ZM24.5742 20.7143H25.6456V21.7857H24.5742V20.7143ZM24.5742 19.6429H25.6456V20.7143H24.5742V19.6429ZM24.5742 18.5714H25.6456V19.6429H24.5742V18.5714ZM24.5742 17.5H25.6456V18.5714H24.5742V17.5ZM25.6456 18.5714H26.7171V19.6429H25.6456V18.5714ZM25.6456 19.6429H26.7171V20.7143H25.6456V19.6429ZM25.6456 20.7143H26.7171V21.7857H25.6456V20.7143ZM27.7885 22.8571H28.8599V23.9286H27.7885V22.8571ZM27.7885 17.5H28.8599V18.5714H27.7885V17.5ZM29.9314 19.6429H31.0028V20.7143H29.9314V19.6429ZM31.0028 19.6429H32.0742V20.7143H31.0028V19.6429ZM26.7171 20.7143H27.7885V21.7857H26.7171V20.7143ZM27.7885 20.7143H28.8599V21.7857H27.7885V20.7143ZM28.8599 20.7143H29.9314V21.7857H28.8599V20.7143ZM29.9314 20.7143H31.0028V21.7857H29.9314V20.7143ZM31.0028 20.7143H32.0742V21.7857H31.0028V20.7143ZM28.8599 19.6429H29.9314V20.7143H28.8599V19.6429ZM27.7885 19.6429H28.8599V20.7143H27.7885V19.6429ZM26.7171 19.6429H27.7885V20.7143H26.7171V19.6429ZM33.1484 14.2857H34.2199V15.3571H33.1484V14.2857ZM34.2199 14.2857H35.2913V15.3571H34.2199V14.2857ZM34.2199 15.3571H35.2913V16.4286H34.2199V15.3571ZM34.2199 16.4286H35.2913V17.5H34.2199V16.4286ZM34.2199 17.5H35.2913V18.5714H34.2199V17.5ZM34.2199 18.5714H35.2913V19.6429H34.2199V18.5714ZM34.2199 19.6429H35.2913V20.7143H34.2199V19.6429ZM33.1484 19.6429H34.2199V20.7143H33.1484V19.6429ZM33.1484 20.7143H34.2199V21.7857H33.1484V20.7143ZM33.1484 21.7857H34.2199V22.8571H33.1484V21.7857ZM33.1484 22.8571H34.2199V23.9286H33.1484V22.8571ZM33.1484 23.9286H34.2199V25H33.1484V23.9286ZM34.2199 23.9286H35.2913V25H34.2199V23.9286ZM34.2199 22.8571H35.2913V23.9286H34.2199V22.8571ZM34.2199 21.7857H35.2913V22.8571H34.2199V21.7857ZM34.2199 20.7143H35.2913V21.7857H34.2199V20.7143ZM33.1484 18.5714H34.2199V19.6429H33.1484V18.5714ZM33.1484 17.5H34.2199V18.5714H33.1484V17.5ZM33.1484 16.4286H34.2199V17.5H33.1484V16.4286ZM33.1484 15.3571H34.2199V16.4286H33.1484V15.3571ZM38.514 16.4286H39.5854V17.5H38.514V16.4286ZM37.4425 16.4286H38.514V17.5H37.4425V16.4286ZM37.4425 17.5H38.514V18.5714H37.4425V17.5ZM38.514 17.5H39.5854V18.5714H38.514V17.5ZM39.5854 16.4286H40.6568V17.5H39.5854V16.4286ZM40.6568 16.4286H41.7282V17.5H40.6568V16.4286ZM41.7282 16.4286H42.7997V17.5H41.7282V16.4286ZM41.7282 17.5H42.7997V18.5714H41.7282V17.5ZM40.6568 17.5H41.7282V18.5714H40.6568V17.5ZM42.7997 17.5H43.8711V18.5714H42.7997V17.5ZM42.7997 18.5714H43.8711V19.6429H42.7997V18.5714ZM42.7997 22.8571H43.8711V23.9286H42.7997V22.8571ZM41.7282 22.8571H42.7997V23.9286H41.7282V22.8571ZM41.7282 18.5714H42.7997V19.6429H41.7282V18.5714ZM40.6568 22.8571H41.7282V23.9286H40.6568V22.8571ZM41.7282 23.9286H42.7997V25H41.7282V23.9286ZM40.6568 23.9286H41.7282V25H40.6568V23.9286ZM39.5854 23.9286H40.6568V25H39.5854V23.9286ZM38.514 23.9286H39.5854V25H38.514V23.9286ZM37.4425 23.9286H38.514V25H37.4425V23.9286ZM37.4425 22.8571H38.514V23.9286H37.4425V22.8571ZM38.514 22.8571H39.5854V23.9286H38.514V22.8571ZM37.4425 21.7857H38.514V22.8571H37.4425V21.7857ZM36.3711 22.8571H37.4425V23.9286H36.3711V22.8571ZM36.3711 21.7857H37.4425V22.8571H36.3711V21.7857ZM36.3711 20.7143H37.4425V21.7857H36.3711V20.7143ZM36.3711 19.6429H37.4425V20.7143H36.3711V19.6429ZM36.3711 18.5714H37.4425V19.6429H36.3711V18.5714ZM36.3711 17.5H37.4425V18.5714H36.3711V17.5ZM37.4425 18.5714H38.514V19.6429H37.4425V18.5714ZM37.4425 19.6429H38.514V20.7143H37.4425V19.6429ZM37.4425 20.7143H38.514V21.7857H37.4425V20.7143ZM39.5854 22.8571H40.6568V23.9286H39.5854V22.8571ZM39.5854 17.5H40.6568V18.5714H39.5854V17.5ZM41.7282 19.6429H42.7997V20.7143H41.7282V19.6429ZM42.7997 19.6429H43.8711V20.7143H42.7997V19.6429ZM38.514 20.7143H39.5854V21.7857H38.514V20.7143ZM39.5854 20.7143H40.6568V21.7857H39.5854V20.7143ZM40.6568 20.7143H41.7282V21.7857H40.6568V20.7143ZM41.7282 20.7143H42.7997V21.7857H41.7282V20.7143ZM42.7997 20.7143H43.8711V21.7857H42.7997V20.7143ZM40.6568 19.6429H41.7282V20.7143H40.6568V19.6429ZM39.5854 19.6429H40.6568V20.7143H39.5854V19.6429ZM38.514 19.6429H39.5854V20.7143H38.514V19.6429ZM49.231 22.8571H50.3025V23.9286H49.231V22.8571ZM49.231 23.9286H50.3025V25H49.231V23.9286ZM48.1596 23.9286H49.231V25H48.1596V23.9286ZM48.1596 22.8571H49.231V23.9286H48.1596V22.8571ZM47.0882 23.9286H48.1596V25H47.0882V23.9286ZM47.0882 22.8571H48.1596V23.9286H47.0882V22.8571ZM46.0167 22.8571H47.0882V23.9286H46.0167V22.8571ZM46.0167 21.7857H47.0882V22.8571H46.0167V21.7857ZM46.0167 20.7143H47.0882V21.7857H46.0167V20.7143ZM46.0167 19.6429H47.0882V20.7143H46.0167V19.6429ZM46.0167 18.5714H47.0882V19.6429H46.0167V18.5714ZM46.0167 17.5H47.0882V18.5714H46.0167V17.5ZM47.0882 20.7143H48.1596V21.7857H47.0882V20.7143ZM47.0882 21.7857H48.1596V22.8571H47.0882V21.7857ZM47.0882 19.6429H48.1596V20.7143H47.0882V19.6429ZM47.0882 18.5714H48.1596V19.6429H47.0882V18.5714ZM47.0882 14.2857H48.1596V15.3571H47.0882V14.2857ZM47.0882 15.3571H48.1596V16.4286H47.0882V15.3571ZM47.0882 16.4286H48.1596V17.5H47.0882V16.4286ZM47.0882 17.5H48.1596V18.5714H47.0882V17.5ZM46.0167 16.4286H47.0882V17.5H46.0167V16.4286ZM44.9453 17.5H46.0167V18.5714H44.9453V17.5ZM48.1596 17.5H49.231V18.5714H48.1596V17.5ZM49.231 17.5H50.3025V18.5714H49.231V17.5ZM46.0167 15.3571H47.0882V16.4286H46.0167V15.3571ZM44.9453 18.5714H46.0167V19.6429H44.9453V18.5714ZM48.1596 18.5714H49.231V19.6429H48.1596V18.5714ZM49.231 18.5714H50.3025V19.6429H49.231V18.5714ZM53.514 16.4286H54.5854V17.5H53.514V16.4286ZM52.4425 16.4286H53.514V17.5H52.4425V16.4286ZM52.4425 17.5H53.514V18.5714H52.4425V17.5ZM53.514 17.5H54.5854V18.5714H53.514V17.5ZM54.5854 16.4286H55.6568V17.5H54.5854V16.4286ZM55.6568 16.4286H56.7282V17.5H55.6568V16.4286ZM56.7282 16.4286H57.7997V17.5H56.7282V16.4286ZM56.7282 17.5H57.7997V18.5714H56.7282V17.5ZM55.6568 17.5H56.7282V18.5714H55.6568V17.5ZM57.7997 17.5H58.8711V18.5714H57.7997V17.5ZM57.7997 18.5714H58.8711V19.6429H57.7997V18.5714ZM57.7997 22.8571H58.8711V23.9286H57.7997V22.8571ZM56.7282 22.8571H57.7997V23.9286H56.7282V22.8571ZM56.7282 18.5714H57.7997V19.6429H56.7282V18.5714ZM55.6568 22.8571H56.7282V23.9286H55.6568V22.8571ZM56.7282 23.9286H57.7997V25H56.7282V23.9286ZM55.6568 23.9286H56.7282V25H55.6568V23.9286ZM54.5854 23.9286H55.6568V25H54.5854V23.9286ZM53.514 23.9286H54.5854V25H53.514V23.9286ZM52.4425 23.9286H53.514V25H52.4425V23.9286ZM52.4425 22.8571H53.514V23.9286H52.4425V22.8571ZM53.514 22.8571H54.5854V23.9286H53.514V22.8571ZM52.4425 21.7857H53.514V22.8571H52.4425V21.7857ZM51.3711 22.8571H52.4425V23.9286H51.3711V22.8571ZM51.3711 21.7857H52.4425V22.8571H51.3711V21.7857ZM51.3711 20.7143H52.4425V21.7857H51.3711V20.7143ZM51.3711 19.6429H52.4425V20.7143H51.3711V19.6429ZM51.3711 18.5714H52.4425V19.6429H51.3711V18.5714ZM51.3711 17.5H52.4425V18.5714H51.3711V17.5ZM52.4425 18.5714H53.514V19.6429H52.4425V18.5714ZM52.4425 19.6429H53.514V20.7143H52.4425V19.6429ZM52.4425 20.7143H53.514V21.7857H52.4425V20.7143ZM54.5854 22.8571H55.6568V23.9286H54.5854V22.8571ZM54.5854 17.5H55.6568V18.5714H54.5854V17.5ZM56.7282 19.6429H57.7997V20.7143H56.7282V19.6429ZM57.7997 19.6429H58.8711V20.7143H57.7997V19.6429ZM53.514 20.7143H54.5854V21.7857H53.514V20.7143ZM54.5854 20.7143H55.6568V21.7857H54.5854V20.7143ZM55.6568 20.7143H56.7282V21.7857H55.6568V20.7143ZM56.7282 20.7143H57.7997V21.7857H56.7282V20.7143ZM57.7997 20.7143H58.8711V21.7857H57.7997V20.7143ZM55.6568 19.6429H56.7282V20.7143H55.6568V19.6429ZM54.5854 19.6429H55.6568V20.7143H54.5854V19.6429ZM53.514 19.6429H54.5854V20.7143H53.514V19.6429Z" fill="#8E8E8E"/>
</svg>
