<svg width="162" height="88" viewBox="0 0 162 88" fill="none" xmlns="http://www.w3.org/2000/svg">
<path d="M151.875 0H10.125V5.5H0V82.5H10.125V88H151.875V82.5H162V5.5H151.875V0Z" fill="black"/>
<path d="M148.375 5.5H13.625V10.3125H4V77.6875H13.625V82.5H148.375V77.6875H158V10.3125H148.375V5.5Z" fill="white"/>
<path d="M46.68 34L58.8 27V52.6C58.8 53.2933 58.6267 54.04 58.28 54.84C57.96 55.64 57.5333 56.3867 57 57.08C56.4933 57.7467 55.9333 58.2533 55.32 58.6L46.68 63.6C45.7467 64.1333 44.9333 64.2 44.24 63.8C43.5467 63.4 43.2 62.6667 43.2 61.6V52L46.68 50V59.6L55.32 54.6V29C55.32 29.6933 55.16 30.44 54.84 31.24C54.52 32.04 54.0933 32.7867 53.56 33.48C53.0267 34.1467 52.4533 34.6533 51.84 35L46.68 38V34ZM55.32 29V54.6L51.84 52.6V27L55.32 29ZM55.32 54.6L46.68 59.6L43.2 57.6L51.84 52.6L55.32 54.6ZM58.8 27L46.68 34L43.2 32L55.32 25L58.8 27ZM46.68 34V38L43.2 36V32L46.68 34ZM46.68 50L43.2 52L39.72 50L43.2 48L46.68 50ZM43.2 52V61.6C43.2 62.6667 43.5467 63.4 44.24 63.8L40.76 61.8C40.0667 61.4 39.72 60.6667 39.72 59.6V50L43.2 52ZM69.2191 40.4L76.1391 36.4C77.0457 35.8667 77.8457 35.8 78.5391 36.2C79.2324 36.6 79.5791 37.3333 79.5791 38.4V53.6C79.5791 54.2933 79.4191 55.04 79.0991 55.84C78.7791 56.64 78.3524 57.3867 77.8191 58.08C77.3124 58.7467 76.7524 59.2533 76.1391 59.6L69.2191 63.6C68.2857 64.1333 67.4724 64.2 66.7791 63.8C66.0857 63.4 65.7391 62.6667 65.7391 61.6V46.4C65.7391 45.68 65.8991 44.9333 66.2191 44.16C66.5391 43.36 66.9657 42.6267 67.4991 41.96C68.0324 41.2667 68.6057 40.7467 69.2191 40.4ZM69.2191 59.6L76.1391 55.6V40.4L69.2191 44.4V59.6ZM76.1391 40.4V55.6L72.6591 53.6V38.4L76.1391 40.4ZM76.1391 55.6L69.2191 59.6L65.7391 57.6L72.6591 53.6L76.1391 55.6ZM78.5391 36.2C77.8457 35.8 77.0457 35.8667 76.1391 36.4L69.2191 40.4C68.6057 40.7467 68.0324 41.2667 67.4991 41.96C66.9657 42.6267 66.5391 43.36 66.2191 44.16C65.8991 44.9333 65.7391 45.68 65.7391 46.4V61.6C65.7391 62.6667 66.0857 63.4 66.7791 63.8L63.2991 61.8C62.6057 61.4 62.2591 60.6667 62.2591 59.6V44.4C62.2591 43.68 62.4191 42.9333 62.7391 42.16C63.0591 41.36 63.4857 40.6267 64.0191 39.96C64.5524 39.2667 65.1257 38.7467 65.7391 38.4L72.6591 34.4C73.5924 33.8667 74.4057 33.8 75.0991 34.2L78.5391 36.2ZM91.7203 57V45L86.5203 48V44L100.36 36V40L95.1603 43V55L100.36 52V56L86.5203 64V60L91.7203 57ZM93.4403 36.4C92.747 36.8 92.1603 36.8667 91.6803 36.6C91.227 36.3333 91.0003 35.8 91.0003 35C91.0003 34.2 91.227 33.4 91.6803 32.6C92.1603 31.8 92.747 31.2 93.4403 30.8C94.1336 30.4 94.707 30.3333 95.1603 30.6C95.6403 30.8667 95.8803 31.4 95.8803 32.2C95.8803 33 95.6403 33.8 95.1603 34.6C94.707 35.4 94.1336 36 93.4403 36.4ZM91.7203 57L86.5203 60L83.0403 58L88.2403 55L91.7203 57ZM86.5203 60V64L83.0403 62V58L86.5203 60ZM100.36 52L95.1603 55L91.7203 53L96.9203 50L100.36 52ZM91.7203 45V57L88.2403 55V43L91.7203 45ZM100.36 36L86.5203 44L83.0403 42L96.9203 34L100.36 36ZM86.5203 44V48L83.0403 46V42L86.5203 44ZM95.2003 30.6C94.7203 30.3333 94.1336 30.4 93.4403 30.8C92.747 31.2 92.1603 31.8 91.6803 32.6C91.227 33.4 91.0003 34.2 91.0003 35C91.0003 35.8 91.2403 36.3333 91.7203 36.6L88.2403 34.6C87.787 34.3333 87.5603 33.8 87.5603 33C87.5603 32.2 87.787 31.4 88.2403 30.6C88.6936 29.8 89.2803 29.2 90.0003 28.8C90.6936 28.4 91.267 28.3333 91.7203 28.6L95.2003 30.6ZM107.302 42.4L110.782 40.4V44.4C110.782 43.68 110.942 42.9333 111.262 42.16C111.582 41.36 111.995 40.6267 112.502 39.96C113.035 39.2667 113.608 38.7467 114.222 38.4L117.702 36.4C118.608 35.8667 119.408 35.8 120.102 36.2C120.795 36.6 121.142 37.3333 121.142 38.4V56L117.702 58V40.4L110.782 44.4V62L107.302 64V42.4ZM117.702 40.4V58L114.222 56V38.4L117.702 40.4ZM107.302 42.4V64L103.822 62V40.4L107.302 42.4ZM120.102 36.2C119.408 35.8 118.608 35.8667 117.702 36.4L114.222 38.4C113.608 38.7467 113.035 39.2667 112.502 39.96C111.995 40.6267 111.582 41.36 111.262 42.16C110.942 42.9333 110.782 43.68 110.782 44.4L107.302 42.4C107.302 41.68 107.462 40.9333 107.782 40.16C108.102 39.36 108.528 38.6267 109.062 37.96C109.595 37.2667 110.168 36.7467 110.782 36.4L114.222 34.4C115.155 33.8667 115.968 33.8 116.662 34.2L120.102 36.2ZM110.782 40.4L107.302 42.4L103.822 40.4L107.302 38.4L110.782 40.4Z" fill="black"/>
</svg>
