<svg width="75" height="40" viewBox="0 0 75 40" fill="none" xmlns="http://www.w3.org/2000/svg">
<path d="M70.3125 0H4.6875V2.5H0V37.5H4.6875V40H70.3125V37.5H75V2.5H70.3125V0Z" fill="#E75F13"/>
<path d="M68.6918 2.5H6.30758V4.6875H1.85156V35.3125H6.30758V37.5H68.6918V35.3125H73.1479V4.6875H68.6918V2.5Z" fill="white"/>
<path d="M18.82 19.7L20.038 19V20.4L21.242 19.7C21.242 19.448 21.298 19.1867 21.41 18.916C21.522 18.636 21.6713 18.3793 21.858 18.146C22.0447 17.9033 22.2453 17.7213 22.46 17.6L23.664 16.9V18.3L22.46 19C22.46 19.2427 22.404 19.504 22.292 19.784C22.18 20.064 22.0307 20.3253 21.844 20.568C21.6573 20.8013 21.4567 20.9787 21.242 21.1L20.038 21.8V26L18.82 26.7V19.7ZM18.82 19.7V26.7L17.602 26V19L18.82 19.7ZM23.664 16.9L22.46 17.6C22.2453 17.7213 22.0447 17.9033 21.858 18.146C21.6713 18.3793 21.522 18.636 21.41 18.916C21.298 19.1867 21.242 19.448 21.242 19.7L20.038 19C20.038 18.748 20.094 18.4867 20.206 18.216C20.318 17.936 20.4627 17.6793 20.64 17.446C20.8267 17.2033 21.0273 17.0213 21.242 16.9L22.46 16.2L23.664 16.9ZM21.242 19.7L20.038 20.4L18.82 19.7L20.038 19L21.242 19.7ZM20.038 19L18.82 19.7L17.602 19L18.82 18.3L20.038 19ZM26.6962 18.44L29.1182 17.04C29.4355 16.8533 29.7155 16.83 29.9582 16.97C30.2009 17.11 30.3222 17.3667 30.3222 17.74V19.84C30.3222 20.0827 30.2662 20.344 30.1542 20.624C30.0422 20.904 29.8929 21.1653 29.7062 21.408C29.5289 21.6413 29.3329 21.8187 29.1182 21.94L27.9002 22.64C27.5829 22.8267 27.3029 22.85 27.0602 22.71C26.8175 22.57 26.6962 22.3133 26.6962 21.94V25.16L30.3222 23.06V24.46L26.6962 26.56C26.3695 26.7467 26.0849 26.77 25.8422 26.63C25.5995 26.49 25.4782 26.2333 25.4782 25.86V20.54C25.4782 20.288 25.5342 20.0267 25.6462 19.756C25.7582 19.476 25.9075 19.2193 26.0942 18.986C26.2809 18.7433 26.4815 18.5613 26.6962 18.44ZM29.1182 18.44L26.6962 19.84V21.94L29.1182 20.54V18.44ZM30.3222 23.06L26.6962 25.16L25.4782 24.46L29.1182 22.36L30.3222 23.06ZM29.1182 18.44V20.54L27.9002 19.84V17.74L29.1182 18.44ZM26.6962 21.94C26.6962 22.3133 26.8175 22.57 27.0602 22.71L25.8422 22.01C25.5995 21.87 25.4782 21.6133 25.4782 21.24L26.6962 21.94ZM29.1182 20.54L26.6962 21.94L25.4782 21.24L27.9002 19.84L29.1182 20.54ZM29.9582 16.97C29.7155 16.83 29.4355 16.8533 29.1182 17.04L26.6962 18.44C26.4815 18.5613 26.2809 18.7433 26.0942 18.986C25.9075 19.2193 25.7582 19.476 25.6462 19.756C25.5342 20.0267 25.4782 20.288 25.4782 20.54V25.86C25.4782 26.2333 25.5995 26.49 25.8422 26.63L24.6242 25.93C24.3815 25.79 24.2602 25.5333 24.2602 25.16V19.84C24.2602 19.588 24.3162 19.3267 24.4282 19.056C24.5402 18.776 24.6895 18.5193 24.8762 18.286C25.0629 18.0433 25.2635 17.8613 25.4782 17.74L27.9002 16.34C28.2269 16.1533 28.5115 16.13 28.7542 16.27L29.9582 16.97ZM35.1736 18.3C35.1736 18.5427 35.1176 18.804 35.0056 19.084C34.8936 19.364 34.7443 19.6253 34.5576 19.868C34.371 20.1013 34.175 20.2787 33.9696 20.4L32.7516 21.1V19.7L36.3916 17.6V25.16C36.3916 25.4027 36.3356 25.664 36.2236 25.944C36.1116 26.224 35.9623 26.4807 35.7756 26.714C35.589 26.9567 35.3883 27.1387 35.1736 27.26L32.7516 28.66V27.26L35.1736 25.86V18.3ZM35.7756 17.11C35.533 17.25 35.3323 17.2733 35.1736 17.18C35.015 17.0867 34.9356 16.9 34.9356 16.62C34.9356 16.34 35.015 16.06 35.1736 15.78C35.3323 15.5 35.533 15.29 35.7756 15.15C36.0276 15.01 36.233 14.9867 36.3916 15.08C36.5503 15.1733 36.6296 15.36 36.6296 15.64C36.6296 15.92 36.5503 16.2 36.3916 16.48C36.233 16.76 36.0276 16.97 35.7756 17.11ZM35.1736 18.3V25.86L33.9696 25.16V17.6L35.1736 18.3ZM35.1736 25.86L32.7516 27.26L31.5336 26.56L33.9696 25.16L35.1736 25.86ZM32.7516 27.26V28.66L31.5336 27.96V26.56L32.7516 27.26ZM36.3916 17.6L32.7516 19.7L31.5336 19L35.1736 16.9L36.3916 17.6ZM32.7516 19.7V21.1L31.5336 20.4V19L32.7516 19.7ZM36.3916 15.08C36.233 14.9867 36.0276 15.01 35.7756 15.15C35.533 15.29 35.3323 15.5 35.1736 15.78C35.015 16.06 34.9356 16.34 34.9356 16.62C34.9356 16.9 35.015 17.0867 35.1736 17.18L33.9556 16.48C33.797 16.3867 33.7176 16.2 33.7176 15.92C33.7176 15.64 33.797 15.36 33.9556 15.08C34.1143 14.8 34.3196 14.59 34.5716 14.45C34.8143 14.31 35.015 14.2867 35.1736 14.38L36.3916 15.08ZM40.0263 18.44L42.4483 17.04C42.7656 16.8533 43.0456 16.83 43.2883 16.97C43.5309 17.11 43.6523 17.3667 43.6523 17.74V19.84C43.6523 20.0827 43.5963 20.344 43.4843 20.624C43.3723 20.904 43.2229 21.1653 43.0363 21.408C42.8589 21.6413 42.6629 21.8187 42.4483 21.94L41.2303 22.64C40.9129 22.8267 40.6329 22.85 40.3903 22.71C40.1476 22.57 40.0263 22.3133 40.0263 21.94V25.16L43.6523 23.06V24.46L40.0263 26.56C39.6996 26.7467 39.4149 26.77 39.1723 26.63C38.9296 26.49 38.8083 26.2333 38.8083 25.86V20.54C38.8083 20.288 38.8643 20.0267 38.9763 19.756C39.0883 19.476 39.2376 19.2193 39.4243 18.986C39.6109 18.7433 39.8116 18.5613 40.0263 18.44ZM42.4483 18.44L40.0263 19.84V21.94L42.4483 20.54V18.44ZM43.6523 23.06L40.0263 25.16L38.8083 24.46L42.4483 22.36L43.6523 23.06ZM42.4483 18.44V20.54L41.2303 19.84V17.74L42.4483 18.44ZM40.0263 21.94C40.0263 22.3133 40.1476 22.57 40.3903 22.71L39.1723 22.01C38.9296 21.87 38.8083 21.6133 38.8083 21.24L40.0263 21.94ZM42.4483 20.54L40.0263 21.94L38.8083 21.24L41.2303 19.84L42.4483 20.54ZM43.2883 16.97C43.0456 16.83 42.7656 16.8533 42.4483 17.04L40.0263 18.44C39.8116 18.5613 39.6109 18.7433 39.4243 18.986C39.2376 19.2193 39.0883 19.476 38.9763 19.756C38.8643 20.0267 38.8083 20.288 38.8083 20.54V25.86C38.8083 26.2333 38.9296 26.49 39.1723 26.63L37.9543 25.93C37.7116 25.79 37.5903 25.5333 37.5903 25.16V19.84C37.5903 19.588 37.6463 19.3267 37.7583 19.056C37.8703 18.776 38.0196 18.5193 38.2063 18.286C38.3929 18.0433 38.5936 17.8613 38.8083 17.74L41.2303 16.34C41.5569 16.1533 41.8416 16.13 42.0843 16.27L43.2883 16.97ZM47.2997 18.44L49.7217 17.04C50.0391 16.8533 50.3191 16.83 50.5617 16.97C50.8044 17.11 50.9257 17.3667 50.9257 17.74V19.14L49.7217 19.84V18.44L47.2997 19.84V25.16L49.7217 23.76V22.36L50.9257 21.66V23.06C50.9257 23.3027 50.8697 23.564 50.7577 23.844C50.6457 24.124 50.4964 24.3853 50.3097 24.628C50.1324 24.8613 49.9364 25.0387 49.7217 25.16L47.2997 26.56C46.9731 26.7467 46.6884 26.77 46.4457 26.63C46.2031 26.49 46.0817 26.2333 46.0817 25.86V20.54C46.0817 20.288 46.1377 20.0267 46.2497 19.756C46.3617 19.476 46.5111 19.2193 46.6977 18.986C46.8844 18.7433 47.0851 18.5613 47.2997 18.44ZM50.9257 21.66L49.7217 22.36L48.5037 21.66L49.7217 20.96L50.9257 21.66ZM49.7217 22.36V23.76L48.5037 23.06V21.66L49.7217 22.36ZM49.7217 23.76L47.2997 25.16L46.0817 24.46L48.5037 23.06L49.7217 23.76ZM49.7217 18.44V19.84L48.5037 19.14V17.74L49.7217 18.44ZM50.5617 16.97C50.3191 16.83 50.0391 16.8533 49.7217 17.04L47.2997 18.44C47.0851 18.5613 46.8844 18.7433 46.6977 18.986C46.5111 19.2193 46.3617 19.476 46.2497 19.756C46.1377 20.0267 46.0817 20.288 46.0817 20.54V25.86C46.0817 26.2333 46.2031 26.49 46.4457 26.63L45.2277 25.93C44.9851 25.79 44.8637 25.5333 44.8637 25.16V19.84C44.8637 19.588 44.9197 19.3267 45.0317 19.056C45.1437 18.776 45.2931 18.5193 45.4797 18.286C45.6664 18.0433 45.8671 17.8613 46.0817 17.74L48.5037 16.34C48.8304 16.1533 49.1151 16.13 49.3577 16.27L50.5617 16.97ZM53.9572 20.75L52.7532 21.45V20.05L53.9572 19.35V17.95L55.1752 17.25V20.05C55.1752 19.798 55.2312 19.5367 55.3432 19.266C55.4552 18.986 55.5998 18.7293 55.7772 18.496C55.9638 18.2533 56.1645 18.0713 56.3792 17.95L57.5972 17.25V18.65L55.1752 20.05V25.37L57.5972 23.97V25.37L55.1752 26.77C54.8485 26.9567 54.5638 26.98 54.3212 26.84C54.0785 26.7 53.9572 26.4433 53.9572 26.07V20.75ZM57.5972 23.97L55.1752 25.37L53.9572 24.67L56.3792 23.27L57.5972 23.97ZM57.5972 17.25L56.3792 17.95C56.1645 18.0713 55.9638 18.2533 55.7772 18.496C55.5998 18.7293 55.4552 18.986 55.3432 19.266C55.2312 19.5367 55.1752 19.798 55.1752 20.05L53.9572 19.35C53.9572 19.098 54.0132 18.8367 54.1252 18.566C54.2372 18.286 54.3865 18.0293 54.5732 17.796C54.7598 17.5533 54.9605 17.3713 55.1752 17.25L56.3792 16.55L57.5972 17.25ZM53.9572 19.35L52.7532 20.05L51.5352 19.35L52.7532 18.65L53.9572 19.35ZM53.9572 20.75V26.07C53.9572 26.4433 54.0785 26.7 54.3212 26.84L53.1172 26.14C52.8745 26 52.7532 25.7433 52.7532 25.37V20.05L53.9572 20.75ZM55.1752 17.25L53.9572 17.95L52.7532 17.25L53.9572 16.55L55.1752 17.25ZM53.9572 17.95V19.35L52.7532 18.65V17.25L53.9572 17.95ZM52.7532 20.05V21.45L51.5352 20.75V19.35L52.7532 20.05Z" fill="#E64434"/>
</svg>
