<svg width="632" height="256" viewBox="0 0 632 256" fill="none" xmlns="http://www.w3.org/2000/svg">
<rect x="7.11053" y="6.39999" width="544.222" height="185.6" fill="#FCB5A8"/>
<path d="M542.555 12.8H551.333V19.2H542.555V12.8Z" fill="#FC8E2E"/>
<path d="M524.999 6.39999H542.555V19.2H524.999V6.39999Z" fill="#FC8E2E"/>
<rect x="524.999" y="19.2" width="26.3333" height="166.4" fill="#FC8E2E"/>
<rect x="15.8883" y="185.6" width="526.667" height="6.4" fill="#FC8E2E"/>
<rect x="7.11053" y="179.2" width="8.77778" height="6.4" fill="#FC8E2E"/>
<rect x="7.11053" y="6.39999" width="544.222" height="185.6" fill="#FCFCFC"/>
<path d="M542.555 12.8H551.333V19.2H542.555V12.8Z" fill="#93FCEE"/>
<path d="M524.999 6.39999H542.555V19.2H524.999V6.39999Z" fill="#93FCEE"/>
<rect x="524.999" y="19.2" width="26.3333" height="166.4" fill="#93FCEE"/>
<rect x="15.8883" y="185.6" width="526.667" height="6.4" fill="#93FCEE"/>
<rect x="7.11053" y="179.2" width="8.77778" height="6.4" fill="#93FCEE"/>
<rect x="7.11053" y="6.39999" width="544.222" height="185.6" fill="#9FE1FC"/>
<path d="M542.555 12.8H551.333V19.2H542.555V12.8Z" fill="#32B5FC"/>
<path d="M524.999 6.39999H542.555V19.2H524.999V6.39999Z" fill="#32B5FC"/>
<rect x="524.999" y="19.2" width="26.3333" height="166.4" fill="#32B5FC"/>
<rect x="15.8883" y="185.6" width="526.667" height="6.4" fill="#32B5FC"/>
<rect x="7.11053" y="179.2" width="8.77778" height="6.4" fill="#32B5FC"/>
<rect x="7.11053" y="6.39999" width="544.222" height="185.6" fill="#41D83D"/>
<path d="M542.555 12.8H551.333V19.2H542.555V12.8Z" fill="#009F00"/>
<path d="M524.999 6.39999H542.555V19.2H524.999V6.39999Z" fill="#009F00"/>
<rect x="524.999" y="19.2" width="26.3333" height="166.4" fill="#009F00"/>
<rect x="15.8883" y="185.6" width="526.667" height="6.4" fill="#009F00"/>
<rect x="7.11053" y="179.2" width="8.77778" height="6.4" fill="#009F00"/>
<rect x="70.2222" y="198.4" width="8.77778" height="51.2" fill="black"/>
<rect x="623.222" y="198.4" width="8.77778" height="51.2" fill="black"/>
<rect x="79" y="198.4" width="544.222" height="57.6" fill="black"/>
<path d="M544.222 64H632V198.4H544.222V64Z" fill="black"/>
<path d="M553 51.2H623.222V57.6H553V51.2Z" fill="black"/>
<path d="M553 57.6H632V64H553V57.6Z" fill="black"/>
<rect y="12.8" width="8.77778" height="172.8" fill="black"/>
<rect x="544.222" y="12.8" width="8.77778" height="172.8" fill="black"/>
<rect x="17.5555" width="517.889" height="6.4" fill="black"/>
<rect x="17.5555" y="192" width="517.889" height="6.4" fill="black"/>
<path d="M544.222 0V12.8H535.444V0L544.222 0Z" fill="black"/>
<path d="M553 6.4V12.8H535.444V6.4L553 6.4Z" fill="black"/>
<path d="M544.222 198.4V185.6H535.444V198.4H544.222Z" fill="black"/>
<path d="M553 192V185.6H535.444V192H553Z" fill="black"/>
<path d="M0 6.4H17.5556V12.8H0V6.4Z" fill="black"/>
<path d="M8.77778 0H17.5556V12.8H8.77778V0Z" fill="black"/>
<path d="M8.77778 198.4V185.6H17.5556V198.4H8.77778Z" fill="black"/>
<path d="M0 192L0 185.6H17.5556V192H0Z" fill="black"/>
<path d="M58.1099 12.8H22.9988V19.2H14.221V44.8H22.9988V51.2H58.1099V44.8H66.8877V19.2H58.1099V12.8Z" fill="black"/>
<path d="M49.3321 19.2H31.7766V25.6H22.9988V38.4H31.7766V44.8H49.3321V38.4H58.1099V25.6H49.3321V19.2Z" fill="#93FCEE"/>
<rect x="31.7766" y="32" width="8.77778" height="6.4" fill="black"/>
<rect x="40.5544" y="25.6" width="8.77778" height="6.4" fill="black"/>
<path d="M532.11 12.8H496.999V19.2H488.221V44.8H496.999V51.2H532.11V44.8H540.888V19.2H532.11V12.8Z" fill="black"/>
<path d="M523.332 19.2H505.777V25.6H496.999V38.4H505.777V44.8H523.332V38.4H532.11V25.6H523.332V19.2Z" fill="#93FCEE"/>
<rect x="505.777" y="32" width="8.77778" height="6.4" fill="black"/>
<rect x="514.554" y="25.6" width="8.77778" height="6.4" fill="black"/>
<path d="M532.11 147.2H496.999V153.6H488.221V179.2H496.999V185.6H532.11V179.2H540.888V153.6H532.11V147.2Z" fill="black"/>
<path d="M523.332 153.6H505.777V160H496.999V172.8H505.777V179.2H523.332V172.8H532.11V160H523.332V153.6Z" fill="#93FCEE"/>
<rect x="505.777" y="166.4" width="8.77778" height="6.4" fill="black"/>
<rect x="514.554" y="160" width="8.77778" height="6.4" fill="black"/>
<path d="M58.1099 147.2H22.9988V153.6H14.221V179.2H22.9988V185.6H58.1099V179.2H66.8877V153.6H58.1099V147.2Z" fill="black"/>
<path d="M49.3321 153.6H31.7766V160H22.9988V172.8H31.7766V179.2H49.3321V172.8H58.1099V160H49.3321V153.6Z" fill="#93FCEE"/>
<rect x="31.7766" y="166.4" width="8.77778" height="6.4" fill="black"/>
<rect x="40.5544" y="160" width="8.77778" height="6.4" fill="black"/>
<g filter="url(#filter0_d_20_463)">
<path d="M119.919 79.64L133.743 71.64C135.194 70.7867 136.474 70.68 137.583 71.32C138.735 71.96 139.311 73.1333 139.311 74.84V81.24L133.743 84.44V78.04L119.919 86.04V123.16L133.743 115.16V99.8L125.423 104.6V98.2L139.311 90.2V118.36L133.743 121.56V115.16C133.743 116.269 133.487 117.464 132.975 118.744C132.463 120.024 131.781 121.219 130.927 122.328C130.074 123.395 129.157 124.205 128.175 124.76L119.919 129.56C118.426 130.413 117.125 130.52 116.015 129.88C114.906 129.24 114.351 128.067 114.351 126.36V89.24C114.351 88.088 114.607 86.8933 115.119 85.656C115.631 84.376 116.314 83.2027 117.167 82.136C118.021 81.0267 118.938 80.1947 119.919 79.64ZM133.743 115.16V121.56L128.175 118.36V111.96L133.743 115.16ZM133.743 99.8V115.16L128.175 111.96V96.6L133.743 99.8ZM133.743 78.04V84.44L128.175 81.24V74.84L133.743 78.04ZM139.311 90.2L125.423 98.2L119.919 95L133.743 87L139.311 90.2ZM125.423 98.2V104.6L119.919 101.4V95L125.423 98.2ZM133.743 115.16L119.919 123.16L114.351 119.96L128.175 111.96L133.743 115.16ZM137.647 71.32C136.495 70.68 135.194 70.7867 133.743 71.64L119.919 79.64C118.938 80.1947 118.021 81.0267 117.167 82.136C116.314 83.2027 115.631 84.376 115.119 85.656C114.607 86.8933 114.351 88.088 114.351 89.24V126.36C114.351 128.067 114.906 129.24 116.015 129.88L110.447 126.68C109.338 126.04 108.783 124.867 108.783 123.16V86.04C108.783 84.888 109.039 83.6933 109.551 82.456C110.063 81.176 110.746 80.0027 111.599 78.936C112.453 77.8267 113.37 76.9947 114.351 76.44L128.175 68.44C129.669 67.5867 130.97 67.48 132.079 68.12L137.647 71.32ZM150.414 95.64L167.054 86.04C168.504 85.1867 169.784 85.08 170.894 85.72C172.003 86.36 172.558 87.5333 172.558 89.24V119.96L167.054 123.16V116.76C167.054 117.869 166.798 119.064 166.286 120.344C165.774 121.624 165.091 122.819 164.238 123.928C163.384 124.995 162.467 125.805 161.486 126.36L155.982 129.56C154.488 130.413 153.187 130.52 152.078 129.88C150.968 129.24 150.414 128.067 150.414 126.36V117.4C150.414 116.248 150.67 115.053 151.182 113.816C151.694 112.536 152.376 111.363 153.23 110.296C154.083 109.187 155 108.355 155.982 107.8L167.054 101.4V92.44L150.414 102.04V95.64ZM155.982 123.16L167.054 116.76V107.8L155.982 114.2V123.16ZM167.054 92.44V101.4L161.486 98.2V89.24L167.054 92.44ZM167.054 116.76V123.16L161.486 119.96V113.56L167.054 116.76ZM167.054 107.8V116.76L161.486 113.56V104.6L167.054 107.8ZM167.054 116.76L155.982 123.16L150.414 119.96L161.486 113.56L167.054 116.76ZM167.054 101.4L155.982 107.8C155 108.355 154.083 109.187 153.23 110.296C152.376 111.363 151.694 112.536 151.182 113.816C150.67 115.053 150.414 116.248 150.414 117.4V126.36C150.414 128.067 150.968 129.24 152.078 129.88L146.51 126.68C145.4 126.04 144.846 124.867 144.846 123.16V114.2C144.846 113.048 145.102 111.853 145.614 110.616C146.126 109.336 146.808 108.163 147.662 107.096C148.515 105.987 149.432 105.155 150.414 104.6L161.486 98.2L167.054 101.4ZM170.894 85.72C169.784 85.08 168.504 85.1867 167.054 86.04L150.414 95.64L144.846 92.44L161.486 82.84C162.979 81.9867 164.28 81.88 165.39 82.52L170.894 85.72ZM150.414 95.64V102.04L144.846 98.84V92.44L150.414 95.64ZM183.664 95.64L189.232 92.44V98.84C189.232 97.688 189.488 96.4933 190 95.256C190.512 93.976 191.173 92.8027 191.984 91.736C192.837 90.6267 193.754 89.7947 194.736 89.24L196.4 88.28C197.893 87.4267 199.194 87.32 200.304 87.96C201.413 88.6 201.968 89.7733 201.968 91.48C201.968 90.328 202.224 89.1333 202.736 87.896C203.248 86.616 203.909 85.4427 204.72 84.376C205.573 83.2667 206.49 82.4347 207.472 81.88L209.136 80.92C210.629 80.0667 211.93 79.96 213.04 80.6C214.149 81.24 214.704 82.4133 214.704 84.12V112.28L209.136 115.48V87.32L201.968 91.48V119.64L196.4 122.84V94.68L189.232 98.84V127L183.664 130.2V95.64ZM209.136 87.32V115.48L203.632 112.28V84.12L209.136 87.32ZM196.4 94.68V122.84L190.832 119.64V91.48L196.4 94.68ZM213.04 80.6C211.93 79.96 210.629 80.0667 209.136 80.92L207.472 81.88C206.49 82.4347 205.573 83.2667 204.72 84.376C203.909 85.4427 203.248 86.616 202.736 87.896C202.224 89.1333 201.968 90.328 201.968 91.48L196.4 88.28C196.4 87.128 196.656 85.9333 197.168 84.696C197.68 83.416 198.362 82.2427 199.216 81.176C200.069 80.0667 200.986 79.2347 201.968 78.68L203.632 77.72C205.082 76.8667 206.362 76.76 207.472 77.4L213.04 80.6ZM183.664 95.64V130.2L178.096 127V92.44L183.664 95.64ZM200.304 87.96C199.194 87.32 197.893 87.4267 196.4 88.28L194.736 89.24C193.754 89.7947 192.837 90.6267 191.984 91.736C191.173 92.8027 190.512 93.976 190 95.256C189.488 96.4933 189.232 97.688 189.232 98.84L183.664 95.64C183.664 94.488 183.92 93.2933 184.432 92.056C184.944 90.776 185.626 89.6027 186.48 88.536C187.333 87.4267 188.25 86.5947 189.232 86.04L190.832 85.08C192.325 84.2267 193.626 84.12 194.736 84.76L200.304 87.96ZM189.232 92.44L183.664 95.64L178.096 92.44L183.664 89.24L189.232 92.44ZM231.357 92.44L242.429 86.04C243.879 85.1867 245.159 85.08 246.269 85.72C247.378 86.36 247.933 87.5333 247.933 89.24V98.84C247.933 99.9493 247.677 101.144 247.165 102.424C246.653 103.704 245.97 104.899 245.117 106.008C244.306 107.075 243.41 107.885 242.429 108.44L236.861 111.64C235.41 112.493 234.13 112.6 233.021 111.96C231.911 111.32 231.357 110.147 231.357 108.44V123.16L247.933 113.56V119.96L231.357 129.56C229.863 130.413 228.562 130.52 227.453 129.88C226.343 129.24 225.789 128.067 225.789 126.36V102.04C225.789 100.888 226.045 99.6933 226.557 98.456C227.069 97.176 227.751 96.0027 228.605 94.936C229.458 93.8267 230.375 92.9947 231.357 92.44ZM242.429 92.44L231.357 98.84V108.44L242.429 102.04V92.44ZM247.933 113.56L231.357 123.16L225.789 119.96L242.429 110.36L247.933 113.56ZM242.429 92.44V102.04L236.861 98.84V89.24L242.429 92.44ZM231.357 108.44C231.357 110.147 231.911 111.32 233.021 111.96L227.453 108.76C226.343 108.12 225.789 106.947 225.789 105.24L231.357 108.44ZM242.429 102.04L231.357 108.44L225.789 105.24L236.861 98.84L242.429 102.04ZM246.269 85.72C245.159 85.08 243.879 85.1867 242.429 86.04L231.357 92.44C230.375 92.9947 229.458 93.8267 228.605 94.936C227.751 96.0027 227.069 97.176 226.557 98.456C226.045 99.6933 225.789 100.888 225.789 102.04V126.36C225.789 128.067 226.343 129.24 227.453 129.88L221.885 126.68C220.775 126.04 220.221 124.867 220.221 123.16V98.84C220.221 97.688 220.477 96.4933 220.989 95.256C221.501 93.976 222.183 92.8027 223.037 91.736C223.89 90.6267 224.807 89.7947 225.789 89.24L236.861 82.84C238.354 81.9867 239.655 81.88 240.765 82.52L246.269 85.72ZM281.232 107.8C279.738 108.653 278.437 108.76 277.328 108.12C276.218 107.48 275.664 106.307 275.664 104.6V89.24C275.664 88.088 275.92 86.8933 276.432 85.656C276.944 84.376 277.626 83.2027 278.48 82.136C279.333 81.0267 280.25 80.1947 281.232 79.64L295.056 71.64C296.506 70.7867 297.786 70.68 298.896 71.32C300.048 71.96 300.624 73.1333 300.624 74.84V83.8L295.056 87V78.04L281.232 86.04V101.4L295.056 93.4C296.506 92.5467 297.786 92.44 298.896 93.08C300.048 93.72 300.624 94.8933 300.624 96.6V111.96C300.624 113.069 300.346 114.264 299.792 115.544C299.28 116.824 298.597 118.019 297.744 119.128C296.933 120.195 296.037 121.005 295.056 121.56L281.232 129.56C279.738 130.413 278.437 130.52 277.328 129.88C276.218 129.24 275.664 128.067 275.664 126.36V119.96L281.232 116.76V123.16L295.056 115.16V99.8L281.232 107.8ZM295.056 99.8V115.16L289.488 111.96V96.6L295.056 99.8ZM295.056 115.16L281.232 123.16L275.664 119.96L289.488 111.96L295.056 115.16ZM295.056 78.04V87L289.488 83.8V74.84L295.056 78.04ZM281.232 116.76L275.664 119.96L270.096 116.76L275.664 113.56L281.232 116.76ZM275.664 119.96V126.36C275.664 128.067 276.218 129.24 277.328 129.88L271.76 126.68C270.65 126.04 270.096 124.867 270.096 123.16V116.76L275.664 119.96ZM298.96 93.08C297.808 92.44 296.506 92.5467 295.056 93.4L281.232 101.4L275.664 98.2L289.488 90.2C290.981 89.3467 292.282 89.24 293.392 89.88L298.96 93.08ZM298.96 71.32C297.808 70.68 296.506 70.7867 295.056 71.64L281.232 79.64C280.25 80.1947 279.333 81.0267 278.48 82.136C277.626 83.2027 276.944 84.376 276.432 85.656C275.92 86.8933 275.664 88.088 275.664 89.24V104.6C275.664 106.307 276.218 107.48 277.328 108.12L271.76 104.92C270.65 104.28 270.096 103.107 270.096 101.4V86.04C270.096 84.888 270.352 83.6933 270.864 82.456C271.376 81.176 272.058 80.0027 272.912 78.936C273.765 77.8267 274.682 76.9947 275.664 76.44L289.488 68.44C290.981 67.5867 292.282 67.48 293.392 68.12L298.96 71.32ZM314.478 103L308.974 106.2V99.8L314.478 96.6V90.2L320.046 87V99.8C320.046 98.648 320.302 97.4533 320.814 96.216C321.326 94.936 321.988 93.7627 322.798 92.696C323.652 91.5867 324.569 90.7547 325.55 90.2L331.118 87V93.4L320.046 99.8V124.12L331.118 117.72V124.12L320.046 130.52C318.553 131.373 317.252 131.48 316.142 130.84C315.033 130.2 314.478 129.027 314.478 127.32V103ZM331.118 117.72L320.046 124.12L314.478 120.92L325.55 114.52L331.118 117.72ZM331.118 87L325.55 90.2C324.569 90.7547 323.652 91.5867 322.798 92.696C321.988 93.7627 321.326 94.936 320.814 96.216C320.302 97.4533 320.046 98.648 320.046 99.8L314.478 96.6C314.478 95.448 314.734 94.2533 315.246 93.016C315.758 91.736 316.441 90.5627 317.294 89.496C318.148 88.3867 319.065 87.5547 320.046 87L325.55 83.8L331.118 87ZM314.478 96.6L308.974 99.8L303.406 96.6L308.974 93.4L314.478 96.6ZM314.478 103V127.32C314.478 129.027 315.033 130.2 316.142 130.84L310.638 127.64C309.529 127 308.974 125.827 308.974 124.12V99.8L314.478 103ZM320.046 87L314.478 90.2L308.974 87L314.478 83.8L320.046 87ZM314.478 90.2V96.6L308.974 93.4V87L314.478 90.2ZM308.974 99.8V106.2L303.406 103V96.6L308.974 99.8ZM342.164 95.64L358.804 86.04C360.254 85.1867 361.534 85.08 362.644 85.72C363.753 86.36 364.308 87.5333 364.308 89.24V119.96L358.804 123.16V116.76C358.804 117.869 358.548 119.064 358.036 120.344C357.524 121.624 356.841 122.819 355.988 123.928C355.134 124.995 354.217 125.805 353.236 126.36L347.732 129.56C346.238 130.413 344.937 130.52 343.828 129.88C342.718 129.24 342.164 128.067 342.164 126.36V117.4C342.164 116.248 342.42 115.053 342.932 113.816C343.444 112.536 344.126 111.363 344.98 110.296C345.833 109.187 346.75 108.355 347.732 107.8L358.804 101.4V92.44L342.164 102.04V95.64ZM347.732 123.16L358.804 116.76V107.8L347.732 114.2V123.16ZM358.804 92.44V101.4L353.236 98.2V89.24L358.804 92.44ZM358.804 116.76V123.16L353.236 119.96V113.56L358.804 116.76ZM358.804 107.8V116.76L353.236 113.56V104.6L358.804 107.8ZM358.804 116.76L347.732 123.16L342.164 119.96L353.236 113.56L358.804 116.76ZM358.804 101.4L347.732 107.8C346.75 108.355 345.833 109.187 344.98 110.296C344.126 111.363 343.444 112.536 342.932 113.816C342.42 115.053 342.164 116.248 342.164 117.4V126.36C342.164 128.067 342.718 129.24 343.828 129.88L338.26 126.68C337.15 126.04 336.596 124.867 336.596 123.16V114.2C336.596 113.048 336.852 111.853 337.364 110.616C337.876 109.336 338.558 108.163 339.412 107.096C340.265 105.987 341.182 105.155 342.164 104.6L353.236 98.2L358.804 101.4ZM362.644 85.72C361.534 85.08 360.254 85.1867 358.804 86.04L342.164 95.64L336.596 92.44L353.236 82.84C354.729 81.9867 356.03 81.88 357.14 82.52L362.644 85.72ZM342.164 95.64V102.04L336.596 98.84V92.44L342.164 95.64ZM375.414 98.2L380.982 95V101.4L386.486 98.2C386.486 97.048 386.742 95.8533 387.254 94.616C387.766 93.336 388.448 92.1627 389.302 91.096C390.155 89.9867 391.072 89.1547 392.054 88.6L397.558 85.4V91.8L392.054 95C392.054 96.1093 391.798 97.304 391.286 98.584C390.774 99.864 390.091 101.059 389.238 102.168C388.384 103.235 387.467 104.045 386.486 104.6L380.982 107.8V127L375.414 130.2V98.2ZM375.414 98.2V130.2L369.846 127V95L375.414 98.2ZM397.558 85.4L392.054 88.6C391.072 89.1547 390.155 89.9867 389.302 91.096C388.448 92.1627 387.766 93.336 387.254 94.616C386.742 95.8533 386.486 97.048 386.486 98.2L380.982 95C380.982 93.848 381.238 92.6533 381.75 91.416C382.262 90.136 382.923 88.9627 383.734 87.896C384.587 86.7867 385.504 85.9547 386.486 85.4L392.054 82.2L397.558 85.4ZM386.486 98.2L380.982 101.4L375.414 98.2L380.982 95L386.486 98.2ZM380.982 95L375.414 98.2L369.846 95L375.414 91.8L380.982 95ZM408.603 103L403.099 106.2V99.8L408.603 96.6V90.2L414.171 87V99.8C414.171 98.648 414.427 97.4533 414.939 96.216C415.451 94.936 416.113 93.7627 416.923 92.696C417.777 91.5867 418.694 90.7547 419.675 90.2L425.243 87V93.4L414.171 99.8V124.12L425.243 117.72V124.12L414.171 130.52C412.678 131.373 411.377 131.48 410.267 130.84C409.158 130.2 408.603 129.027 408.603 127.32V103ZM425.243 117.72L414.171 124.12L408.603 120.92L419.675 114.52L425.243 117.72ZM425.243 87L419.675 90.2C418.694 90.7547 417.777 91.5867 416.923 92.696C416.113 93.7627 415.451 94.936 414.939 96.216C414.427 97.4533 414.171 98.648 414.171 99.8L408.603 96.6C408.603 95.448 408.859 94.2533 409.371 93.016C409.883 91.736 410.566 90.5627 411.419 89.496C412.273 88.3867 413.19 87.5547 414.171 87L419.675 83.8L425.243 87ZM408.603 96.6L403.099 99.8L397.531 96.6L403.099 93.4L408.603 96.6ZM408.603 103V127.32C408.603 129.027 409.158 130.2 410.267 130.84L404.763 127.64C403.654 127 403.099 125.827 403.099 124.12V99.8L408.603 103ZM414.171 87L408.603 90.2L403.099 87L408.603 83.8L414.171 87ZM408.603 90.2V96.6L403.099 93.4V87L408.603 90.2ZM403.099 99.8V106.2L397.531 103V96.6L403.099 99.8Z" fill="#FEFA00"/>
</g>
<defs>
<filter id="filter0_d_20_463" x="104.783" y="67.16" width="324.46" height="72.64" filterUnits="userSpaceOnUse" color-interpolation-filters="sRGB">
<feFlood flood-opacity="0" result="BackgroundImageFix"/>
<feColorMatrix in="SourceAlpha" type="matrix" values="0 0 0 0 0 0 0 0 0 0 0 0 0 0 0 0 0 0 127 0" result="hardAlpha"/>
<feOffset dy="4"/>
<feGaussianBlur stdDeviation="2"/>
<feComposite in2="hardAlpha" operator="out"/>
<feColorMatrix type="matrix" values="0 0 0 0 0 0 0 0 0 0 0 0 0 0 0 0 0 0 0.25 0"/>
<feBlend mode="normal" in2="BackgroundImageFix" result="effect1_dropShadow_20_463"/>
<feBlend mode="normal" in="SourceGraphic" in2="effect1_dropShadow_20_463" result="shape"/>
</filter>
</defs>
</svg>
